<svg width="24" height="24" viewBox="0 0 24 24" fill="none" xmlns="http://www.w3.org/2000/svg">
<g clip-path="url(#clip0_69_392)">
<path d="M11.6247 2.625C11.7242 2.625 11.8195 2.58548 11.8899 2.51516C11.9602 2.44483 11.9997 2.34945 11.9997 2.25V0.375C11.9997 0.275544 11.9602 0.180161 11.8899 0.109835C11.8195 0.0395088 11.7242 0 11.6247 0C11.5252 0 11.4299 0.0395088 11.3595 0.109835C11.2892 0.180161 11.2497 0.275544 11.2497 0.375V2.25C11.2497 2.34945 11.2892 2.44483 11.3595 2.51516C11.4299 2.58548 11.5252 2.625 11.6247 2.625ZM16.6628 5.08685C16.6977 5.12168 16.739 5.14931 16.7845 5.16816C16.83 5.18701 16.8787 5.19672 16.928 5.19672C16.9772 5.19672 17.026 5.18701 17.0715 5.16816C17.117 5.14931 17.1583 5.12168 17.1931 5.08685L18.519 3.76099C18.589 3.6906 18.6282 3.59533 18.6281 3.49606C18.628 3.39679 18.5885 3.30162 18.5183 3.23142C18.4481 3.16123 18.3529 3.12173 18.2536 3.1216C18.1544 3.12147 18.0591 3.16071 17.9887 3.23071L16.6628 4.55658C16.628 4.59139 16.6004 4.63272 16.5815 4.67822C16.5627 4.72371 16.553 4.77247 16.553 4.82172C16.553 4.87096 16.5627 4.91972 16.5815 4.96521C16.6004 5.01071 16.628 5.05204 16.6628 5.08685ZM6.05628 5.27435C6.12664 5.34445 6.22194 5.38377 6.32127 5.38367C6.42059 5.38358 6.51581 5.34408 6.58605 5.27385C6.65628 5.20362 6.69577 5.10839 6.69587 5.00907C6.69596 4.90975 6.65665 4.81445 6.58655 4.74408L5.26068 3.41821C5.19032 3.34812 5.09502 3.3088 4.9957 3.3089C4.89637 3.30899 4.80115 3.34849 4.73092 3.41872C4.66069 3.48895 4.62119 3.58418 4.62109 3.6835C4.621 3.78282 4.66032 3.87812 4.73041 3.94849L6.05628 5.27435Z" fill="white"/>
<path d="M6.04125 15.0394C6.80438 16.1531 7.59375 17.3044 7.78312 18.5906C7.78799 18.6563 7.81256 19.0467 7.8359 19.5H15.7294V18.9975C15.7297 18.8071 15.768 18.6187 15.842 18.4432C15.916 18.2678 16.0243 18.1089 16.1605 17.9759C16.2967 17.8428 16.4581 17.7383 16.6352 17.6684C16.8123 17.5985 17.0015 17.5646 17.1919 17.5687H17.2106C17.8669 17.5725 18.3262 17.3831 18.5737 16.9969C18.8137 16.6219 18.7838 16.1794 18.7238 15.7969C18.6956 15.6131 18.6619 15.4294 18.6206 15.2512C18.6173 15.2377 18.6167 15.2237 18.6188 15.21C18.6368 15.203 18.6557 15.1985 18.675 15.1969C18.7119 15.1969 18.7486 15.1912 18.7838 15.18C18.8818 15.154 18.9729 15.1066 19.0504 15.0411C19.128 14.9756 19.1899 14.8936 19.2319 14.8012C19.2678 14.7124 19.2836 14.6167 19.2781 14.5211C19.2726 14.4254 19.2459 14.3322 19.2 14.2481C19.1677 14.186 19.1307 14.1265 19.0894 14.07C19.1175 14.0512 19.1438 14.0325 19.17 14.0137C19.2884 13.9744 19.3866 13.8902 19.4437 13.7794C19.5806 13.5094 19.4269 13.2206 19.3444 13.0669L19.335 13.0481C19.2788 12.9394 19.2544 12.8531 19.275 12.8287C19.333 12.7864 19.3976 12.7541 19.4662 12.7331L19.7119 12.6394C19.8094 12.6037 19.9069 12.5662 20.0044 12.5306C20.0156 12.525 20.0269 12.5212 20.0381 12.5156C20.1388 12.4711 20.2271 12.4024 20.2951 12.3158C20.3631 12.2292 20.4088 12.1272 20.4281 12.0187C20.439 11.8806 20.4217 11.7418 20.3772 11.6106C20.3327 11.4794 20.262 11.3586 20.1694 11.2556C19.7387 10.7052 19.4058 10.0849 19.185 9.42186C19.0666 8.96447 19.008 8.49368 19.0106 8.02123C18.9994 7.74749 18.99 7.46436 18.9562 7.17936C18.8653 6.43063 18.6478 5.70278 18.3131 5.02686L18.1369 5.20311L17.9531 5.38873L17.7244 5.61748C17.5131 5.82784 17.2271 5.94581 16.9289 5.94549C16.6308 5.94518 16.345 5.82661 16.1342 5.6158C15.9234 5.405 15.8048 5.11918 15.8045 4.82105C15.8042 4.52293 15.9221 4.23686 16.1325 4.02561L17.0006 3.15936C16.4271 2.5601 15.7532 2.06578 15.0094 1.69874C14.2973 1.35275 13.5346 1.12236 12.75 1.01624V2.24999C12.75 2.54835 12.6315 2.8345 12.4205 3.04548C12.2095 3.25646 11.9234 3.37499 11.625 3.37499C11.3266 3.37499 11.0405 3.25646 10.8295 3.04548C10.6185 2.8345 10.5 2.54835 10.5 2.24999V1.02374C10.0232 1.09101 9.55325 1.20018 9.09562 1.34999C7.96534 1.72348 6.93316 2.34561 6.075 3.17061L6.40875 3.50436L7.1175 4.21311C7.22239 4.31755 7.30564 4.44166 7.36251 4.57832C7.41937 4.71499 7.44872 4.86152 7.44887 5.00954C7.44903 5.15756 7.41999 5.30416 7.36342 5.44094C7.30685 5.57772 7.22385 5.702 7.11918 5.80667C7.01452 5.91134 6.89024 5.99433 6.75346 6.0509C6.61667 6.10748 6.47008 6.13651 6.32206 6.13636C6.17404 6.1362 6.0275 6.10685 5.89084 6.04999C5.75418 5.99313 5.63007 5.90987 5.52562 5.80498L4.6725 4.94999C4.00192 6.09506 3.6227 7.38725 3.56813 8.71311C3.465 11.2669 4.77 13.1794 5.92313 14.8669L6.04125 15.0394ZM12.6994 18.1875H10.5506C10.4512 18.1875 10.3558 18.148 10.2855 18.0777C10.2151 18.0073 10.1756 17.9119 10.1756 17.8125C10.1756 17.713 10.2151 17.6176 10.2855 17.5473C10.3558 17.477 10.4512 17.4375 10.5506 17.4375H12.6994C12.7988 17.4375 12.8942 17.477 12.9645 17.5473C13.0349 17.6176 13.0744 17.713 13.0744 17.8125C13.0744 17.9119 13.0349 18.0073 12.9645 18.0777C12.8942 18.148 12.7988 18.1875 12.6994 18.1875ZM13.3125 16.6875H9.9375C9.83804 16.6875 9.74266 16.648 9.67233 16.5777C9.60201 16.5073 9.5625 16.4119 9.5625 16.3125C9.5625 16.213 9.60201 16.1176 9.67233 16.0473C9.74266 15.977 9.83804 15.9375 9.9375 15.9375H13.3125C13.412 15.9375 13.5073 15.977 13.5777 16.0473C13.648 16.1176 13.6875 16.213 13.6875 16.3125C13.6875 16.4119 13.648 16.5073 13.5777 16.5777C13.5073 16.648 13.412 16.6875 13.3125 16.6875ZM11.6175 3.39749H11.6325H11.6256H11.6175ZM7.24197 8.37249C7.25997 7.47432 7.56004 6.60456 8.09969 5.88636C8.63935 5.16815 9.39124 4.63789 10.2489 4.37066C11.1422 4.07309 12.1078 4.07309 13.001 4.37066C13.8584 4.6383 14.6101 5.16866 15.1497 5.88678C15.6893 6.60489 15.9895 7.47444 16.008 8.37249C16.062 9.71035 15.403 10.7217 14.7018 11.7483C14.2472 12.4143 13.7234 13.1425 13.6036 13.9659C13.5699 14.2525 13.551 14.5407 13.5472 14.8292C13.5506 14.875 13.5445 14.9209 13.5293 14.9642C13.5142 15.0075 13.4902 15.0472 13.459 15.0808C13.4279 15.1144 13.3901 15.1412 13.348 15.1596C13.306 15.1779 13.2606 15.1874 13.2148 15.1875H10.034C9.98818 15.1874 9.94288 15.1779 9.90093 15.1595C9.85898 15.1411 9.82128 15.1143 9.79018 15.0806C9.75909 15.047 9.73527 15.0073 9.72022 14.9641C9.70518 14.9208 9.69923 14.8749 9.70275 14.8292C9.69877 14.5406 9.67956 14.2525 9.6452 13.9659C9.52538 13.1425 9.00269 12.4143 8.54695 11.7483C7.84571 10.7217 7.18676 9.71036 7.24197 8.37249ZM20.25 21.75H19.3406C19.4013 21.5804 19.4203 21.3987 19.396 21.2202C19.3716 21.0418 19.3046 20.8718 19.2007 20.7247C19.0968 20.5776 18.959 20.4576 18.799 20.375C18.6389 20.2924 18.4614 20.2495 18.2812 20.25H5.71875C5.53864 20.2495 5.36105 20.2924 5.20101 20.375C5.04096 20.4576 4.90316 20.5776 4.79926 20.7247C4.69535 20.8718 4.6284 21.0418 4.60405 21.2202C4.5797 21.3987 4.59868 21.5804 4.65938 21.75H3.75C3.45163 21.75 3.16548 21.8685 2.9545 22.0795C2.74353 22.2905 2.625 22.5766 2.625 22.875C2.625 23.1734 2.74353 23.4595 2.9545 23.6705C3.16548 23.8815 3.45163 24 3.75 24H20.25C20.5484 24 20.8345 23.8815 21.0455 23.6705C21.2565 23.4595 21.375 23.1734 21.375 22.875C21.375 22.5766 21.2565 22.2905 21.0455 22.0795C20.8345 21.8685 20.5484 21.75 20.25 21.75ZM18.2812 21.75H5.71875C5.61929 21.75 5.52391 21.7105 5.45359 21.6402C5.38326 21.5698 5.34375 21.4744 5.34375 21.375C5.34375 21.2755 5.38326 21.1801 5.45359 21.1098C5.52391 21.0395 5.61929 21 5.71875 21H18.2812C18.3807 21 18.4761 21.0395 18.5464 21.1098C18.6167 21.1801 18.6562 21.2755 18.6562 21.375C18.6562 21.4744 18.6167 21.5698 18.5464 21.6402C18.4761 21.7105 18.3807 21.75 18.2812 21.75Z" fill="white"/>
<path d="M11.2967 10.5H11.9532C12.049 10.5 12.1411 10.4634 12.2107 10.3976C12.2803 10.3318 12.3221 10.2419 12.3275 10.1462L12.5618 6.02124C12.5647 5.97029 12.5572 5.91928 12.5397 5.87135C12.5222 5.82341 12.4951 5.77956 12.46 5.74246C12.425 5.70537 12.3827 5.67581 12.3359 5.65562C12.289 5.63542 12.2385 5.625 12.1875 5.625H11.0625C11.0114 5.625 10.9609 5.63542 10.9141 5.65562C10.8672 5.67582 10.825 5.70537 10.7899 5.74246C10.7549 5.77956 10.7278 5.82341 10.7103 5.87135C10.6927 5.91929 10.6852 5.97029 10.6881 6.02124L10.9224 10.1462C10.9278 10.2419 10.9696 10.3318 11.0392 10.3976C11.1088 10.4634 11.201 10.5 11.2967 10.5Z" fill="white"/>
<path d="M12 11.25H11.25C11.0429 11.25 10.875 11.4179 10.875 11.625V12.375C10.875 12.5821 11.0429 12.75 11.25 12.75H12C12.2071 12.75 12.375 12.5821 12.375 12.375V11.625C12.375 11.4179 12.2071 11.25 12 11.25Z" fill="white"/>
</g>
<defs>
<clipPath id="clip0_69_392">
<rect width="24" height="24" fill="white"/>
</clipPath>
</defs>
</svg>
