<svg width="20" height="20" viewBox="0 0 20 20" fill="none" xmlns="http://www.w3.org/2000/svg">
<path d="M10 1.25C5.17525 1.25 1.25 5.17525 1.25 10C1.25 14.8247 5.17525 18.75 10 18.75C14.8247 18.75 18.75 14.8247 18.75 10C18.75 5.17525 14.8247 1.25 10 1.25ZM2.25 10C2.25 6.037 5.24075 2.76125 9.08325 2.306L7.172 5.4915C6.5685 6.4975 6.43025 7.714 6.79275 8.82975C7.15525 9.9455 7.98275 10.8485 9.06225 11.3073C10.5985 11.9603 11.3277 13.7457 10.688 15.2872L9.66975 17.7415C5.549 17.5678 2.25 14.1625 2.25 10ZM10.7645 17.712L11.6115 15.6707C12.461 13.624 11.4927 11.2538 9.45325 10.387C9.05143 10.2163 8.69092 9.96135 8.39606 9.6394C8.10119 9.31745 7.87883 8.93598 7.744 8.52075C7.60894 8.10551 7.56453 7.66613 7.61379 7.23226C7.66304 6.7984 7.8048 6.38015 8.0295 6.00575L10.2788 2.257C14.4233 2.4045 17.75 5.82025 17.75 10C17.75 14.0153 14.6802 17.3267 10.7645 17.712Z" fill="#232323"/>
</svg>
