<svg width="20" height="20" viewBox="0 0 20 20" fill="none" xmlns="http://www.w3.org/2000/svg">
<g clip-path="url(#clip0_5_2)">
<path fill-rule="evenodd" clip-rule="evenodd" d="M4.15934 19.3673L0.620972 15.8407L0.492091 15.9695C-0.16403 16.6257 -0.16403 17.7153 0.492091 18.3714L1.61687 19.4962C2.28471 20.164 3.36262 20.164 4.03046 19.4962L4.15934 19.3673ZM5.16696 18.3597L1.62859 14.833L0.796719 15.6766L4.32337 19.2033L5.16696 18.3597ZM6.13943 17.3872L2.60105 13.8606L1.79262 14.669L5.33099 18.1957L6.13943 17.3872ZM7.14704 16.3913L3.60867 12.853L2.7768 13.6965L6.30346 17.2232L7.14704 16.3913ZM14.9854 7.62742L14.4581 6.64323L9.98243 10.1816C9.87698 10.2636 9.73638 10.123 9.81839 10.0176L13.345 5.54189L12.3609 5.01465C12.0797 4.86233 11.7282 4.73345 11.4704 4.99121L3.7727 12.6889L7.31107 16.2156L15.0088 8.51787C15.2548 8.27182 15.1377 7.90861 14.9854 7.62742ZM10.6151 9.38489L14.3292 6.46749L15.6649 5.12009L14.8682 4.32337L13.5325 5.67077L10.6151 9.38489ZM15.8407 4.95606L16.6725 4.12419L15.8758 3.31576L15.0322 4.15934L15.8407 4.95606ZM16.8366 3.96016L17.6216 3.17516L16.8248 2.37844L16.0398 3.15173L16.8366 3.96016ZM17.7856 3.01113L18.6292 2.16755L17.8325 1.37083L16.9889 2.21441L17.7856 3.01113ZM18.7932 2.00351L19.9297 0.867018C20.0234 0.773286 20.0234 0.620972 19.9297 0.527241L19.4728 0.0702988C19.379 -0.0234329 19.2267 -0.0234329 19.1213 0.0702988L17.9965 1.2068L18.7932 2.00351Z" fill="#232323"/>
</g>
<defs>
<clipPath id="clip0_5_2">
<rect width="20" height="20" fill="white"/>
</clipPath>
</defs>
</svg>
