<svg width="32" height="32" viewBox="0 0 32 32" fill="none" xmlns="http://www.w3.org/2000/svg">
<g clip-path="url(#clip0_10_188)">
<path d="M20.4347 9.5H11.4347L8.86072 3.352C8.7656 3.16158 8.73373 2.94578 8.76973 2.736C8.80574 2.52621 8.90774 2.33338 9.06091 2.18558C9.21407 2.03777 9.4104 1.94269 9.62134 1.91417C9.83227 1.88565 10.0468 1.92518 10.2337 2.027L11.6207 2.784C12 2.99082 12.436 3.06927 12.8636 3.00762C13.2912 2.94597 13.6873 2.74754 13.9927 2.442L14.5207 1.914C14.8958 1.53906 15.4044 1.32843 15.9347 1.32843C16.465 1.32843 16.9737 1.53906 17.3487 1.914L17.8767 2.442C18.1821 2.74754 18.5782 2.94597 19.0058 3.00762C19.4334 3.06927 19.8694 2.99082 20.2487 2.784L21.6357 2.027C21.8226 1.92518 22.0372 1.88565 22.2481 1.91417C22.459 1.94269 22.6554 2.03777 22.8085 2.18558C22.9617 2.33338 23.0637 2.52621 23.0997 2.736C23.1357 2.94578 23.1038 3.16158 23.0087 3.352L20.4347 9.5ZM22.1847 31.5H9.55472C8.21657 31.5 6.91682 31.0527 5.8621 30.2292C4.80738 29.4057 4.05822 28.2532 3.73372 26.955L3.71872 26.895C3.15771 24.6525 3.20482 22.3009 3.85518 20.0826C4.50555 17.8643 5.73565 15.8596 7.41872 14.275L10.3697 11.5H22.3697L25.0227 14.33C26.5095 15.9159 27.5749 17.8494 28.1214 19.9534C28.6678 22.0575 28.6779 24.265 28.1507 26.374L28.0057 26.955C27.6812 28.2532 26.9321 29.4057 25.8773 30.2292C24.8226 31.0527 23.5229 31.5 22.1847 31.5Z" fill="#F8A839"/>
<path d="M15.8701 27.5C19.1838 27.5 21.8701 24.8137 21.8701 21.5C21.8701 18.1863 19.1838 15.5 15.8701 15.5C12.5564 15.5 9.87012 18.1863 9.87012 21.5C9.87012 24.8137 12.5564 27.5 15.8701 27.5Z" fill="#FEDC55"/>
<path d="M21.4911 9.35501H10.5271C9.93397 9.35501 9.45312 9.83586 9.45312 10.429V10.57C9.45312 11.1632 9.93397 11.644 10.5271 11.644H21.4911C22.0843 11.644 22.5651 11.1632 22.5651 10.57V10.429C22.5651 9.83586 22.0843 9.35501 21.4911 9.35501Z" fill="#E1762E"/>
<path d="M15.9998 15C14.7142 15 13.4575 15.3812 12.3886 16.0954C11.3197 16.8097 10.4866 17.8248 9.9946 19.0126C9.50263 20.2003 9.37391 21.5072 9.62471 22.7681C9.87552 24.029 10.4946 25.1872 11.4036 26.0962C12.3127 27.0052 13.4709 27.6243 14.7317 27.8751C15.9926 28.1259 17.2995 27.9972 18.4873 27.5052C19.675 27.0132 20.6901 26.1801 21.4044 25.1112C22.1186 24.0423 22.4998 22.7856 22.4998 21.5C22.4977 19.7767 21.8122 18.1247 20.5937 16.9061C19.3751 15.6876 17.7231 15.0021 15.9998 15ZM15.9998 27C14.912 27 13.8486 26.6774 12.9442 26.0731C12.0397 25.4687 11.3348 24.6098 10.9185 23.6048C10.5022 22.5998 10.3933 21.4939 10.6055 20.427C10.8177 19.3601 11.3415 18.3801 12.1107 17.6109C12.8799 16.8417 13.8599 16.3179 14.9268 16.1057C15.9937 15.8935 17.0996 16.0024 18.1046 16.4187C19.1096 16.8349 19.9685 17.5399 20.5729 18.4444C21.1772 19.3488 21.4998 20.4122 21.4998 21.5C21.498 22.9581 20.9179 24.356 19.8869 25.387C18.8558 26.4181 17.4579 26.9981 15.9998 27ZM25.5188 13.989L22.8918 11.189C23.0044 10.9778 23.0641 10.7424 23.0658 10.503C23.0658 10.1052 22.9078 9.72365 22.6265 9.44234C22.3452 9.16104 21.9636 9.003 21.5658 9.003H21.3168L23.5868 3.579C23.7298 3.2933 23.7778 2.96942 23.7239 2.65452C23.67 2.33962 23.517 2.05016 23.2871 1.8283C23.0572 1.60645 22.7625 1.46379 22.4458 1.42111C22.1292 1.37842 21.8072 1.43794 21.5268 1.591L20.1398 2.347C19.8551 2.50106 19.5284 2.55934 19.208 2.51324C18.8876 2.46713 18.5905 2.31908 18.3608 2.091L17.8338 1.563C17.6017 1.33079 17.326 1.14658 17.0227 1.0209C16.7193 0.895222 16.3942 0.830536 16.0658 0.830536C15.7375 0.830536 15.4123 0.895222 15.109 1.0209C14.8056 1.14658 14.53 1.33079 14.2978 1.563L13.7708 2.091C13.5409 2.31866 13.2438 2.46642 12.9236 2.51251C12.6033 2.5586 12.2766 2.50058 11.9918 2.347L10.5998 1.588C10.3221 1.43827 10.0042 1.37994 9.69139 1.42129C9.37859 1.46265 9.08679 1.60159 8.85751 1.81836C8.62823 2.03512 8.47314 2.31867 8.41431 2.62866C8.35548 2.93865 8.3959 3.25931 8.52982 3.545L10.8138 9H10.5648C10.2561 8.99831 9.95441 9.09237 9.70135 9.26923C9.44829 9.44609 9.25628 9.69706 9.15177 9.98757C9.04726 10.2781 9.03538 10.5939 9.11776 10.8914C9.20015 11.1889 9.37276 11.4536 9.61182 11.649L7.21182 13.912C5.4589 15.5663 4.17945 17.6587 3.50562 19.9729C2.83178 22.2871 2.78801 24.7392 3.37882 27.076C3.72872 28.4833 4.53985 29.7328 5.68281 30.6253C6.82577 31.5178 8.2347 32.0017 9.68482 32H22.3148C23.7648 32.0018 25.1736 31.518 26.3166 30.6257C27.4595 29.7334 28.2707 28.4841 28.6208 27.077L28.7668 26.496C29.3193 24.3063 29.3114 22.0126 28.7437 19.8268C28.1761 17.6409 27.067 15.6332 25.5188 13.989ZM9.43782 3.128C9.38994 3.03272 9.37378 2.92464 9.39169 2.81952C9.4096 2.71441 9.46065 2.61777 9.53737 2.54373C9.6141 2.46968 9.71249 2.4221 9.81817 2.40794C9.92386 2.39378 10.0313 2.41377 10.1248 2.465L11.5118 3.221C11.9859 3.47794 12.53 3.57572 13.0638 3.49992C13.5977 3.42412 14.093 3.17875 14.4768 2.8L14.9998 2.268C15.1391 2.12861 15.3045 2.01804 15.4866 1.9426C15.6686 1.86715 15.8638 1.82832 16.0608 1.82832C16.2579 1.82832 16.453 1.86715 16.6351 1.9426C16.8171 2.01804 16.9825 2.12861 17.1218 2.268L17.6488 2.796C18.0319 3.17572 18.5269 3.42221 19.0608 3.4991C19.5947 3.57598 20.1391 3.47919 20.6138 3.223L21.9998 2.466C22.0926 2.41248 22.2006 2.3912 22.3068 2.40549C22.413 2.41978 22.5114 2.46884 22.5868 2.545C22.6681 2.62275 22.7209 2.72565 22.7365 2.83706C22.7521 2.94848 22.7296 3.06191 22.6728 3.159L20.2318 9H11.8998L9.43782 3.128ZM10.5648 10H21.5648C21.6974 10 21.8246 10.0527 21.9184 10.1464C22.0121 10.2402 22.0648 10.3674 22.0648 10.5C22.0648 10.6326 22.0121 10.7598 21.9184 10.8536C21.8246 10.9473 21.6974 11 21.5648 11H10.5648C10.4322 11 10.305 10.9473 10.2113 10.8536C10.1175 10.7598 10.0648 10.6326 10.0648 10.5C10.0648 10.3674 10.1175 10.2402 10.2113 10.1464C10.305 10.0527 10.4322 10 10.5648 10ZM27.7998 26.253L27.6538 26.834C27.3576 28.0253 26.6708 29.0829 25.703 29.8381C24.7352 30.5932 23.5423 31.0023 22.3148 31H9.68482C8.44802 30.9984 7.24773 30.5807 6.27712 29.8141C5.30651 29.0476 4.62203 27.9768 4.33382 26.774C3.79606 24.6175 3.84241 22.3568 4.46809 20.2242C5.09378 18.0916 6.27622 16.1641 7.89382 14.64L10.6998 12H22.2828L24.7888 14.672C26.2231 16.1941 27.2508 18.0529 27.777 20.077C28.3033 22.1011 28.3111 24.2251 27.7998 26.253ZM15.4998 19H16.4998C16.765 19 17.0194 19.1054 17.2069 19.2929C17.3945 19.4804 17.4998 19.7348 17.4998 20C17.4998 20.1326 17.5525 20.2598 17.6463 20.3536C17.74 20.4473 17.8672 20.5 17.9998 20.5C18.1324 20.5 18.2596 20.4473 18.3534 20.3536C18.4471 20.2598 18.4998 20.1326 18.4998 20C18.4998 19.4696 18.2891 18.9609 17.914 18.5858C17.539 18.2107 17.0302 18 16.4998 18V17.5C16.4998 17.3674 16.4471 17.2402 16.3534 17.1464C16.2596 17.0527 16.1324 17 15.9998 17C15.8672 17 15.74 17.0527 15.6463 17.1464C15.5525 17.2402 15.4998 17.3674 15.4998 17.5V18C14.9694 18 14.4607 18.2107 14.0856 18.5858C13.7105 18.9609 13.4998 19.4696 13.4998 20C13.4998 20.5304 13.7105 21.0391 14.0856 21.4142C14.4607 21.7893 14.9694 22 15.4998 22H16.4998C16.765 22 17.0194 22.1054 17.2069 22.2929C17.3945 22.4804 17.4998 22.7348 17.4998 23C17.4998 23.2652 17.3945 23.5196 17.2069 23.7071C17.0194 23.8946 16.765 24 16.4998 24H15.4998C15.2346 24 14.9802 23.8946 14.7927 23.7071C14.6052 23.5196 14.4998 23.2652 14.4998 23C14.4998 22.8674 14.4471 22.7402 14.3534 22.6464C14.2596 22.5527 14.1324 22.5 13.9998 22.5C13.8672 22.5 13.74 22.5527 13.6463 22.6464C13.5525 22.7402 13.4998 22.8674 13.4998 23C13.4998 23.5304 13.7105 24.0391 14.0856 24.4142C14.4607 24.7893 14.9694 25 15.4998 25V25.5C15.4998 25.6326 15.5525 25.7598 15.6463 25.8536C15.74 25.9473 15.8672 26 15.9998 26C16.1324 26 16.2596 25.9473 16.3534 25.8536C16.4471 25.7598 16.4998 25.6326 16.4998 25.5V25C17.0302 25 17.539 24.7893 17.914 24.4142C18.2891 24.0391 18.4998 23.5304 18.4998 23C18.4998 22.4696 18.2891 21.9609 17.914 21.5858C17.539 21.2107 17.0302 21 16.4998 21H15.4998C15.2346 21 14.9802 20.8946 14.7927 20.7071C14.6052 20.5196 14.4998 20.2652 14.4998 20C14.4998 19.7348 14.6052 19.4804 14.7927 19.2929C14.9802 19.1054 15.2346 19 15.4998 19Z" fill="black"/>
</g>
<defs>
<clipPath id="clip0_10_188">
<rect width="32" height="32" fill="white"/>
</clipPath>
</defs>
</svg>
