<svg width="24" height="24" viewBox="0 0 24 24" fill="none" xmlns="http://www.w3.org/2000/svg">
<circle cx="12" cy="12" r="10" fill="white"/>
<path d="M9.93325 5.63248C9.95865 5.54609 10.0113 5.47025 10.0835 5.41631C10.1556 5.36238 10.2432 5.33326 10.3333 5.33331H13.6666C13.7326 5.33336 13.7976 5.34908 13.8563 5.37918C13.915 5.40928 13.9658 5.4529 14.0043 5.50644C14.0429 5.55998 14.0682 5.62191 14.0782 5.68715C14.0881 5.75238 14.0824 5.81904 14.0616 5.88165L12.5783 10.3333H15.7499C15.8279 10.3333 15.9044 10.3551 15.9706 10.3964C16.0369 10.4377 16.0901 10.4967 16.1244 10.5668C16.1588 10.6369 16.1727 10.7152 16.1647 10.7928C16.1566 10.8704 16.127 10.9442 16.0791 11.0058L10.2458 18.5058C10.186 18.583 10.101 18.6368 10.0057 18.6577C9.91031 18.6787 9.81063 18.6655 9.72402 18.6204C9.6374 18.5754 9.56935 18.5014 9.53174 18.4113C9.49414 18.3212 9.48936 18.2207 9.51825 18.1275L11.0191 13.25H8.24992C8.18514 13.25 8.12124 13.235 8.0633 13.206C8.00537 13.177 7.95498 13.1349 7.91615 13.0831C7.87733 13.0312 7.85112 12.971 7.83962 12.9073C7.82813 12.8435 7.83165 12.778 7.84992 12.7158L9.93325 5.63248Z" fill="#E3B174"/>
</svg>
