<svg width="32" height="32" viewBox="0 0 32 32" fill="none" xmlns="http://www.w3.org/2000/svg">
<path d="M2.55566 7.33799C2.55566 7.73582 2.7137 8.11735 2.995 8.39865C3.27631 8.67996 3.65784 8.83799 4.05566 8.83799H4.85566V26.563C4.85699 27.8718 5.37742 29.1266 6.30279 30.0522C7.22815 30.9777 8.48287 31.4984 9.79166 31.5H22.2077C23.5165 31.4984 24.7712 30.9777 25.6965 30.0522C26.6219 29.1266 27.1423 27.8718 27.1437 26.563V8.83799H27.9437C28.3415 8.83799 28.723 8.67996 29.0043 8.39865C29.2856 8.11735 29.4437 7.73582 29.4437 7.33799C29.4437 6.94017 29.2856 6.55864 29.0043 6.27733C28.723 5.99603 28.3415 5.83799 27.9437 5.83799H22.6937V4.28999C22.6937 2.19999 20.9937 0.498993 18.9037 0.498993H13.0957C11.0057 0.498993 9.30566 2.19899 9.30566 4.28999V5.83699H4.05566C3.65784 5.83699 3.27631 5.99503 2.995 6.27633C2.7137 6.55764 2.55566 6.94017 2.55566 7.33799ZM12.3057 4.29099C12.3057 3.85399 12.6597 3.49999 13.0957 3.49999H18.9037C19.3397 3.49999 19.6937 3.85399 19.6937 4.29099V5.83799H12.3047V4.28999L12.3057 4.29099ZM7.85566 8.83799H24.1437V26.563C24.1431 27.0764 23.939 27.5686 23.5761 27.9317C23.2132 28.2948 22.7211 28.4992 22.2077 28.5H9.79166C9.27828 28.4992 8.78616 28.2948 8.42323 27.9317C8.0603 27.5686 7.85619 27.0764 7.85566 26.563V8.83799Z" fill="white"/>
<path d="M12.2725 25.737C12.6703 25.737 13.0518 25.579 13.3331 25.2977C13.6144 25.0164 13.7725 24.6348 13.7725 24.237V13.101C13.7725 12.7032 13.6144 12.3217 13.3331 12.0404C13.0518 11.759 12.6703 11.601 12.2725 11.601C11.8746 11.601 11.4931 11.759 11.2118 12.0404C10.9305 12.3217 10.7725 12.7032 10.7725 13.101V24.237C10.7725 24.6348 10.9305 25.0164 11.2118 25.2977C11.4931 25.579 11.8746 25.737 12.2725 25.737ZM19.7285 25.737C20.1263 25.737 20.5078 25.579 20.7891 25.2977C21.0704 25.0164 21.2285 24.6348 21.2285 24.237V13.101C21.2285 12.7032 21.0704 12.3217 20.7891 12.0404C20.5078 11.759 20.1263 11.601 19.7285 11.601C19.3306 11.601 18.9491 11.759 18.6678 12.0404C18.3865 12.3217 18.2285 12.7032 18.2285 13.101V24.237C18.2285 24.6348 18.3865 25.0164 18.6678 25.2977C18.9491 25.579 19.3306 25.737 19.7285 25.737Z" fill="white"/>
</svg>
