<svg width="20" height="20" viewBox="0 0 20 20" fill="none" xmlns="http://www.w3.org/2000/svg">
<g clip-path="url(#clip0_10_149)">
<path d="M17.6875 12.7341L17.6796 14.4755C17.6796 14.9765 17.5484 15.4815 17.286 15.9625C17.119 16.2726 16.8963 16.5787 16.622 16.8651C16.3636 17.1394 16.0575 17.4017 15.7036 17.6482C15.5366 17.7676 15.3577 17.8789 15.1669 17.9903C15.1271 18.014 15.0833 18.0379 15.0396 18.0617C14.7494 18.2248 14.4432 18.3759 14.1212 18.5071C13.9065 18.5985 13.6838 18.6861 13.4572 18.7655C13.159 18.8649 12.8529 18.9563 12.5387 19.0319C12.3201 19.0915 12.0974 19.1433 11.8748 19.1831C11.5726 19.2466 11.2665 19.2943 10.9564 19.3341C10.7377 19.366 10.515 19.3897 10.2924 19.4056C9.98623 19.4335 9.68007 19.4495 9.37395 19.4533C9.15527 19.4574 8.93259 19.4574 8.71395 19.4533C8.40383 19.4454 8.09771 19.4295 7.79155 19.4017C7.56891 19.3858 7.35023 19.3619 7.13155 19.3301C6.81747 19.2903 6.51131 19.2386 6.20915 19.1751C5.98651 19.1313 5.76783 19.0837 5.54915 19.0239C5.23503 18.9445 4.92891 18.8531 4.63071 18.7496C4.40407 18.6702 4.18143 18.5867 3.96671 18.4951C3.64863 18.3599 3.33855 18.2089 3.04827 18.0458C3.01251 18.026 2.98067 18.0101 2.94887 17.9903C2.75007 17.875 2.55923 17.7556 2.38431 17.6284C2.03051 17.3819 1.72039 17.1194 1.46591 16.8451C1.18759 16.5589 0.968911 16.2566 0.801951 15.9466C0.531591 15.4535 0.400391 14.9408 0.400391 14.4279L0.408311 12.6903C0.408311 13.1953 0.539511 13.7002 0.801951 14.1852C0.968951 14.4993 1.18759 14.8015 1.46591 15.0918C1.72431 15.3661 2.03047 15.6325 2.38435 15.8749C2.56327 16.0062 2.75807 16.1254 2.96087 16.2448C2.98871 16.2607 3.02051 16.2766 3.04831 16.2925C3.33855 16.4595 3.64867 16.6105 3.96675 16.7418C4.18543 16.8371 4.40411 16.9206 4.63075 17.0002C4.92895 17.1035 5.23507 17.1951 5.54919 17.2745C5.76787 17.3341 5.98651 17.3859 6.20919 17.4296C6.51135 17.4892 6.82147 17.5409 7.13159 17.5847C7.35027 17.6125 7.56891 17.6364 7.79159 17.6562C8.09775 17.6841 8.40391 17.6999 8.71399 17.708C8.93663 17.7119 9.15531 17.7119 9.37399 17.708C9.68011 17.7039 9.98627 17.688 10.2924 17.6603C10.5151 17.6443 10.7377 17.6205 10.9564 17.5927C11.2665 17.5529 11.5726 17.5011 11.8748 17.4415C12.0975 17.3978 12.3201 17.35 12.5388 17.2904C12.8529 17.2149 13.159 17.1235 13.4572 17.0241C13.6839 16.9445 13.9065 16.861 14.1212 16.7657C14.4433 16.6344 14.7494 16.4873 15.0397 16.3203C15.0874 16.2964 15.1351 16.2725 15.1788 16.2448C15.3657 16.1374 15.5406 16.026 15.7036 15.9107C16.0575 15.6643 16.3676 15.4018 16.6221 15.1275C16.9004 14.8413 17.1191 14.5391 17.286 14.2329C17.5524 13.748 17.6875 13.239 17.6875 12.7341Z" fill="#FED44C"/>
<path d="M15.1381 9.16885C18.5218 11.1224 18.5424 14.2908 15.1779 16.246C11.8161 18.1997 6.34346 18.1997 2.9597 16.2461C-0.426779 14.2909 -0.441859 11.1225 2.91998 9.16889C6.28446 7.21365 11.7516 7.21365 15.1381 9.16885Z" fill="#FEE182"/>
<path d="M14.2485 9.8952C11.3581 8.34076 6.68641 8.34076 3.81581 9.8952C2.24929 10.742 1.54161 11.8793 1.69669 12.9845C1.82389 12.074 2.52765 11.1874 3.81581 10.4877C6.68641 8.93716 11.3581 8.93308 14.2485 10.4877C15.5606 11.1915 16.2842 12.102 16.4035 13.0243C16.5625 11.9031 15.8429 10.754 14.2485 9.8952Z" fill="#D8B441"/>
<path d="M14.2481 10.4877C11.3577 8.93305 6.68601 8.93713 3.81541 10.4877C2.52721 11.1874 1.82349 12.074 1.69629 12.9845C1.81557 13.907 2.53521 14.8173 3.85121 15.5212C6.74169 17.0718 11.4094 17.0718 14.2839 15.5171C15.5681 14.8213 16.2758 13.9347 16.4031 13.0243C16.2838 12.1019 15.5602 11.1915 14.2481 10.4877Z" fill="#FED44C"/>
<path d="M11.222 14.1855C11.2791 14.5688 11.0183 14.9258 10.4397 15.262C9.86339 15.597 9.19059 15.7519 8.41647 15.7242C7.64223 15.6966 6.90291 15.4987 6.19127 15.1264L5.47931 15.5402L4.84415 15.1735L5.56567 14.7542C4.75019 14.1757 4.29239 13.4949 4.19727 12.7144L5.78311 12.6342C5.85807 13.2348 6.14279 13.7329 6.64439 14.1273L8.56115 13.0134C7.98719 12.4778 7.67407 12.0239 7.61463 11.6559C7.55763 11.2864 7.81367 10.9349 8.38271 10.6042C8.95191 10.2734 9.61987 10.1185 10.3821 10.1392C11.1443 10.1599 11.8645 10.3467 12.5426 10.6996L13.0377 10.4118L13.6729 10.7786L13.1681 11.0719C13.8467 11.5244 14.2869 12.0655 14.4985 12.6978L12.9417 12.8528C12.8127 12.4197 12.5285 12.035 12.0919 11.6973L10.2321 12.7781L10.2633 12.7961C10.8493 13.3386 11.1697 13.8021 11.222 14.1855ZM8.28219 14.7888C8.61919 14.8068 8.90307 14.7501 9.13407 14.6158C9.36507 14.4816 9.47407 14.3322 9.46371 14.1716C9.45315 14.0084 9.30615 13.7773 9.02739 13.4783L7.24859 14.512C7.60067 14.6767 7.94523 14.768 8.28219 14.7888ZM9.77571 12.3076L11.4854 11.3141C11.1595 11.1564 10.839 11.0733 10.5211 11.0609C10.2058 11.0498 9.93379 11.1079 9.71467 11.2352C9.49323 11.3639 9.38647 11.5037 9.38975 11.6545C9.39543 11.8067 9.52319 12.024 9.77571 12.3076Z" fill="#FEE182"/>
<g opacity="0.05">
<path d="M1.46572 15.0918V16.8451C1.1874 16.5589 0.968718 16.2566 0.801758 15.9466V14.1852C0.968758 14.4993 1.1874 14.8016 1.46572 15.0918ZM3.04812 16.2925V18.0458C3.01236 18.026 2.98052 18.0101 2.94872 17.9903C2.74992 17.8749 2.55908 17.7555 2.38416 17.6284V15.8749C2.56308 16.0062 2.75788 16.1254 2.96068 16.2448C2.98852 16.2607 3.02028 16.2766 3.04812 16.2925ZM4.63056 17.0002V18.7495C4.40392 18.6701 4.18128 18.5867 3.96656 18.495V16.7418C4.18524 16.8371 4.40392 16.9206 4.63056 17.0002ZM6.20896 17.4296V19.1751C5.98632 19.1312 5.76764 19.0836 5.54896 19.0238V17.2745C5.76764 17.3341 5.98632 17.3859 6.20896 17.4296ZM7.79136 17.6561V19.4016C7.56872 19.3857 7.35004 19.3618 7.13136 19.33V17.5847C7.35004 17.6125 7.56872 17.6363 7.79136 17.6561ZM9.3738 17.708V19.4533C9.15512 19.4573 8.93244 19.4573 8.7138 19.4533V17.708C8.93644 17.7119 9.15508 17.7119 9.3738 17.708ZM10.9562 17.5927V19.3341C10.7375 19.3659 10.5149 19.3896 10.2922 19.4055V17.6602C10.5149 17.6443 10.7375 17.6204 10.9562 17.5927ZM12.5386 17.2904V19.0318C12.3199 19.0914 12.0973 19.1433 11.8746 19.1831V17.4415C12.0973 17.3978 12.3199 17.35 12.5386 17.2904ZM14.121 16.7657V18.5071C13.9063 18.5985 13.6836 18.6861 13.457 18.7655V17.0241C13.6836 16.9445 13.9063 16.861 14.121 16.7657ZM15.7034 15.9107V17.6482C15.5364 17.7676 15.3575 17.8789 15.1667 17.9903C15.1269 18.014 15.0832 18.0379 15.0394 18.0617V16.3203C15.0872 16.2965 15.1348 16.2726 15.1786 16.2448C15.3654 16.1374 15.5404 16.026 15.7034 15.9107ZM17.2858 14.233V15.9625C17.1188 16.2726 16.8962 16.5787 16.6218 16.8651V15.1275C16.9002 14.8414 17.1188 14.5391 17.2858 14.233Z" fill="#3F535C"/>
</g>
<path d="M18.1075 10.4253L18.0996 12.1667C18.0996 12.6677 17.9684 13.1727 17.706 13.6537C17.539 13.9638 17.3163 14.2699 17.042 14.5563C16.7836 14.8306 16.4774 15.0929 16.1236 15.3394C15.9566 15.4588 15.7777 15.5701 15.5868 15.6815C15.5471 15.7052 15.5033 15.7291 15.4596 15.7529C15.1694 15.916 14.8632 16.0671 14.5412 16.1983C14.3264 16.2897 14.1038 16.3773 13.8772 16.4567C13.579 16.5561 13.2728 16.6475 12.9587 16.7231C12.74 16.7827 12.5174 16.8345 12.2948 16.8743C11.9926 16.9378 11.6864 16.9855 11.3763 17.0253C11.1576 17.0572 10.935 17.0809 10.7124 17.0968C10.4062 17.1247 10.1 17.1407 9.79391 17.1445C9.57523 17.1486 9.35255 17.1486 9.13391 17.1445C8.82379 17.1366 8.51767 17.1207 8.21151 17.0929C7.98887 17.077 7.77019 17.0531 7.55151 17.0213C7.23743 16.9815 6.93127 16.9298 6.62911 16.8663C6.40647 16.8225 6.18779 16.7749 5.96911 16.7151C5.65499 16.6357 5.34887 16.5443 5.05067 16.4408C4.82403 16.3614 4.60139 16.2779 4.38667 16.1863C4.06859 16.0511 3.75851 15.9001 3.46823 15.737C3.43247 15.7172 3.40063 15.7013 3.36883 15.6815C3.17003 15.5662 2.97919 15.4468 2.80427 15.3196C2.45039 15.0731 2.14031 14.8106 1.88583 14.5363C1.60751 14.2501 1.38883 13.9479 1.22187 13.6379C0.951473 13.1447 0.820312 12.6321 0.820312 12.1191L0.828232 10.3816C0.828232 10.8866 0.959433 11.3915 1.22187 11.8765C1.38887 12.1906 1.60751 12.4928 1.88583 12.7831C2.14423 13.0574 2.45039 13.3237 2.80427 13.5662C2.98319 13.6975 3.17799 13.8167 3.38079 13.9361C3.40863 13.952 3.44043 13.9679 3.46823 13.9838C3.75847 14.1508 4.06859 14.3018 4.38667 14.4331C4.60535 14.5284 4.82403 14.6119 5.05067 14.6915C5.34887 14.7947 5.65499 14.8864 5.96911 14.9658C6.18779 15.0254 6.40643 15.0772 6.62911 15.1209C6.93127 15.1805 7.24139 15.2321 7.55151 15.276C7.77019 15.3038 7.98883 15.3277 8.21151 15.3475C8.51767 15.3754 8.82383 15.3911 9.13391 15.3993C9.35655 15.4032 9.57523 15.4032 9.79391 15.3993C10.1 15.3952 10.4062 15.3793 10.7124 15.3515C10.935 15.3356 11.1576 15.3117 11.3763 15.284C11.6864 15.2442 11.9926 15.1923 12.2948 15.1327C12.5174 15.0891 12.74 15.0413 12.9587 14.9817C13.2728 14.9062 13.579 14.8147 13.8772 14.7153C14.1038 14.6357 14.3264 14.5523 14.5412 14.4569C14.8632 14.3257 15.1693 14.1785 15.4596 14.0116C15.5073 13.9877 15.555 13.9638 15.5988 13.9361C15.7856 13.8287 15.9606 13.7173 16.1236 13.6019C16.4774 13.3556 16.7875 13.0931 17.042 12.8188C17.3203 12.5326 17.539 12.2303 17.706 11.9242C17.9724 11.4393 18.1075 10.9302 18.1075 10.4253Z" fill="#FED44C"/>
<path d="M15.558 6.86007C18.9417 8.81367 18.9623 11.982 15.5979 13.9372C12.2361 15.8909 6.76338 15.891 3.37962 13.9374C-0.00685649 11.9822 -0.0219367 8.81375 3.3399 6.86011C6.70434 4.90491 12.1715 4.90491 15.558 6.86007Z" fill="#FEE182"/>
<path d="M14.6685 7.58642C11.778 6.03198 7.10633 6.03198 4.23573 7.58642C2.66921 8.43322 1.96153 9.5705 2.11661 10.6757C2.24381 9.76522 2.94757 8.87858 4.23573 8.17894C7.10633 6.62838 11.778 6.6243 14.6685 8.17894C15.9805 8.8827 16.7041 9.79318 16.8234 10.7155C16.9824 9.59438 16.2628 8.4453 14.6685 7.58642Z" fill="#D8B441"/>
<path d="M14.6681 8.17895C11.7776 6.62431 7.10593 6.62839 4.23533 8.17895C2.94713 8.87863 2.24341 9.76523 2.11621 10.6757C2.23549 11.5982 2.95513 12.5085 4.27113 13.2125C7.16161 14.763 11.8293 14.763 14.7039 13.2084C15.9881 12.5126 16.6958 11.626 16.823 10.7155C16.7037 9.79319 15.9801 8.88271 14.6681 8.17895Z" fill="#FED44C"/>
<path d="M11.6419 11.8768C11.699 12.2601 11.4383 12.6171 10.8596 12.9533C10.2833 13.2882 9.61051 13.4432 8.83639 13.4155C8.06215 13.3878 7.32283 13.19 6.61119 12.8177L5.89923 13.2315L5.26407 12.8648L5.98559 12.4454C5.17011 11.867 4.71231 11.1862 4.61719 10.4057L6.20303 10.3254C6.27799 10.9261 6.56271 11.4242 7.06431 11.8186L8.98107 10.7046C8.40711 10.1691 8.09399 9.7152 8.03455 9.34716C7.97755 8.97768 8.23355 8.6262 8.80263 8.29548C9.37183 7.96468 10.0398 7.80976 10.802 7.83048C11.5643 7.8512 12.2844 8.038 12.9625 8.39088L13.4577 8.10312L14.0928 8.46984L13.5881 8.76316C14.2666 9.21568 14.7069 9.75676 14.9184 10.3891L13.3617 10.5441C13.2326 10.111 12.9485 9.72632 12.5118 9.3886L10.652 10.4694L10.6832 10.4874C11.2692 11.0299 11.5897 11.4934 11.6419 11.8768ZM8.70211 12.4801C9.03911 12.498 9.32299 12.4414 9.55399 12.3071C9.78499 12.1729 9.89399 12.0234 9.88363 11.8629C9.87307 11.6996 9.72607 11.4686 9.44731 11.1696L7.66851 12.2033C8.02059 12.368 8.36515 12.4593 8.70211 12.4801ZM10.1956 9.99888L11.9053 9.00532C11.5795 8.8476 11.2589 8.76456 10.9411 8.75212C10.6257 8.741 10.3537 8.79912 10.1346 8.92648C9.91315 9.05516 9.80639 9.19496 9.80967 9.34576C9.81535 9.49796 9.94311 9.71524 10.1956 9.99888Z" fill="#FEE182"/>
<g opacity="0.05">
<path d="M1.88564 12.7831V14.5363C1.60732 14.2501 1.38864 13.9479 1.22168 13.6379V11.8765C1.38864 12.1905 1.60732 12.4928 1.88564 12.7831ZM3.46804 13.9838V15.737C3.43228 15.7172 3.40044 15.7013 3.36864 15.6815C3.16984 15.5662 2.979 15.4468 2.80408 15.3196V13.5662C2.983 13.6974 3.1778 13.8166 3.3806 13.936C3.4084 13.9519 3.4402 13.9679 3.46804 13.9838ZM5.05044 14.6914V16.4408C4.8238 16.3614 4.60116 16.2779 4.38644 16.1863V14.433C4.60512 14.5283 4.8238 14.6118 5.05044 14.6914ZM6.62888 15.1208V16.8663C6.40624 16.8224 6.18756 16.7749 5.96888 16.7151V14.9657C6.18756 15.0253 6.4062 15.0771 6.62888 15.1208ZM8.21124 15.3474V17.0929C7.9886 17.0769 7.76992 17.0531 7.55124 17.0212V15.2759C7.76996 15.3037 7.9886 15.3276 8.21124 15.3474ZM9.79368 15.3992V17.1445C9.575 17.1486 9.35232 17.1486 9.13368 17.1445V15.3992C9.35632 15.4031 9.575 15.4031 9.79368 15.3992ZM11.3761 15.2839V17.0253C11.1574 17.0571 10.9348 17.0808 10.7121 17.0967V15.3515C10.9348 15.3355 11.1574 15.3117 11.3761 15.2839ZM12.9585 14.9816V16.723C12.7398 16.7826 12.5172 16.8345 12.2945 16.8743V15.1327C12.5172 15.089 12.7398 15.0412 12.9585 14.9816ZM14.5409 14.4569V16.1983C14.3262 16.2897 14.1035 16.3773 13.8769 16.4567V14.7153C14.1035 14.6357 14.3262 14.5522 14.5409 14.4569ZM16.1233 13.6019V15.3394C15.9563 15.4588 15.7774 15.5701 15.5866 15.6815C15.5468 15.7052 15.503 15.7291 15.4593 15.7529V14.0115C15.507 13.9877 15.5547 13.9638 15.5985 13.936C15.7854 13.8287 15.9603 13.7172 16.1233 13.6019ZM17.7057 11.9242V13.6537C17.5387 13.9638 17.316 14.2699 17.0417 14.5563V12.8188C17.32 12.5326 17.5387 12.2303 17.7057 11.9242Z" fill="#3F535C"/>
</g>
<path d="M18.5274 8.06976L18.5195 9.81116C18.5195 10.3122 18.3883 10.8172 18.1259 11.2982C17.9589 11.6083 17.7362 11.9144 17.4619 12.2008C17.2035 12.4751 16.8974 12.7374 16.5435 12.9839C16.3765 13.1033 16.1976 13.2146 16.0068 13.326C15.967 13.3497 15.9232 13.3736 15.8795 13.3974C15.5893 13.5605 15.2831 13.7116 14.9611 13.8428C14.7464 13.9342 14.5237 14.0218 14.2971 14.1012C13.9989 14.2006 13.6928 14.292 13.3786 14.3676C13.16 14.4272 12.9373 14.479 12.7147 14.5188C12.4125 14.5823 12.1064 14.63 11.7962 14.6698C11.5776 14.7017 11.3549 14.7254 11.1323 14.7413C10.8261 14.7692 10.52 14.7852 10.2138 14.789C9.99515 14.7931 9.77247 14.7931 9.55383 14.789C9.24371 14.7811 8.93759 14.7652 8.63143 14.7374C8.40879 14.7215 8.19011 14.6976 7.97143 14.6658C7.65735 14.626 7.35119 14.5743 7.04903 14.5108C6.82639 14.467 6.60771 14.4194 6.38903 14.3596C6.07491 14.2802 5.76879 14.1888 5.47059 14.0853C5.24395 14.0059 5.02131 13.9224 4.80659 13.8308C4.48851 13.6956 4.17843 13.5446 3.88815 13.3815C3.85239 13.3617 3.82055 13.3458 3.78875 13.326C3.58995 13.2107 3.39911 13.0913 3.22419 12.9641C2.87035 12.7176 2.56023 12.4551 2.30575 12.1808C2.02743 11.8946 1.80875 11.5924 1.64179 11.2824C1.37139 10.7892 1.24023 10.2766 1.24023 9.76364L1.24815 8.02612C1.24815 8.53108 1.37935 9.036 1.64179 9.52096C1.80879 9.83508 2.02743 10.1373 2.30575 10.4276C2.56415 10.7019 2.87031 10.9682 3.22419 11.2107C3.40311 11.342 3.59791 11.4612 3.80071 11.5806C3.82855 11.5965 3.86035 11.6124 3.88815 11.6283C4.17839 11.7953 4.48851 11.9463 4.80659 12.0776C5.02527 12.1729 5.24395 12.2564 5.47059 12.336C5.76879 12.4392 6.07491 12.5309 6.38903 12.6103C6.60771 12.6699 6.82635 12.7217 7.04903 12.7654C7.35119 12.825 7.66131 12.8766 7.97143 12.9205C8.19011 12.9483 8.40875 12.9722 8.63143 12.992C8.93759 13.0199 9.24375 13.0356 9.55383 13.0438C9.77647 13.0477 9.99515 13.0477 10.2138 13.0438C10.52 13.0397 10.8261 13.0238 11.1323 12.996C11.3549 12.9801 11.5776 12.9562 11.7962 12.9285C12.1064 12.8887 12.4125 12.8368 12.7147 12.7772C12.9373 12.7336 13.16 12.6858 13.3786 12.6262C13.6928 12.5507 13.9989 12.4592 14.2971 12.3598C14.5237 12.2802 14.7464 12.1968 14.9611 12.1014C15.2831 11.9702 15.5892 11.823 15.8795 11.6561C15.9272 11.6322 15.9749 11.6083 16.0187 11.5806C16.2056 11.4732 16.3805 11.3618 16.5435 11.2464C16.8974 11.0001 17.2074 10.7376 17.4619 10.4633C17.7402 10.1771 17.9589 9.87484 18.1259 9.56872C18.3923 9.08372 18.5274 8.57472 18.5274 8.06976Z" fill="#FED44C"/>
<path d="M15.9779 4.50456C19.3617 6.45816 19.3823 9.62652 16.0178 11.5817C12.6559 13.5354 7.18331 13.5354 3.79955 11.5818C0.413065 9.62664 0.397985 6.45824 3.75982 4.5046C7.1243 2.5494 12.5914 2.54936 15.9779 4.50456Z" fill="#FEE182"/>
<path d="M15.0884 5.23092C12.1979 3.67648 7.52625 3.67648 4.65565 5.23092C3.08913 6.07772 2.38145 7.215 2.53653 8.3202C2.66373 7.40972 3.36749 6.52308 4.65565 5.82344C7.52625 4.27288 12.1979 4.2688 15.0884 5.82344C16.4005 6.5272 17.1241 7.43768 17.2433 8.36C17.4023 7.23888 16.6827 6.0898 15.0884 5.23092Z" fill="#D8B441"/>
<path d="M15.088 5.82345C12.1975 4.26881 7.52585 4.27289 4.65525 5.82345C3.36705 6.52313 2.66333 7.40973 2.53613 8.32021C2.65541 9.24273 3.37505 10.153 4.69105 10.857C7.58153 12.4075 12.2492 12.4075 15.1238 10.8529C16.408 10.1571 17.1157 9.27049 17.2429 8.36001C17.1237 7.43769 16.4 6.52717 15.088 5.82345Z" fill="#FED44C"/>
<path d="M12.0618 9.5212C12.1189 9.90452 11.8582 10.2615 11.2795 10.5978C10.7032 10.9327 10.0304 11.0876 9.25631 11.0599C8.48207 11.0323 7.74275 10.8344 7.03111 10.4622L6.31915 10.8759L5.68399 10.5092L6.40551 10.0899C5.59003 9.51144 5.13223 8.83064 5.03711 8.05016L6.62295 7.96988C6.69791 8.57052 6.98263 9.06864 7.48423 9.463L9.40099 8.34908C8.82703 7.81356 8.51391 7.35964 8.45447 6.9916C8.39747 6.62212 8.65347 6.27064 9.22255 5.93992C9.79175 5.60912 10.4597 5.4542 11.2219 5.47492C11.9842 5.49564 12.7043 5.68244 13.3824 6.03532L13.8776 5.74756L14.5128 6.11428L14.008 6.4076C14.6865 6.86012 15.1268 7.4012 15.3383 8.03352L13.7816 8.18852C13.6525 7.7554 13.3684 7.37076 12.9317 7.03304L11.0719 8.11384L11.1031 8.13184C11.6892 8.67432 12.0096 9.13784 12.0618 9.5212ZM9.12203 10.1246C9.45903 10.1425 9.74291 10.0858 9.97391 9.9516C10.2049 9.81736 10.3139 9.66792 10.3035 9.50736C10.293 9.34412 10.146 9.11304 9.86723 8.81408L8.08843 9.8478C8.44055 10.0124 8.78507 10.1038 9.12203 10.1246ZM10.6156 7.64336L12.3253 6.6498C11.9994 6.49208 11.6789 6.40904 11.361 6.3966C11.0457 6.38548 10.7737 6.4436 10.5545 6.57096C10.3331 6.69964 10.2263 6.83944 10.2296 6.99024C10.2353 7.14244 10.3631 7.35972 10.6156 7.64336Z" fill="#FEE182"/>
<g opacity="0.05">
<path d="M2.30556 10.4276V12.1808C2.02724 11.8946 1.80856 11.5924 1.6416 11.2824V9.52097C1.80856 9.83505 2.02724 10.1373 2.30556 10.4276ZM3.88796 11.6283V13.3815C3.8522 13.3617 3.82036 13.3458 3.78856 13.326C3.58976 13.2107 3.39892 13.0913 3.224 12.9641V11.2107C3.40292 11.3419 3.59772 11.4611 3.80052 11.5805C3.82832 11.5964 3.86012 11.6124 3.88796 11.6283ZM5.47036 12.3359V14.0852C5.24372 14.0058 5.02108 13.9224 4.80636 13.8307V12.0775C5.02504 12.1728 5.24376 12.2563 5.47036 12.3359ZM7.0488 12.7653V14.5108C6.82616 14.4669 6.60748 14.4194 6.3888 14.3596V12.6102C6.60748 12.6698 6.82616 12.7216 7.0488 12.7653ZM8.6312 12.9919V14.7374C8.40856 14.7214 8.18988 14.6976 7.9712 14.6657V12.9204C8.18988 12.9482 8.40856 12.9721 8.6312 12.9919ZM10.2136 13.0437V14.789C9.99492 14.7931 9.77224 14.7931 9.5536 14.789V13.0437C9.77624 13.0476 9.99492 13.0476 10.2136 13.0437ZM11.796 12.9284V14.6698C11.5773 14.7016 11.3547 14.7253 11.132 14.7412V12.996C11.3547 12.98 11.5773 12.9562 11.796 12.9284ZM13.3784 12.6261V14.3675C13.1597 14.4271 12.9371 14.479 12.7144 14.5188V12.7772C12.9371 12.7335 13.1597 12.6857 13.3784 12.6261ZM14.9608 12.1014V13.8428C14.7461 13.9342 14.5235 14.0218 14.2968 14.1012V12.3598C14.5235 12.2802 14.7461 12.1967 14.9608 12.1014ZM16.5432 11.2464V12.9839C16.3763 13.1033 16.1974 13.2146 16.0065 13.326C15.9668 13.3497 15.923 13.3736 15.8793 13.3974V11.656C15.927 11.6322 15.9747 11.6083 16.0184 11.5805C16.2053 11.4732 16.3802 11.3617 16.5432 11.2464ZM18.1256 9.56869V11.2982C17.9586 11.6083 17.736 11.9144 17.4616 12.2008V10.4632C17.74 10.1771 17.9586 9.87485 18.1256 9.56869Z" fill="#3F535C"/>
</g>
<path d="M19.5987 5.57529L19.5908 7.31669C19.5908 7.81777 19.4596 8.32269 19.1972 8.80377C19.0302 9.11381 18.8075 9.41997 18.5332 9.70629C18.2748 9.98061 17.9686 10.2429 17.6148 10.4894C17.4478 10.6088 17.2688 10.7201 17.078 10.8315C17.0383 10.8552 16.9945 10.8791 16.9508 10.903C16.6606 11.066 16.3544 11.2171 16.0324 11.3483C15.8176 11.4398 15.595 11.5273 15.3684 11.6067C15.0702 11.7061 14.764 11.7976 14.4499 11.8731C14.2312 11.9327 14.0086 11.9845 13.786 12.0243C13.4838 12.0878 13.1776 12.1356 12.8675 12.1754C12.6488 12.2072 12.4262 12.2309 12.2036 12.2468C11.8974 12.2748 11.5912 12.2907 11.2851 12.2946C11.0664 12.2986 10.8438 12.2986 10.6251 12.2946C10.315 12.2866 10.0089 12.2707 9.70272 12.2429C9.48008 12.227 9.2614 12.2031 9.04272 12.1713C8.72864 12.1315 8.42248 12.0798 8.12032 12.0164C7.89768 11.9725 7.679 11.9249 7.46032 11.8651C7.1462 11.7857 6.84008 11.6943 6.54188 11.5908C6.31524 11.5114 6.0926 11.4279 5.87788 11.3363C5.5598 11.2012 5.24972 11.0501 4.95944 10.887C4.92368 10.8672 4.89184 10.8513 4.86004 10.8315C4.66124 10.7162 4.4704 10.5968 4.29548 10.4696C3.9416 10.2231 3.63152 9.96061 3.37704 9.68633C3.09872 9.40017 2.88004 9.09789 2.71308 8.78789C2.44268 8.29477 2.31152 7.78209 2.31152 7.26917L2.31944 5.53165C2.31944 6.03661 2.45064 6.54153 2.71308 7.02649C2.88008 7.34061 3.09872 7.64285 3.37704 7.93309C3.63544 8.20741 3.9416 8.47377 4.29548 8.71625C4.4744 8.84749 4.6692 8.96669 4.872 9.08609C4.89984 9.10201 4.93164 9.11793 4.95944 9.13385C5.24968 9.30081 5.5598 9.45185 5.87788 9.58309C6.09656 9.67841 6.31524 9.76189 6.54188 9.84149C6.84008 9.94477 7.1462 10.0364 7.46032 10.1158C7.679 10.1754 7.89764 10.2272 8.12032 10.2709C8.42248 10.3305 8.7326 10.3822 9.04272 10.426C9.2614 10.4538 9.48004 10.4777 9.70272 10.4975C10.0089 10.5254 10.315 10.5412 10.6251 10.5493C10.8478 10.5532 11.0664 10.5532 11.2851 10.5493C11.5912 10.5452 11.8974 10.5293 12.2036 10.5016C12.4262 10.4856 12.6488 10.4618 12.8675 10.434C13.1776 10.3942 13.4838 10.3424 13.786 10.2828C14.0086 10.2391 14.2312 10.1913 14.4499 10.1317C14.764 10.0562 15.0702 9.96477 15.3684 9.86537C15.595 9.78577 15.8176 9.70229 16.0324 9.60697C16.3544 9.47573 16.6605 9.32857 16.9508 9.16161C16.9985 9.13773 17.0462 9.11385 17.09 9.08609C17.2768 8.97873 17.4518 8.86729 17.6148 8.75197C17.9686 8.50561 18.2788 8.24313 18.5332 7.96881C18.8116 7.68265 19.0302 7.38037 19.1972 7.07425C19.4636 6.58925 19.5987 6.08025 19.5987 5.57529Z" fill="#FED44C"/>
<path d="M17.0492 2.01008C20.433 3.96368 20.4536 7.13204 17.0891 9.08724C13.7273 11.0409 8.25459 11.041 4.87083 9.08736C1.48435 7.13216 1.46927 3.96376 4.83111 2.01012C8.19555 0.0549213 13.6627 0.0548812 17.0492 2.01008Z" fill="#FEE182"/>
<path d="M16.1597 2.73645C13.2692 1.18201 8.59754 1.18201 5.72694 2.73645C4.16042 3.58325 3.45274 4.72053 3.60782 5.82573C3.73502 4.91525 4.43878 4.02861 5.72694 3.32897C8.59754 1.77841 13.2692 1.77433 16.1597 3.32897C17.4717 4.03273 18.1953 4.94321 18.3146 5.86553C18.4737 4.74441 17.754 3.59529 16.1597 2.73645Z" fill="#D8B441"/>
<path d="M16.1593 3.32897C13.2688 1.77433 8.59714 1.77841 5.72654 3.32897C4.43834 4.02865 3.73462 4.91525 3.60742 5.82573C3.7267 6.74825 4.44634 7.65857 5.76234 8.36249C8.65282 9.91305 13.3205 9.91305 16.1951 8.35841C17.4793 7.66261 18.187 6.77601 18.3142 5.86553C18.1949 4.94321 17.4713 4.03269 16.1593 3.32897Z" fill="#FED44C"/>
<path d="M13.1331 7.02671C13.1902 7.41003 12.9294 7.76703 12.3508 8.10327C11.7745 8.43819 11.1017 8.59315 10.3276 8.56543C9.55332 8.53779 8.814 8.33991 8.10236 7.96767L7.3904 8.38143L6.75528 8.01475L7.4768 7.59543C6.66132 7.01699 6.20352 6.33619 6.1084 5.55571L7.69424 5.47543C7.7692 6.07607 8.05392 6.57419 8.55552 6.96855L10.4723 5.85463C9.89832 5.31911 9.5852 4.86519 9.52576 4.49715C9.46876 4.12767 9.72476 3.77619 10.2938 3.44547C10.863 3.11467 11.531 2.95975 12.2932 2.98047C13.0555 3.00119 13.7756 3.18799 14.4537 3.54087L14.9489 3.25311L15.584 3.61983L15.0793 3.91315C15.7578 4.36567 16.1981 4.90675 16.4096 5.53907L14.8529 5.69407C14.7238 5.26095 14.4397 4.87631 14.003 4.53863L12.1432 5.61943L12.1744 5.63743C12.7604 6.17983 13.0808 6.64335 13.1331 7.02671ZM10.1933 7.63007C10.5303 7.64803 10.8142 7.59135 11.0452 7.45711C11.2762 7.32287 11.3852 7.17343 11.3748 7.01287C11.3642 6.84963 11.2172 6.61855 10.9385 6.31959L9.15968 7.35331C9.51176 7.51795 9.85632 7.60927 10.1933 7.63007ZM11.6868 5.14887L13.3965 4.15531C13.0706 3.99759 12.7501 3.91455 12.4322 3.90211C12.1169 3.89099 11.8449 3.94911 11.6258 4.07647C11.4043 4.20515 11.2976 4.34495 11.3008 4.49575C11.3065 4.64795 11.4343 4.86523 11.6868 5.14887Z" fill="#FEE182"/>
<g opacity="0.05">
<path d="M3.37685 7.93303V9.68627C3.09853 9.40011 2.87985 9.09783 2.71289 8.78783V7.02643C2.87985 7.34055 3.09853 7.64283 3.37685 7.93303ZM4.95925 9.13379V10.887C4.92349 10.8672 4.89165 10.8513 4.85985 10.8315C4.66105 10.7162 4.47021 10.5968 4.29529 10.4696V8.71619C4.47421 8.84743 4.66901 8.96663 4.87181 9.08603C4.89961 9.10195 4.93141 9.11787 4.95925 9.13379ZM6.54165 9.84139V11.5907C6.31501 11.5113 6.09237 11.4279 5.87765 11.3362V9.58299C6.09633 9.67831 6.31501 9.76179 6.54165 9.84139ZM8.12005 10.2708V12.0163C7.89741 11.9724 7.67873 11.9249 7.46005 11.8651V10.1157C7.67877 10.1753 7.89741 10.2271 8.12005 10.2708ZM9.70245 10.4974V12.2429C9.47981 12.2269 9.26113 12.2031 9.04245 12.1712V10.4259C9.26113 10.4537 9.47981 10.4776 9.70245 10.4974ZM11.2849 10.5492V12.2945C11.0662 12.2986 10.8435 12.2986 10.6249 12.2945V10.5492C10.8475 10.5531 11.0662 10.5531 11.2849 10.5492ZM12.8673 10.4339V12.1753C12.6486 12.2071 12.426 12.2308 12.2033 12.2467V10.5015C12.426 10.4855 12.6486 10.4617 12.8673 10.4339ZM14.4497 10.1316V11.873C14.231 11.9326 14.0084 11.9845 13.7857 12.0243V10.2827C14.0084 10.239 14.231 10.1912 14.4497 10.1316ZM16.0321 9.60687V11.3483C15.8174 11.4397 15.5947 11.5273 15.3681 11.6067V9.86527C15.5947 9.78567 15.8174 9.70219 16.0321 9.60687ZM17.6145 8.75191V10.4894C17.4475 10.6088 17.2686 10.7201 17.0778 10.8315C17.038 10.8552 16.9942 10.8791 16.9505 10.9029V9.16155C16.9982 9.13767 17.0459 9.11379 17.0897 9.08603C17.2766 8.97867 17.4515 8.86723 17.6145 8.75191ZM19.1969 7.07419V8.80375C19.0299 9.11379 18.8072 9.41995 18.5329 9.70627V7.96875C18.8112 7.68263 19.0299 7.38035 19.1969 7.07419Z" fill="#3F535C"/>
</g>
<path d="M5.5403 9.5796L5.7715 9.8724L5.4759 9.6436L5.3663 10.5424L5.2591 9.6416L4.9635 9.8724L5.1947 9.5796L4.2959 9.4696L5.1971 9.3624L4.9659 9.0668L5.2591 9.298L5.3663 8.3992L5.4759 9.298L5.7691 9.0668L5.5379 9.3624L6.4391 9.4696L5.5403 9.5796Z" fill="white"/>
<path d="M15.7955 3.27881L15.2379 3.69161L15.6099 3.71801L15.2359 3.74321L15.8007 4.15761L15.0859 3.83321L15.0415 4.04841L14.9943 3.83321L14.2835 4.15761L14.8435 3.74321L14.4695 3.71801L14.8407 3.69161L14.2783 3.27881L14.9955 3.60441L15.0379 3.38761L15.0847 3.60321L15.7955 3.27881Z" fill="white"/>
</g>
<defs>
<clipPath id="clip0_10_149">
<rect width="20" height="20" fill="white"/>
</clipPath>
</defs>
</svg>
