<svg width="24" height="24" viewBox="0 0 24 24" fill="none" xmlns="http://www.w3.org/2000/svg">
<path d="M11.4749 14.415C11.6149 14.5513 11.8026 14.6276 11.998 14.6276C12.1934 14.6276 12.3811 14.5513 12.5211 14.415L15.1461 11.8537C15.2221 11.7864 15.2836 11.7044 15.3269 11.6126C15.3702 11.5208 15.3944 11.4211 15.3981 11.3197C15.4018 11.2183 15.3848 11.1172 15.3483 11.0225C15.3117 10.9278 15.2563 10.8415 15.1855 10.7688C15.1146 10.6962 15.0297 10.6387 14.9359 10.5998C14.8422 10.5609 14.7415 10.5414 14.64 10.5426C14.5385 10.5438 14.4383 10.5655 14.3455 10.6065C14.2526 10.6476 14.1691 10.707 14.0999 10.7812L12.7499 12.0975V6.375C12.7499 6.17609 12.6709 5.98532 12.5302 5.84467C12.3896 5.70402 12.1988 5.625 11.9999 5.625C11.801 5.625 11.6102 5.70402 11.4696 5.84467C11.3289 5.98532 11.2499 6.17609 11.2499 6.375V12.0975L9.8999 10.7812C9.75569 10.6534 9.56779 10.586 9.37519 10.5929C9.18259 10.5999 9.00007 10.6808 8.86548 10.8187C8.7309 10.9567 8.6546 11.1412 8.65239 11.3339C8.65019 11.5266 8.72226 11.7128 8.85365 11.8537L11.4749 14.415Z" fill="white"/>
<path d="M16.2152 13.6013C16.0162 13.6013 15.8255 13.6803 15.6848 13.8209C15.5442 13.9616 15.4652 14.1523 15.4652 14.3513V15.1013C15.4642 15.3731 15.3555 15.6335 15.1629 15.8254C14.9703 16.0173 14.7095 16.125 14.4377 16.125H9.56266C9.42772 16.125 9.29411 16.0984 9.16945 16.0468C9.04479 15.9952 8.93152 15.9195 8.8361 15.8241C8.74069 15.7286 8.66501 15.6154 8.61337 15.4907C8.56173 15.366 8.53516 15.2324 8.53516 15.0975V14.3475C8.53516 14.1486 8.45614 13.9578 8.31549 13.8172C8.17483 13.6765 7.98407 13.5975 7.78516 13.5975C7.58624 13.5975 7.39548 13.6765 7.25483 13.8172C7.11417 13.9578 7.03516 14.1486 7.03516 14.3475V15.0975C7.03615 15.7675 7.30276 16.4098 7.77654 16.8836C8.25032 17.3574 8.89263 17.624 9.56266 17.625H14.4377C15.1077 17.624 15.75 17.3574 16.2238 16.8836C16.6976 16.4098 16.9642 15.7675 16.9652 15.0975V14.3475C16.9642 14.1492 16.8847 13.9594 16.7442 13.8196C16.6036 13.6798 16.4134 13.6012 16.2152 13.6013Z" fill="white"/>
<path d="M12 1.125C9.84913 1.125 7.74656 1.76281 5.95818 2.95777C4.16979 4.15273 2.77592 5.85117 1.95281 7.83832C1.12971 9.82546 0.914351 12.0121 1.33396 14.1216C1.75358 16.2312 2.78932 18.1689 4.31022 19.6898C5.83111 21.2107 7.76885 22.2464 9.8784 22.666C11.9879 23.0857 14.1745 22.8703 16.1617 22.0472C18.1488 21.2241 19.8473 19.8302 21.0422 18.0418C22.2372 16.2534 22.875 14.1509 22.875 12C22.875 9.11577 21.7292 6.34967 19.6898 4.31021C17.6503 2.27076 14.8842 1.125 12 1.125ZM12 21.375C10.1458 21.375 8.33325 20.8252 6.79153 19.795C5.24982 18.7649 4.04821 17.3007 3.33863 15.5877C2.62906 13.8746 2.44341 11.9896 2.80514 10.171C3.16688 8.35246 4.05976 6.68199 5.37088 5.37087C6.682 4.05976 8.35246 3.16687 10.171 2.80514C11.9896 2.4434 13.8746 2.62906 15.5877 3.33863C17.3007 4.0482 18.7649 5.24982 19.795 6.79153C20.8252 8.33324 21.375 10.1458 21.375 12C21.375 13.2311 21.1325 14.4502 20.6614 15.5877C20.1902 16.7251 19.4997 17.7586 18.6291 18.6291C17.7586 19.4997 16.7251 20.1902 15.5877 20.6614C14.4502 21.1325 13.2311 21.375 12 21.375Z" fill="white"/>
</svg>
