<svg width="48" height="48" viewBox="0 0 48 48" fill="none" xmlns="http://www.w3.org/2000/svg">
<path d="M12.7798 21.85C12.5625 21.8501 12.3488 21.794 12.1595 21.6871C11.9703 21.5802 11.8119 21.4262 11.6998 21.24C10.4231 19.2282 9.84748 16.8506 10.0627 14.4775C10.278 12.1045 11.2719 9.8693 12.8898 8.12C13.7685 7.16123 14.837 6.39567 16.0275 5.87194C17.2179 5.34821 18.5043 5.07776 19.8048 5.07776C21.1053 5.07776 22.3917 5.34821 23.5821 5.87194C24.7725 6.39567 25.8411 7.16123 26.7198 8.12C28.2697 9.79835 29.2486 11.9242 29.5162 14.193C29.7839 16.4618 29.3266 18.7571 28.2098 20.75C28.1041 20.9605 27.942 21.1374 27.7416 21.2611C27.5412 21.3847 27.3103 21.4502 27.0748 21.4502C26.8393 21.4502 26.6084 21.3847 26.408 21.2611C26.2076 21.1374 26.0455 20.9605 25.9398 20.75C25.8243 20.5366 25.7638 20.2977 25.7638 20.055C25.7638 19.8123 25.8243 19.5734 25.9398 19.36C26.6019 18.1744 26.9463 16.8379 26.9398 15.48C26.9937 13.5249 26.2703 11.6282 24.9282 10.2055C23.5861 8.78278 21.7347 7.95013 19.7798 7.89C17.8231 7.94754 15.9692 8.77905 14.625 10.202C13.2807 11.625 12.556 13.5232 12.6098 15.48C12.6074 16.9817 13.0342 18.4527 13.8398 19.72C13.9733 19.9323 14.0499 20.1754 14.0621 20.4258C14.0744 20.6763 14.0219 20.9257 13.9098 21.15C13.8063 21.3676 13.6434 21.5515 13.44 21.6807C13.2365 21.8098 13.0008 21.8789 12.7598 21.88L12.7798 21.85Z" fill="white"/>
<path d="M24.3801 22.33C24.298 22.297 24.2207 22.2533 24.1501 22.2C24.0721 22.1467 24.0066 22.077 23.9583 21.9958C23.9099 21.9147 23.8798 21.8239 23.8701 21.7299V15.09L23.8101 14.81C23.7078 14.3055 23.4999 13.8284 23.2001 13.41C22.9618 13.09 22.6711 12.8127 22.3401 12.59C21.6759 12.1754 20.9025 11.9699 20.1201 12C19.5682 11.9903 19.0191 12.0818 18.5001 12.27C17.9099 12.4625 17.389 12.8236 17.0016 13.3088C16.6143 13.7939 16.3773 14.3818 16.3201 15V27.6399L16.1701 27.4799L16.0001 27.32C15.5577 26.9788 15.0509 26.7305 14.5101 26.59H14.3501C13.7364 26.4742 13.1029 26.5234 12.5144 26.7324C11.9258 26.9415 11.4033 27.303 11.0001 27.78C10.6395 28.1124 10.3518 28.5159 10.1549 28.9652C9.95807 29.4144 9.85645 29.8995 9.85645 30.3899C9.85645 30.8804 9.95807 31.3655 10.1549 31.8147C10.3518 32.264 10.6395 32.6675 11.0001 33L14.2401 36.66L17.4801 40.31C18.1391 41.1148 18.9651 41.7668 19.9009 42.2209C20.8368 42.675 21.8601 42.9203 22.9001 42.9399H33.1601C34.0354 42.8392 34.8782 42.5492 35.6301 42.09C36.4357 41.5661 37.0891 40.8392 37.5245 39.9825C37.9598 39.1258 38.1618 38.1695 38.1101 37.2099V28.3099C38.0034 27.6837 37.7795 27.0832 37.4501 26.54C37.081 25.9361 36.5778 25.4254 35.9795 25.0474C35.3812 24.6694 34.7039 24.4341 34.0001 24.36L24.3801 22.33ZM19.6401 38.47L13.1001 31.08C12.5601 30.49 12.5601 30.21 13.1001 29.67C13.6401 29.13 13.7601 29.2899 13.8601 29.3099C14.0197 29.3488 14.1695 29.4203 14.3001 29.52L16.8501 32.27C17.033 32.4694 17.2724 32.6084 17.5363 32.6682C17.8002 32.7281 18.0761 32.706 18.3272 32.6049C18.5782 32.5039 18.7925 32.3286 18.9413 32.1026C19.0901 31.8766 19.1665 31.6105 19.1601 31.34V15.25C19.1601 14.85 19.7301 14.77 20.1601 14.77C20.5901 14.77 20.9001 14.98 20.9601 15.05C21.0308 15.1481 21.0787 15.2609 21.1001 15.38V21.78C21.1205 22.3093 21.2617 22.8269 21.5131 23.2932C21.7644 23.7594 22.1191 24.162 22.5501 24.4699C22.9363 24.7383 23.3659 24.9379 23.8201 25.0599L33.5201 27.11H33.6201C33.9042 27.1382 34.1776 27.2337 34.4175 27.3884C34.6575 27.5432 34.8572 27.7528 35.0001 28C35.1497 28.2489 35.2515 28.5236 35.3001 28.8099V37.1899C35.351 37.673 35.271 38.1608 35.0687 38.6024C34.8664 39.0439 34.5491 39.423 34.1501 39.7C33.7509 39.9423 33.304 40.0958 32.8401 40.15H22.9401C22.3182 40.1297 21.7078 39.9774 21.1492 39.7033C20.5906 39.4292 20.0967 39.0395 19.7001 38.56L19.6401 38.49V38.47Z" fill="white"/>
</svg>
