<svg width="24" height="24" viewBox="0 0 24 24" fill="none" xmlns="http://www.w3.org/2000/svg">
<g clip-path="url(#clip0_3_10)">
<path d="M23.9877 12.1838C23.9877 11.2038 23.9081 10.4887 23.736 9.74707H12.5454V14.1703H19.1141C18.9817 15.2695 18.2665 16.925 16.6773 18.0373L16.655 18.1854L20.1933 20.9265L20.4384 20.9509C22.6898 18.8717 23.9877 15.8125 23.9877 12.1838Z" fill="#4285F4"/>
<path d="M12.5454 23.838C15.7635 23.838 18.4651 22.7785 20.4384 20.951L16.6773 18.0374C15.6708 18.7393 14.32 19.2293 12.5454 19.2293C9.39352 19.2293 6.71838 17.1502 5.76477 14.2764L5.62499 14.2882L1.94585 17.1356L1.89774 17.2693C3.85773 21.1628 7.88372 23.838 12.5454 23.838Z" fill="#34A853"/>
<path d="M5.76477 14.2764C5.51315 13.5348 5.36753 12.7401 5.36753 11.9191C5.36753 11.0979 5.51315 10.3034 5.75153 9.56175L5.74487 9.40381L2.01962 6.51074L1.89773 6.56872C1.08993 8.18442 0.626404 9.9988 0.626404 11.9191C0.626404 13.8394 1.08993 15.6536 1.89773 17.2693L5.76477 14.2764Z" fill="#FBBC05"/>
<path d="M12.5454 4.60865C14.7835 4.60865 16.2932 5.57541 17.1541 6.38331L20.5179 3.09894C18.452 1.17866 15.7635 0 12.5454 0C7.88372 0 3.85773 2.67513 1.89774 6.56865L5.75153 9.56168C6.71838 6.68788 9.39352 4.60865 12.5454 4.60865Z" fill="#EB4335"/>
</g>
<defs>
<clipPath id="clip0_3_10">
<rect width="23.3748" height="23.9202" fill="white" transform="translate(0.625198)"/>
</clipPath>
</defs>
</svg>
