<svg width="20" height="20" viewBox="0 0 20 20" fill="none" xmlns="http://www.w3.org/2000/svg">
<path d="M16.4283 11.0714V16.4285C16.4283 16.6219 16.3576 16.7893 16.2162 16.9308C16.0748 17.0722 15.9074 17.1428 15.714 17.1428H11.4283V12.8571H8.57113V17.1428H4.28542C4.09197 17.1428 3.92456 17.0722 3.78319 16.9308C3.64181 16.7893 3.57113 16.6219 3.57113 16.4285V11.0714C3.57113 11.0639 3.573 11.0528 3.57671 11.0379C3.58043 11.023 3.58229 11.0119 3.58229 11.0044L9.99971 5.71423L16.4171 11.0044C16.4246 11.0193 16.4283 11.0416 16.4283 11.0714ZM18.9171 10.3013L18.2252 11.1272C18.1657 11.1941 18.0875 11.2351 17.9908 11.2499H17.9573C17.8605 11.2499 17.7824 11.2239 17.7229 11.1718L9.99971 4.73209L2.27649 11.1718C2.18721 11.2313 2.09792 11.2574 2.00863 11.2499C1.9119 11.2351 1.83378 11.1941 1.77426 11.1272L1.08229 10.3013C1.02277 10.2269 0.99673 10.1395 1.00417 10.039C1.01161 9.93856 1.05253 9.85858 1.12694 9.79905L9.15149 3.11379C9.38958 2.92034 9.67233 2.82361 9.99971 2.82361C10.3271 2.82361 10.6098 2.92034 10.8479 3.11379L13.5711 5.39057V3.21423C13.5711 3.11007 13.6046 3.0245 13.6716 2.95754C13.7385 2.89057 13.8241 2.85709 13.9283 2.85709H16.0711C16.1753 2.85709 16.2609 2.89057 16.3278 2.95754C16.3948 3.0245 16.4283 3.11007 16.4283 3.21423V7.7678L18.8725 9.79905C18.9469 9.85858 18.9878 9.93856 18.9952 10.039C19.0027 10.1395 18.9766 10.2269 18.9171 10.3013Z" fill="white"/>
</svg>
