<svg width="24" height="24" viewBox="0 0 24 24" fill="none" xmlns="http://www.w3.org/2000/svg">
<path d="M12 2C10.0222 2 8.08879 2.58649 6.4443 3.6853C4.79981 4.78412 3.51809 6.3459 2.76121 8.17317C2.00433 10.0004 1.8063 12.0111 2.19215 13.9509C2.578 15.8907 3.53041 17.6725 4.92894 19.0711C6.32746 20.4696 8.10929 21.422 10.0491 21.8079C11.9889 22.1937 13.9996 21.9957 15.8268 21.2388C17.6541 20.4819 19.2159 19.2002 20.3147 17.5557C21.4135 15.9112 22 13.9778 22 12C22 10.6868 21.7413 9.38642 21.2388 8.17317C20.7363 6.95991 19.9997 5.85752 19.0711 4.92893C18.1425 4.00035 17.0401 3.26375 15.8268 2.7612C14.6136 2.25866 13.3132 2 12 2ZM12 20C10.4178 20 8.87104 19.5308 7.55544 18.6518C6.23985 17.7727 5.21447 16.5233 4.60897 15.0615C4.00347 13.5997 3.84504 11.9911 4.15372 10.4393C4.4624 8.88743 5.22433 7.46197 6.34315 6.34315C7.46197 5.22433 8.88743 4.4624 10.4393 4.15372C11.9911 3.84504 13.5997 4.00346 15.0615 4.60896C16.5233 5.21447 17.7727 6.23984 18.6518 7.55544C19.5308 8.87103 20 10.4177 20 12C20 14.1217 19.1572 16.1566 17.6569 17.6569C16.1566 19.1571 14.1217 20 12 20Z" fill="white"/>
<path d="M12.2302 6.99999C11.8162 6.96955 11.4007 7.03286 11.0146 7.18522C10.6285 7.33758 10.2818 7.57506 10.0002 7.87999C9.47871 8.55096 9.18449 9.37056 9.16016 10.22L11.2602 10.55C11.2684 10.1584 11.3787 9.77583 11.5802 9.43999C11.6524 9.3382 11.7485 9.25576 11.8601 9.19995C11.9718 9.14415 12.0954 9.11668 12.2202 9.11999C12.3177 9.11327 12.4155 9.12766 12.507 9.16217C12.5984 9.19668 12.6814 9.25051 12.7502 9.31999C12.8786 9.48891 12.9424 9.69815 12.9302 9.90999C12.8906 10.2285 12.7337 10.5209 12.4902 10.73C12.1139 11.1056 11.76 11.503 11.4302 11.92C11.2758 12.1542 11.1578 12.4104 11.0802 12.68C10.9909 13.0294 10.9505 13.3895 10.9602 13.75V14H13.0002C12.9868 13.7067 13.0344 13.4139 13.1402 13.14C13.314 12.8096 13.548 12.5145 13.8302 12.27C14.2304 11.8887 14.5679 11.4466 14.8302 10.96C14.9965 10.6102 15.082 10.2274 15.0802 9.83999C15.0928 9.41833 15.0094 8.99931 14.8361 8.61469C14.6629 8.23006 14.4044 7.8899 14.0802 7.61999C13.5569 7.19978 12.901 6.97994 12.2302 6.99999ZM12.0002 14.72C11.8024 14.72 11.609 14.7786 11.4446 14.8885C11.2801 14.9984 11.152 15.1546 11.0763 15.3373C11.0006 15.52 10.9808 15.7211 11.0194 15.9151C11.058 16.1091 11.1532 16.2872 11.293 16.4271C11.4329 16.5669 11.6111 16.6622 11.8051 16.7008C11.999 16.7394 12.2001 16.7196 12.3828 16.6439C12.5656 16.5682 12.7217 16.44 12.8316 16.2756C12.9415 16.1111 13.0002 15.9178 13.0002 15.72C13.0002 15.4548 12.8948 15.2004 12.7073 15.0129C12.5197 14.8253 12.2654 14.72 12.0002 14.72Z" fill="white"/>
</svg>
