<svg width="24" height="24" viewBox="0 0 24 24" fill="none" xmlns="http://www.w3.org/2000/svg">
<g clip-path="url(#clip0_54_95)">
<path d="M19 11H11V13H19V16L24 12L19 8V11ZM20 18H17.292C16.1373 19.0183 14.7133 19.6819 13.1909 19.9109C11.6684 20.14 10.1122 19.9249 8.70899 19.2915C7.30576 18.6581 6.11512 17.6332 5.27993 16.3398C4.44475 15.0465 4.0005 13.5396 4.0005 12C4.0005 10.4604 4.44475 8.95354 5.27993 7.66019C6.11512 6.36683 7.30576 5.34194 8.70899 4.7085C10.1122 4.07506 11.6684 3.85998 13.1909 4.08906C14.7133 4.31815 16.1373 4.98167 17.292 6H20C19.0693 4.75718 17.8617 3.74851 16.4729 3.05414C15.0842 2.35978 13.5527 1.99884 12 2C6.477 2 2 6.477 2 12C2 17.523 6.477 22 12 22C13.5527 22.0012 15.0842 21.6402 16.4729 20.9459C17.8617 20.2515 19.0693 19.2428 20 18Z" fill="white"/>
</g>
<defs>
<clipPath id="clip0_54_95">
<rect width="24" height="24" fill="white" transform="matrix(-1 0 0 1 24 0)"/>
</clipPath>
</defs>
</svg>
