<svg width="20" height="20" viewBox="0 0 20 20" fill="none" xmlns="http://www.w3.org/2000/svg">
<path d="M10.1709 18H11.3083V13.6707L10.1709 14.9786V18Z" fill="white"/>
<path d="M8.08943 16.8611C7.91072 16.8611 7.73682 16.8119 7.58594 16.7208V18H8.72349V16.6259C8.54823 16.7762 8.32433 16.8611 8.08943 16.8611C8.08953 16.8611 8.08953 16.8611 8.08943 16.8611Z" fill="white"/>
<path d="M5.55598 14.599C5.53799 14.3392 5.62169 14.0885 5.79193 13.8927L6.13751 13.4952V4.22578C6.13751 3.96483 5.93945 3.75159 5.69713 3.75159H6.0825C6.13806 3.75159 6.18315 3.7969 6.18315 3.85225V3.98C6.18315 4.03545 6.22867 4.08065 6.28381 4.08065H7.36819C7.42375 4.08065 7.46895 4.03535 7.46895 3.98V3.85225C7.46895 3.79679 7.51447 3.75159 7.56961 3.75159H8.02558C7.78346 3.75159 7.5852 3.96472 7.5852 4.22578V11.8302L8.72275 10.5222V4.22572C8.72275 3.96477 8.52468 3.75154 8.28237 3.75154H8.73855C8.7938 3.75154 8.83921 3.79684 8.83921 3.85219V3.97995C8.83921 4.0354 8.88441 4.0806 8.93986 4.0806H10.0242C10.0796 4.0806 10.1249 4.0353 10.1249 3.97995V3.85219C10.1249 3.79674 10.1702 3.75154 10.2256 3.75154H10.6106C10.3686 3.75154 10.1703 3.96467 10.1703 4.22572V8.85694L11.2621 7.60116C11.2766 7.58452 11.2924 7.56956 11.3078 7.55428L11.3079 4.22564C11.3079 3.96469 11.1099 3.75146 10.8675 3.75146H10.7091C10.7645 3.75146 10.8097 3.70615 10.8097 3.6508V3.42993C10.8097 3.37447 10.7644 3.32927 10.7091 3.32927H10.2256C10.1701 3.32927 10.1249 3.28376 10.1249 3.22851V3.10076C10.1249 3.04531 10.0794 3 10.0242 3H8.93986C8.8843 3 8.83921 3.04551 8.83921 3.10076V3.22841C8.83921 3.28386 8.79359 3.32917 8.73855 3.32917H8.25475C8.1994 3.32917 8.1541 3.37447 8.1541 3.42982C8.1541 3.37437 8.10879 3.32917 8.05344 3.32917H7.56983C7.51448 3.32917 7.46917 3.28365 7.46917 3.22841L7.46896 3.10076C7.46896 3.04531 7.42366 3 7.36821 3H6.28382C6.22847 3 6.18317 3.04551 6.18317 3.10076V3.22841C6.18317 3.28386 6.13796 3.32917 6.08251 3.32917H5.5989C5.54334 3.32917 5.49824 3.37447 5.49824 3.42982V3.6507C5.49824 3.70615 5.54344 3.75135 5.5989 3.75135H5.44038C5.19826 3.75135 5 3.96449 5 4.22554V18H6.13755V15.4824L5.8878 15.2656C5.69214 15.0954 5.57422 14.8587 5.55601 14.5991L5.55598 14.599ZM8.15418 3.65098C8.15418 3.70644 8.1997 3.75164 8.25484 3.75164H8.05342C8.10877 3.75174 8.15418 3.70633 8.15418 3.65098Z" fill="white"/>
<path d="M15.8343 5.63813L15.6036 5.43797C15.4783 5.32915 15.2861 5.34255 15.1769 5.468L12.8104 8.18968L12.3719 7.80892C12.1352 7.60353 11.7731 7.62917 11.5674 7.86553L9.1195 10.6804L6.65796 13.5114L6.09641 14.1572C5.89039 14.394 5.91581 14.7558 6.15249 14.9614L7.71609 16.3194C7.95298 16.5249 8.31489 16.4993 8.52092 16.2626L13.9916 9.97097C14.1976 9.7343 14.1724 9.37237 13.9355 9.16669L13.4974 8.78625L15.8643 6.0643C15.9734 5.93875 15.9598 5.74706 15.8343 5.63825L15.8343 5.63813Z" fill="white"/>
<path d="M15.1644 14.4501C15.1644 15.2441 14.5208 15.8877 13.7268 15.8877C12.9327 15.8877 12.2891 15.2441 12.2891 14.4501C12.2891 13.6561 12.9327 13.0125 13.7268 13.0125C14.5208 13.0125 15.1644 13.6561 15.1644 14.4501Z" fill="white"/>
</svg>
