<svg width="20" height="20" viewBox="0 0 20 20" fill="none" xmlns="http://www.w3.org/2000/svg">
<g clip-path="url(#clip0_5_19)">
<path d="M13.2958 13.3708C13.619 13.0459 14.0034 12.7884 14.4268 12.6132C14.8503 12.4379 15.3043 12.3485 15.7625 12.35C16.2737 12.3505 16.7785 12.4629 17.2417 12.6791L12.6083 17.3125C12.3038 16.6645 12.2064 15.9384 12.3294 15.233C12.4524 14.5277 12.7899 13.8774 13.2958 13.3708ZM12.9333 17.8708L17.7958 13.0083C18.1023 13.2259 18.3699 13.4935 18.5875 13.8L13.725 18.6625C13.5725 18.5532 13.429 18.432 13.2958 18.3C13.1626 18.1678 13.0413 18.0242 12.9333 17.8708ZM14.2792 18.9916L18.9125 14.3583C19.1619 14.8888 19.2734 15.4738 19.2364 16.0589C19.1995 16.644 19.0154 17.2102 18.7012 17.7052C18.387 18.2002 17.953 18.6077 17.4392 18.8902C16.9255 19.1726 16.3487 19.3207 15.7625 19.3208C15.25 19.3203 14.7438 19.2079 14.2792 18.9916Z" fill="#232323"/>
<path d="M12.58 6.38583L11.3329 5.16125L0.439592 16.2529L3.93668 19.6875L14.83 8.59583L13.5829 7.37125L18.3071 2.5725L18.6633 2.9225L19.5604 1.99708L17.845 0.3125L16.9479 1.2375L17.3038 1.5875L12.58 6.38583Z" fill="#232323"/>
</g>
<defs>
<clipPath id="clip0_5_19">
<rect width="20" height="20" fill="white" transform="matrix(-1 0 0 -1 20 20)"/>
</clipPath>
</defs>
</svg>
