<svg width="22" height="30" viewBox="0 0 22 30" fill="none" xmlns="http://www.w3.org/2000/svg">
<path d="M6.92231 20.4791C6.92231 21.5023 7.33693 22.4286 8.00678 23.0984C8.67661 23.7683 9.6029 24.1832 10.6261 24.1832C11.6493 24.1832 12.5756 23.7683 13.2454 23.0984C13.9153 22.4286 14.3299 21.5023 14.3299 20.4791C14.3299 19.4559 13.9153 18.5293 13.2454 17.8594C12.5756 17.1896 11.6493 16.775 10.6261 16.775C9.6029 16.775 8.67661 17.1896 8.00678 17.8594C7.33694 18.5293 6.92231 19.4559 6.92231 20.4791ZM11.0613 17.7772L11.7303 19.0211L13.1177 19.2729C13.3855 19.3209 13.5639 19.5775 13.5159 19.8453C13.4983 19.944 13.4521 20.0305 13.3877 20.098L12.4117 21.1199L12.6012 22.519C12.6374 22.7893 12.4476 23.0381 12.1774 23.0742C12.0779 23.0877 11.9812 23.0701 11.8969 23.0295L10.6258 22.4175L9.35445 23.0299C9.10889 23.1483 8.81326 23.0451 8.69478 22.7995C8.64954 22.7054 8.63658 22.6042 8.65178 22.5084L8.83949 21.12L7.86294 20.0987C7.67523 19.9013 7.68317 19.5882 7.88055 19.4005C7.95912 19.3257 8.05601 19.282 8.15634 19.2689L9.52161 19.0213L10.191 17.7774C10.32 17.5374 10.6199 17.4472 10.86 17.5762C10.9485 17.6239 11.0168 17.6948 11.0611 17.7774L11.0613 17.7772ZM10.9723 19.6977L10.6261 19.0537L10.2797 19.6977C10.2101 19.8251 10.0856 19.9217 9.93173 19.9491L9.21216 20.0795L9.71918 20.61C9.81865 20.7146 9.87149 20.8621 9.85077 21.0161L9.75286 21.7416L10.4116 21.424C10.5427 21.3612 10.7 21.3562 10.8409 21.424L11.4994 21.7413L11.4012 21.0162C11.3822 20.8728 11.4257 20.7226 11.5328 20.61L12.0398 20.0795L11.3454 19.9534C11.1924 19.9341 11.051 19.8434 10.9726 19.6975L10.9723 19.6977ZM7.76418 16.0686C7.7457 16.083 7.72619 16.0958 7.70564 16.1073C7.4188 16.2988 7.15233 16.5178 6.90972 16.7608C5.95823 17.7119 5.37057 19.0262 5.37057 20.4789C5.37057 21.9205 5.94961 23.2256 6.88642 24.1733L6.90973 24.1953C7.86038 25.1459 9.17468 25.7342 10.6261 25.7342C12.0775 25.7342 13.3919 25.1459 14.3425 24.1953C15.2931 23.2446 15.8815 21.9303 15.8815 20.4789C15.8815 19.0381 15.3028 17.733 14.3656 16.7839L14.3425 16.7623C14.0962 16.5161 13.8261 16.2945 13.5352 16.1009L13.503 16.0795C12.6764 15.5383 11.6881 15.2233 10.6261 15.2233C9.5699 15.2233 8.5868 15.5342 7.76414 16.0686L7.76418 16.0686ZM6.96742 15.4181V14.291L2.06653 5.80309C1.92993 5.5672 2.01041 5.26446 2.2463 5.1279L5.81644 3.06653C6.05233 2.92993 6.35507 3.01041 6.49163 3.24629L10.6264 10.408L14.7604 3.24629C14.897 3.01041 15.1995 2.92993 15.4356 3.06653L17.2096 4.09109L17.2207 4.09731L17.2315 4.1037L19.0059 5.12791C19.2418 5.2645 19.3223 5.56705 19.1857 5.80309L14.2848 14.291V15.4164C14.5544 15.6117 14.8077 15.8276 15.042 16.0621L15.0681 16.0902C16.183 17.2189 16.8717 18.7694 16.8717 20.4789C16.8717 22.2032 16.1723 23.7651 15.042 24.8953C13.912 26.0254 12.3499 26.725 10.6256 26.725C8.90128 26.725 7.33933 26.0256 6.20911 24.8953L6.18303 24.8672C5.0678 23.7382 4.37913 22.1873 4.37913 20.4788C4.37913 18.7568 5.0785 17.1955 6.20894 16.0641L6.21187 16.0615C6.44587 15.8275 6.69816 15.6124 6.9665 15.4179L6.96742 15.4181ZM7.30053 12.8917C7.35147 12.8741 7.40604 12.8646 7.46286 12.8646H8.52487L4.09921 5.19941L3.16912 5.73632L7.30048 12.8918L7.30053 12.8917ZM10.3474 12.8646H11.5879L16.2987 4.70561L15.3682 4.16857C13.6945 7.06746 12.0208 9.966 10.3475 12.8647L10.3474 12.8646ZM12.7288 12.8646H13.7901C13.8468 12.8646 13.9015 12.8743 13.9524 12.8917L18.0838 5.73624L17.1546 5.19969L12.7288 12.8646ZM13.2949 14.8302V13.8553H7.95852V14.8313C8.76824 14.4476 9.67277 14.2328 10.6267 14.2328C11.5811 14.2328 12.486 14.4468 13.2952 14.8302H13.2949ZM4.95327 4.70654L9.43639 12.4708L10.0565 11.3961L5.88385 4.16902L4.95305 4.70641L4.95327 4.70654ZM7.30716 23.7986C6.45771 22.9492 5.93208 21.7752 5.93208 20.4792C5.93208 19.1834 6.45775 18.0089 7.30716 17.1596C8.15662 16.3102 9.33056 15.7846 10.6266 15.7846C11.9224 15.7846 13.0965 16.3102 13.946 17.1596C14.7954 18.0091 15.321 19.1834 15.321 20.4792C15.321 21.7751 14.7954 22.9492 13.946 23.7986C13.0965 24.6481 11.9226 25.1741 10.6266 25.1741C9.33074 25.1741 8.15662 24.6481 7.30716 23.7986Z" fill="white"/>
</svg>
