<svg width="16" height="16" viewBox="0 0 16 16" fill="none" xmlns="http://www.w3.org/2000/svg">
<path d="M8.00039 0.399994C3.80039 0.399994 0.400391 3.79999 0.400391 7.99999C0.400391 12.2 3.80039 15.6 8.00039 15.6C12.2004 15.6 15.6004 12.2 15.6004 7.99999C15.6004 3.79999 12.2004 0.399994 8.00039 0.399994ZM8.00039 14.8C4.24039 14.8 1.20039 11.76 1.20039 7.99999C1.20039 4.23999 4.24039 1.19999 8.00039 1.19999C11.7604 1.19999 14.8004 4.23999 14.8004 7.99999C14.8004 11.76 11.7604 14.8 8.00039 14.8ZM8.00039 6.59999C7.22039 6.59999 6.60039 7.21999 6.60039 7.99999C6.60039 8.77999 7.22039 9.39999 8.00039 9.39999C8.78039 9.39999 9.40039 8.77999 9.40039 7.99999C9.40039 7.21999 8.78039 6.59999 8.00039 6.59999ZM8.00039 8.59999C7.66039 8.59999 7.40039 8.31999 7.40039 7.99999C7.40039 7.65999 7.66039 7.39999 8.00039 7.39999C8.34039 7.39999 8.60039 7.65999 8.60039 7.99999C8.60039 8.31999 8.34039 8.59999 8.00039 8.59999ZM12.0004 6.59999C11.2204 6.59999 10.6004 7.21999 10.6004 7.99999C10.6004 8.77999 11.2204 9.39999 12.0004 9.39999C12.7804 9.39999 13.4004 8.77999 13.4004 7.99999C13.4004 7.21999 12.7804 6.59999 12.0004 6.59999ZM12.0004 8.59999C11.6604 8.59999 11.4004 8.31999 11.4004 7.99999C11.4004 7.65999 11.6604 7.39999 12.0004 7.39999C12.3404 7.39999 12.6004 7.65999 12.6004 7.99999C12.6004 8.31999 12.3404 8.59999 12.0004 8.59999ZM4.00039 6.59999C3.22039 6.59999 2.60039 7.21999 2.60039 7.99999C2.60039 8.77999 3.22039 9.39999 4.00039 9.39999C4.78039 9.39999 5.40039 8.77999 5.40039 7.99999C5.40039 7.21999 4.78039 6.59999 4.00039 6.59999ZM4.00039 8.59999C3.66039 8.59999 3.40039 8.31999 3.40039 7.99999C3.40039 7.65999 3.66039 7.39999 4.00039 7.39999C4.34039 7.39999 4.60039 7.65999 4.60039 7.99999C4.60039 8.31999 4.34039 8.59999 4.00039 8.59999Z" fill="#232323"/>
</svg>
