<svg width="20" height="20" viewBox="0 0 20 20" fill="none" xmlns="http://www.w3.org/2000/svg">
<g clip-path="url(#clip0_1_6)">
<path d="M3.60039 5.19999H0.400391V17.6C0.400391 18.7028 1.29759 19.6 2.40039 19.6H17.6004C18.7032 19.6 19.6004 18.7028 19.6004 17.6V0.399994H3.60039V5.19999ZM1.20039 17.6V5.99999H3.60039V17.6C3.60039 18.2616 3.06199 18.8 2.40039 18.8C1.73879 18.8 1.20039 18.2616 1.20039 17.6ZM4.40039 1.19999H18.8004V17.6C18.8004 18.2616 18.262 18.8 17.6004 18.8H3.99959C4.01159 18.7844 4.01999 18.7664 4.03119 18.7504C4.05399 18.718 4.07399 18.684 4.09479 18.65C4.20412 18.4748 4.28499 18.2833 4.33439 18.0828C4.34359 18.0452 4.35519 18.0092 4.36239 17.9708C4.38559 17.8504 4.40039 17.7272 4.40039 17.6V1.19999Z" fill="#232323"/>
<path d="M6 3.20001H17.2V4.00001H6V3.20001ZM7.6 5.20001H15.6V6.00001H7.6V5.20001ZM12.4 8.40001H17.2V9.20001H12.4V8.40001ZM12.4 10.4H17.2V11.2H12.4V10.4ZM10.8 8.40001H6V13.2H10.8V8.40001ZM10 12.4H6.8V9.20001H10V12.4ZM12.4 12.4H17.2V13.2H12.4V12.4ZM6 14.4H10.8V15.2H6V14.4ZM12.4 14.4H17.2V15.2H12.4V14.4ZM6 16.4H10.8V17.2H6V16.4ZM12.4 16.4H17.2V17.2H12.4V16.4Z" fill="#232323"/>
</g>
<defs>
<clipPath id="clip0_1_6">
<rect width="20" height="20" fill="white"/>
</clipPath>
</defs>
</svg>
