<svg width="35" height="28" viewBox="0 0 35 28" fill="none" xmlns="http://www.w3.org/2000/svg">
<mask id="path-1-inside-1_47_48" fill="white">
<path d="M0 3C0 1.34315 1.34315 0 3 0H32C33.6569 0 35 1.34315 35 3V25C35 26.6569 33.6569 28 32 28H3C1.34315 28 0 26.6569 0 25V3Z"/>
</mask>
<path d="M-3 2C-3 -1.31371 -0.313708 -4 3 -4H32C35.3137 -4 38 -1.31371 38 2L32 4H3L-3 2ZM38 26C38 29.3137 35.3137 32 32 32H3C-0.313708 32 -3 29.3137 -3 26L3 24H32L38 26ZM3 32C-0.313708 32 -3 29.3137 -3 26V2C-3 -1.31371 -0.313708 -4 3 -4V4V24V32ZM32 -4C35.3137 -4 38 -1.31371 38 2V26C38 29.3137 35.3137 32 32 32V24V4V-4Z" fill="#E3B174" mask="url(#path-1-inside-1_47_48)"/>
<rect x="3" y="8" width="29" height="6" fill="#E3B174"/>
<rect x="6" y="20" width="5" height="2" fill="#E3B174"/>
<rect x="14" y="20" width="7" height="2" fill="#E3B174"/>
</svg>
