<svg width="16" height="16" viewBox="0 0 16 16" fill="none" xmlns="http://www.w3.org/2000/svg">
<g clip-path="url(#clip0_44_8)">
<path d="M6.6082 4.032C6.4172 1.835 4.1252 0.757001 4.0282 0.713001C3.93752 0.670374 3.83591 0.656755 3.7372 0.674001C1.0912 1.113 0.693203 2.653 0.677203 2.717C0.655435 2.80619 0.658897 2.89967 0.687203 2.987C3.8432 12.779 10.4022 14.594 12.5582 15.191C12.7242 15.237 12.8612 15.274 12.9652 15.308C13.0839 15.3468 13.2128 15.3393 13.3262 15.287C13.3922 15.257 14.9502 14.523 15.3312 12.129C15.3481 12.0245 15.3313 11.9173 15.2832 11.823C15.2492 11.757 14.4342 10.206 12.1742 9.658C12.0975 9.63839 12.0172 9.6377 11.9403 9.65599C11.8633 9.67428 11.7919 9.71101 11.7322 9.763C11.0192 10.372 10.0342 11.021 9.6092 11.088C6.7602 9.695 5.1692 7.022 5.1092 6.515C5.0742 6.23 5.7272 5.229 6.4782 4.415C6.52541 4.36377 6.56136 4.30323 6.58375 4.23726C6.60614 4.1713 6.61447 4.10138 6.6082 4.032Z" fill="#E3B174"/>
</g>
<defs>
<clipPath id="clip0_44_8">
<rect width="16" height="16" fill="white"/>
</clipPath>
</defs>
</svg>
