<svg width="16" height="16" viewBox="0 0 16 16" fill="none" xmlns="http://www.w3.org/2000/svg">
<path d="M9.82825 0.721986C9.89395 0.721868 9.95904 0.734702 10.0198 0.759754C10.0805 0.784806 10.1357 0.821584 10.1822 0.867986L15.1322 5.81799C15.226 5.91175 15.2786 6.0389 15.2786 6.17149C15.2786 6.30407 15.226 6.43122 15.1322 6.52499C14.6522 7.00499 14.0602 7.11299 13.6292 7.11299C13.4522 7.11299 13.2942 7.09499 13.1692 7.07399L10.0352 10.208C10.1178 10.5404 10.1713 10.8793 10.1952 11.221C10.2412 11.923 10.1632 12.908 9.47525 13.596C9.38149 13.6897 9.25433 13.7424 9.12175 13.7424C8.98917 13.7424 8.86201 13.6897 8.76825 13.596L5.93925 10.768L2.75725 13.95C2.56225 14.145 1.53825 14.852 1.34325 14.657C1.14825 14.462 1.85525 13.437 2.05025 13.243L5.23225 10.061L2.40425 7.23199C2.31051 7.13822 2.25786 7.01107 2.25786 6.87849C2.25786 6.7459 2.31051 6.61875 2.40425 6.52499C3.09225 5.83699 4.07725 5.75799 4.77925 5.80499C5.12091 5.82893 5.45984 5.88246 5.79225 5.96499L8.92625 2.83199C8.90009 2.6797 8.88671 2.5255 8.88625 2.37099C8.88625 1.94099 8.99425 1.34899 9.47525 0.867986C9.56895 0.774517 9.6959 0.722014 9.82825 0.721986Z" fill="#E3B174"/>
</svg>
