<svg width="16" height="16" viewBox="0 0 16 16" fill="none" xmlns="http://www.w3.org/2000/svg">
<path d="M9.82825 0.721986C9.89395 0.721868 9.95904 0.734702 10.0198 0.759754C10.0805 0.784806 10.1357 0.821584 10.1822 0.867986L15.1322 5.81799C15.226 5.91175 15.2786 6.0389 15.2786 6.17149C15.2786 6.30407 15.226 6.43122 15.1322 6.52499C14.6522 7.00499 14.0602 7.11299 13.6292 7.11299C13.4522 7.11299 13.2942 7.09499 13.1692 7.07399L10.0352 10.208C10.1178 10.5404 10.1713 10.8793 10.1952 11.221C10.2412 11.923 10.1632 12.908 9.47525 13.596C9.38149 13.6897 9.25433 13.7424 9.12175 13.7424C8.98917 13.7424 8.86201 13.6897 8.76825 13.596L5.93925 10.768L2.75725 13.95C2.56225 14.145 1.53825 14.852 1.34325 14.657C1.14825 14.462 1.85525 13.437 2.05025 13.243L5.23225 10.061L2.40425 7.23199C2.31051 7.13822 2.25786 7.01107 2.25786 6.87849C2.25786 6.7459 2.31051 6.61875 2.40425 6.52499C3.09225 5.83699 4.07725 5.75799 4.77925 5.80499C5.12091 5.82893 5.45984 5.88246 5.79225 5.96499L8.92625 2.83199C8.90009 2.6797 8.88671 2.5255 8.88625 2.37099C8.88625 1.94099 8.99425 1.34899 9.47525 0.867986C9.56895 0.774517 9.6959 0.722014 9.82825 0.721986ZM9.95025 2.83199V2.83399C9.97913 2.92196 9.98301 3.01621 9.96147 3.10626C9.93993 3.19631 9.89381 3.27861 9.82825 3.34399L6.29325 6.87799C6.22757 6.94339 6.145 6.98924 6.05476 7.01043C5.96453 7.03162 5.87018 7.02731 5.78225 6.99799H5.78025L5.76625 6.99399C5.67111 6.96549 5.57506 6.94014 5.47825 6.91799C5.22669 6.8593 4.9709 6.82052 4.71325 6.80199C4.29125 6.77399 3.87725 6.80999 3.53825 6.95199L9.04825 12.461C9.18925 12.121 9.22525 11.708 9.19725 11.286C9.17177 10.9287 9.10739 10.5753 9.00525 10.232L9.00125 10.219C8.97172 10.1309 8.96731 10.0354 8.9885 9.94494C9.0097 9.8545 9.05566 9.77176 9.12125 9.70599L12.6572 6.17099C12.7253 6.10248 12.8118 6.05516 12.9062 6.03475C13.0006 6.01435 13.0989 6.02172 13.1892 6.05599L13.2852 6.07799C13.3722 6.09499 13.4932 6.11199 13.6292 6.11199C13.7432 6.11199 13.8592 6.10099 13.9722 6.07199L9.92725 2.02799C9.89825 2.14099 9.88725 2.25799 9.88725 2.37099C9.88774 2.52637 9.90858 2.68102 9.94925 2.83099L9.95025 2.83199Z" fill="#E3B174"/>
</svg>
