<svg width="24" height="24" viewBox="0 0 24 24" fill="none" xmlns="http://www.w3.org/2000/svg">
<path fill-rule="evenodd" clip-rule="evenodd" d="M12.3125 2C11.4931 2 10.1239 2.31469 8.83551 2.665C7.51738 3.02125 6.18857 3.44281 5.40719 3.69812C5.0805 3.80601 4.79087 4.00386 4.57157 4.26896C4.35227 4.53405 4.2122 4.85563 4.16744 5.19675C3.45969 10.5132 5.10201 14.4533 7.09463 17.0599C7.93964 18.1749 8.94716 19.1568 10.0836 19.9728C10.5419 20.297 10.9671 20.5452 11.3281 20.715C11.6606 20.8718 12.018 21 12.3125 21C12.607 21 12.9633 20.8718 13.2969 20.715C13.7321 20.5035 14.1485 20.2552 14.5414 19.9728C15.6779 19.1568 16.6854 18.1749 17.5304 17.0599C19.523 14.4533 21.1653 10.5132 20.4576 5.19675C20.4129 4.85546 20.2729 4.5337 20.0536 4.2684C19.8343 4.00311 19.5446 3.80504 19.2178 3.69694C18.0835 3.32503 16.9404 2.98055 15.7895 2.66381C14.5011 2.31588 13.1319 2 12.3125 2ZM14.8609 8.11087C14.9724 7.99938 15.1236 7.93675 15.2813 7.93675C15.4389 7.93675 15.5901 7.99938 15.7016 8.11087C15.8131 8.22237 15.8758 8.37358 15.8758 8.53125C15.8758 8.68892 15.8131 8.84013 15.7016 8.95163L12.1391 12.5141C12.084 12.5694 12.0185 12.6133 11.9463 12.6432C11.8742 12.6732 11.7969 12.6886 11.7188 12.6886C11.6407 12.6886 11.5633 12.6732 11.4912 12.6432C11.4191 12.6133 11.3535 12.5694 11.2984 12.5141L9.51713 10.7329C9.46193 10.6777 9.41814 10.6121 9.38826 10.54C9.35838 10.4679 9.34301 10.3906 9.34301 10.3125C9.34301 10.2344 9.35838 10.1571 9.38826 10.085C9.41814 10.0129 9.46193 9.94733 9.51713 9.89212C9.57234 9.83692 9.63787 9.79313 9.71 9.76325C9.78213 9.73338 9.85944 9.718 9.93751 9.718C10.0156 9.718 10.0929 9.73338 10.165 9.76325C10.2371 9.79313 10.3027 9.83692 10.3579 9.89212L11.7188 11.2542L14.8609 8.11087Z" fill="white"/>
</svg>
