<svg width="24" height="24" viewBox="0 0 24 24" fill="none" xmlns="http://www.w3.org/2000/svg">
<g clip-path="url(#clip0_51_62)">
<path d="M12 9.72C14.4853 9.72 16.5 7.70528 16.5 5.22C16.5 2.73472 14.4853 0.720001 12 0.720001C9.51472 0.720001 7.5 2.73472 7.5 5.22C7.5 7.70528 9.51472 9.72 12 9.72Z" fill="white"/>
<path d="M23.1453 20.13C22.6785 18.0047 21.6082 16.0593 20.0628 14.5275C19.6877 14.1511 19.2813 13.8074 18.8478 13.5C16.8738 12.0193 14.4678 11.2287 12.0003 11.25C8.98316 11.2346 6.08229 12.4127 3.93031 14.5275C2.38493 16.0593 1.31459 18.0047 0.847806 20.13C0.766672 20.5058 0.771054 20.895 0.86063 21.2689C0.950206 21.6428 1.12268 21.9918 1.36531 22.29C1.61657 22.5946 1.93299 22.839 2.29123 23.0052C2.64948 23.1713 3.04044 23.255 3.43531 23.25H20.5653C20.9613 23.2502 21.3523 23.1614 21.7094 22.99C22.0664 22.8186 22.3803 22.5691 22.6278 22.26C22.8661 21.9652 23.0361 21.6214 23.1255 21.2531C23.215 20.8848 23.2218 20.5012 23.1453 20.13Z" fill="white"/>
</g>
<defs>
<clipPath id="clip0_51_62">
<rect width="24" height="24" fill="white"/>
</clipPath>
</defs>
</svg>
