<svg width="24" height="24" viewBox="0 0 24 24" fill="none" xmlns="http://www.w3.org/2000/svg">
<g clip-path="url(#clip0_114_189)">
<mask id="mask0_114_189" style="mask-type:luminance" maskUnits="userSpaceOnUse" x="0" y="0" width="24" height="24">
<path d="M24 0H0V24H24V0Z" fill="white"/>
</mask>
<g mask="url(#mask0_114_189)">
<path d="M12 9.71997C14.4853 9.71997 16.5 7.70525 16.5 5.21997C16.5 2.73469 14.4853 0.719971 12 0.719971C9.51472 0.719971 7.5 2.73469 7.5 5.21997C7.5 7.70525 9.51472 9.71997 12 9.71997Z" fill="#232323"/>
<path d="M23.1463 20.1299C22.6795 18.0046 21.6092 16.0592 20.0638 14.5274C19.6887 14.151 19.2823 13.8073 18.8488 13.4999C16.8748 12.0192 14.4688 11.2286 12.0013 11.2499C8.98414 11.2345 6.08327 12.4126 3.93129 14.5274C2.38591 16.0592 1.31557 18.0046 0.848782 20.1299C0.767648 20.5057 0.77203 20.8949 0.861606 21.2688C0.951182 21.6427 1.12366 21.9917 1.36629 22.2899C1.61755 22.5945 1.93397 22.8389 2.29221 23.0051C2.65046 23.1712 3.04142 23.2549 3.43629 23.2499H20.5663C20.9623 23.2501 21.3533 23.1613 21.7104 22.9899C22.0674 22.8185 22.3813 22.569 22.6288 22.2599C22.8671 21.9651 23.0371 21.6213 23.1265 21.253C23.216 20.8847 23.2228 20.5011 23.1463 20.1299Z" fill="#232323"/>
</g>
</g>
<defs>
<clipPath id="clip0_114_189">
<rect width="24" height="24" fill="white"/>
</clipPath>
</defs>
</svg>
