<svg width="24" height="24" viewBox="0 0 24 24" fill="none" xmlns="http://www.w3.org/2000/svg">
<g clip-path="url(#clip0_52_93)">
<path d="M8.7601 11.625H15.2401C15.2922 11.625 15.3438 11.6142 15.3915 11.5931C15.4392 11.5721 15.482 11.5414 15.5171 11.5029C15.5523 11.4644 15.579 11.419 15.5956 11.3696C15.6122 11.3202 15.6184 11.2679 15.6136 11.2159L15.4651 9.58447C15.4134 8.99003 15.209 8.41905 14.8716 7.92692C14.5342 7.43479 14.0753 7.03823 13.5395 6.77572C14.1652 6.43376 14.6593 5.89319 14.9437 5.23929C15.2281 4.5854 15.2867 3.85541 15.1103 3.16451C14.9338 2.47362 14.5323 1.86115 13.9691 1.42375C13.406 0.986346 12.7132 0.748913 12.0001 0.748913C11.287 0.748913 10.5943 0.986346 10.0311 1.42375C9.46792 1.86115 9.06642 2.47362 8.88995 3.16451C8.71348 3.85541 8.77209 4.5854 9.05651 5.23929C9.34094 5.89319 9.835 6.43376 10.4607 6.77572C9.92489 7.03823 9.46601 7.43479 9.12862 7.92692C8.79123 8.41905 8.58677 8.99003 8.5351 9.58447L8.38679 11.2159C8.38206 11.2678 8.38819 11.3201 8.4048 11.3695C8.42141 11.4189 8.44813 11.4643 8.48325 11.5028C8.51838 11.5413 8.56114 11.572 8.6088 11.5931C8.65647 11.6141 8.708 11.625 8.7601 11.625ZM5.90463 18.4005C6.53033 18.0585 7.02434 17.518 7.30873 16.8641C7.59312 16.2102 7.6517 15.4802 7.47521 14.7893C7.29872 14.0985 6.89723 13.486 6.33407 13.0486C5.77091 12.6112 5.07814 12.3738 4.36508 12.3738C3.65203 12.3738 2.95926 12.6112 2.3961 13.0486C1.83294 13.486 1.43144 14.0985 1.25496 14.7893C1.07847 15.4802 1.13705 16.2102 1.42144 16.8641C1.70583 17.518 2.19984 18.0585 2.82554 18.4005C2.28971 18.663 1.83083 19.0596 1.49342 19.5517C1.15602 20.0439 0.951562 20.6148 0.899879 21.2093L0.751566 22.8408C0.746806 22.8927 0.752926 22.945 0.769535 22.9945C0.786144 23.0439 0.812878 23.0893 0.848029 23.1278C0.883181 23.1663 0.925977 23.1971 0.973684 23.2181C1.02139 23.2392 1.07296 23.25 1.1251 23.25H7.6051C7.65723 23.25 7.70878 23.2392 7.75647 23.2181C7.80417 23.1971 7.84695 23.1664 7.8821 23.1279C7.91725 23.0894 7.94399 23.044 7.96061 22.9946C7.97723 22.9452 7.98337 22.8929 7.97864 22.8409L7.83033 21.2095C7.77868 20.615 7.57423 20.044 7.23682 19.5518C6.89941 19.0596 6.4405 18.663 5.90463 18.4005ZM23.1003 21.2095C23.0486 20.615 22.8442 20.044 22.5068 19.5519C22.1694 19.0598 21.7105 18.6632 21.1747 18.4007C21.8004 18.0587 22.2944 17.5181 22.5788 16.8643C22.8632 16.2104 22.9217 15.4804 22.7452 14.7895C22.5688 14.0986 22.1673 13.4862 21.6041 13.0488C21.0409 12.6114 20.3482 12.374 19.6351 12.374C18.9221 12.374 18.2293 12.6114 17.6661 13.0488C17.103 13.4862 16.7015 14.0986 16.525 14.7895C16.3485 15.4804 16.4071 16.2104 16.6915 16.8643C16.9759 17.5181 17.4699 18.0587 18.0956 18.4007C17.5597 18.6632 17.1008 19.0598 16.7634 19.5519C16.4259 20.044 16.2215 20.615 16.1698 21.2095L16.0215 22.8409C16.0167 22.8929 16.0229 22.9452 16.0395 22.9946C16.0561 23.044 16.0829 23.0894 16.118 23.1279C16.1532 23.1664 16.196 23.1971 16.2437 23.2182C16.2914 23.2392 16.343 23.25 16.3951 23.25H22.8751C22.9272 23.25 22.9788 23.2392 23.0265 23.2181C23.0742 23.1971 23.117 23.1664 23.1521 23.1279C23.1873 23.0894 23.214 23.044 23.2306 22.9946C23.2472 22.9452 23.2534 22.8929 23.2486 22.8409L23.1003 21.2095ZM12.3751 16.3166V13.125C12.3751 13.0255 12.3356 12.9302 12.2653 12.8598C12.1949 12.7895 12.0996 12.75 12.0001 12.75C11.9006 12.75 11.8053 12.7895 11.7349 12.8598C11.6646 12.9302 11.6251 13.0255 11.6251 13.125V16.3166L8.39474 18.8291C8.31626 18.8902 8.26526 18.98 8.25297 19.0787C8.24068 19.1774 8.2681 19.2769 8.32919 19.3554C8.39029 19.4339 8.48006 19.4849 8.57875 19.4972C8.67745 19.5095 8.77699 19.482 8.85547 19.4209L12.0001 16.975L15.1447 19.4209C15.2232 19.482 15.3228 19.5094 15.4215 19.4971C15.5202 19.4848 15.6099 19.4338 15.671 19.3554C15.7321 19.2769 15.7595 19.1773 15.7472 19.0786C15.7349 18.98 15.6839 18.8902 15.6055 18.8291L12.3751 16.3166Z" fill="white"/>
</g>
<defs>
<clipPath id="clip0_52_93">
<rect width="24" height="24" fill="white"/>
</clipPath>
</defs>
</svg>
