<svg width="915" height="477" viewBox="0 0 915 477" fill="none" xmlns="http://www.w3.org/2000/svg">
<path d="M149.683 470.779H110.396C90.4175 443.276 76.2795 426.444 74.7717 372.327C73.2577 318.005 134.644 246.591 143.051 223.276C151.342 200.288 125.075 157.555 127.66 133.3C133.364 79.7681 181.175 39.4214 239.484 28.74C251.752 26.4934 264.239 25.4467 276.812 25.4467C316.955 25.4467 357.904 36.136 394.742 52.6214C430.279 68.5254 464.662 90.2214 503.694 93.3867C507.206 93.6707 510.699 93.8001 514.184 93.8001C537.258 93.7987 559.804 88.1507 582.511 84.7694C596.572 82.6761 611.072 81.5681 625.651 81.5681C675.766 81.5681 726.716 94.6667 763.178 125.804C793.386 151.601 810.826 187.697 814.451 223.733C817.107 250.128 813.522 279.26 802.635 303.484C797.556 314.784 789.138 325.541 781.86 336.355L771.14 307.135C768.728 295.015 759.151 285.199 746.594 281.549C747.774 276.895 748.906 272.183 749.9 267.375C755.046 242.504 753.332 214.333 746.872 189.889C743.859 178.485 739.504 167.371 733.908 156.925L734.556 153.465C735.455 148.66 733.816 143.967 730.586 140.768C729.059 130.247 720.031 122.545 709.575 122.545C709.143 122.545 708.708 122.559 708.272 122.585C702.234 116.689 695.626 111.373 688.484 106.776C665.171 91.7654 637.871 85.3334 610.032 85.3334C583.43 85.3334 556.334 91.2027 531.724 101.069C510.628 109.527 490.198 120.78 467.607 123.627C463.555 124.137 459.514 124.369 455.487 124.369C426.767 124.371 398.64 112.528 370.491 105.056C350.49 99.7467 329.588 96.6867 308.854 96.6867C284.294 96.6867 259.966 100.976 237.612 110.903C190.871 131.659 157.636 178.511 161.52 230.115C163.279 253.497 172.279 276.572 169.094 299.801C165.862 323.36 151.867 343.068 144.458 365.257C137.39 386.425 134.811 414.543 139.452 440.047L139.287 440.769C136.73 451.906 140.923 463.018 149.183 469.82C149.348 470.141 149.514 470.46 149.683 470.779Z" fill="#E5EDF9"/>
<path d="M44.7587 259.168C28.9739 259.168 13.3978 244.783 5.42647 229.171C-7.00998 204.812 2.6546 174.984 27.0124 162.547C36.8176 157.541 50.252 154.716 63.615 154.716C83.4504 154.716 103.13 160.939 110.561 175.492C122.997 199.851 85.5046 220.648 70.1854 243.304C62.513 254.651 53.6026 259.168 44.7587 259.168Z" fill="#DDE6F6"/>
<path d="M835.625 374.121C827.51 374.121 819.625 371.792 814.404 366.133C802.492 353.221 818.641 337.033 822.27 322.137C824.428 313.28 829.56 309.868 835.66 309.868C843.867 309.868 853.829 316.045 860.664 323.452C872.577 336.364 873.547 354.848 862.829 364.736C856.808 370.292 846.028 374.121 835.625 374.121Z" fill="#DDE6F6"/>
<path d="M786.041 94.056C774.545 94.056 763.997 77.372 752.792 70.0147C734.57 58.052 746.542 40.1987 760.364 32.9027C764.576 30.68 769.096 29.6253 773.549 29.6253C783.709 29.6253 793.528 35.1093 798.6 44.7187C805.896 58.54 805.674 85.2613 791.852 92.5587C789.885 93.596 787.949 94.056 786.041 94.056Z" fill="#DDE6F6"/>
<path d="M150.415 470.779H149.683C149.513 470.46 149.348 470.141 149.183 469.82C149.584 470.151 149.995 470.469 150.415 470.779ZM139.452 440.047C134.811 414.543 137.389 386.425 144.457 365.257C151.867 343.068 165.861 323.36 169.093 299.801C172.279 276.572 163.279 253.497 161.52 230.115C157.636 178.511 190.871 131.659 237.612 110.903C259.965 100.976 284.293 96.6867 308.853 96.6867C329.588 96.6867 350.489 99.7467 370.491 105.056C398.64 112.528 426.767 124.371 455.487 124.369C459.513 124.369 463.555 124.137 467.607 123.627C490.197 120.78 510.628 109.527 531.724 101.069C556.333 91.2027 583.429 85.3334 610.032 85.3334C637.871 85.3334 665.171 91.7654 688.484 106.776C695.625 111.373 702.233 116.689 708.272 122.585C707.901 122.608 707.532 122.64 707.16 122.681C704.121 123.025 701.312 124.005 698.832 125.455C695.499 120.001 689.504 116.459 682.852 116.459C682.151 116.459 681.441 116.497 680.728 116.579C676.451 117.061 672.687 118.961 669.816 121.74C666.468 120.061 662.711 119.119 658.781 119.119C657.863 119.119 656.935 119.169 656 119.276C642.44 120.809 632.691 133.044 634.224 146.603C634.941 152.944 638.007 158.444 642.445 162.353L637.424 189.177C636.804 192.491 637.389 195.751 638.872 198.504L636.091 213.365C634.827 220.116 636.213 226.736 639.48 232.203C639.487 232.219 639.493 232.233 639.499 232.249C642.76 240.273 649.735 246.601 658.72 248.667V279.465L596.793 279.701C585.271 272.624 571.985 268.229 558.203 266.097L565.841 239.524C565.843 239.523 565.843 239.52 565.844 239.517C566.1 238.627 573.007 214.595 573.615 212.481C573.616 212.477 573.616 212.475 573.617 212.471L573.62 212.463L573.623 212.453C573.623 212.452 573.624 212.449 573.624 212.448L573.629 212.428L573.635 212.413C573.635 212.411 573.636 212.408 573.636 212.405L573.64 212.391L573.657 212.333L573.576 212.265C574.447 210.564 576.696 206.924 581.296 203.715C589.255 198.164 590.205 188.968 590.205 188.968C594.455 184.855 599.244 181.345 603.583 177.328C604.036 176.908 604.508 176.449 604.64 175.847C604.788 175.175 604.475 174.487 604.091 173.917C602.647 171.776 600.421 170.817 598.105 170.817C596.829 170.817 595.528 171.108 594.312 171.652C592.307 172.549 590.515 173.827 588.833 175.231C588.036 175.896 585.316 177.727 584.491 178.945L599.845 146.159C601.209 143.247 600.317 139.924 597.863 138.776C597.291 138.507 596.68 138.38 596.065 138.38C595.364 138.38 594.655 138.545 593.984 138.855C593.187 139.223 592.459 139.815 591.848 140.556C591.896 140.315 591.923 140.173 591.923 140.173C589.62 138.237 587.247 137.392 584.861 137.392C568.617 137.392 551.748 176.524 551.748 176.524L545.451 191.384L503.995 268.247C496.197 269.675 488.385 271.023 480.451 271.023C478.665 271.023 476.876 270.955 475.077 270.804C455.08 269.127 437.465 257.631 419.259 249.203C416.3 247.833 413.288 246.539 410.236 245.331L387.473 203.125L381.175 188.265C381.175 188.265 364.305 149.133 348.061 149.133C345.675 149.133 343.304 149.977 341 151.915C341 151.915 341.028 152.057 341.075 152.297C340.464 151.556 339.736 150.965 338.939 150.596C338.269 150.287 337.56 150.121 336.859 150.121C336.243 150.121 335.633 150.249 335.06 150.517C332.605 151.667 331.713 154.989 333.077 157.9L348.432 190.687C347.607 189.468 344.887 187.639 344.089 186.973C342.409 185.569 340.616 184.292 338.611 183.393C337.396 182.849 336.093 182.559 334.819 182.559C332.503 182.559 330.277 183.519 328.832 185.659C328.448 186.229 328.135 186.916 328.283 187.588C328.416 188.191 328.887 188.651 329.34 189.069C333.679 193.088 338.468 196.597 342.717 200.709C342.717 200.709 343.668 209.905 351.625 215.456C353.912 217.051 355.617 218.752 356.861 220.269H356.86C356.863 220.272 356.867 220.275 356.869 220.279C357.351 220.867 357.764 221.427 358.113 221.941C358.545 222.667 358.969 223.524 359.38 224.475L362.365 234.859C361.189 234.823 360.016 234.804 358.843 234.804C352.4 234.804 346.003 235.359 339.717 236.549C326.356 239.081 314.069 244.759 304.309 252.797L298.483 213.144C297.492 206.396 295.531 200.035 292.783 194.16L297.695 193.371C297.695 193.371 294.937 153.477 254.384 153.477C249.541 153.477 244.164 154.045 238.183 155.319C235.877 155.08 233.544 154.959 231.189 154.959C227.905 154.959 224.581 155.196 221.236 155.688C194 159.689 175.164 185.012 179.167 212.248L184.441 248.148C187.907 271.74 207.372 289.028 230.22 290.632V291.761H207.74C193.579 291.761 181.501 300.652 176.767 313.155L176.76 313.152L176.661 313.423L176.613 313.553L148.875 389.168L151.075 389.436L143.089 424.208L142.753 424.363C142.753 424.363 142.864 424.329 143.076 424.267L139.452 440.047ZM142.316 426.579C142.273 426.788 142.247 426.921 142.235 426.989C142.251 426.908 142.279 426.764 142.316 426.579C142.323 426.54 142.332 426.497 142.34 426.453C142.332 426.497 142.323 426.539 142.316 426.579ZM142.491 425.691C142.437 425.96 142.385 426.225 142.34 426.453C142.379 426.259 142.429 426.003 142.491 425.691ZM142.753 424.363C142.753 424.363 142.623 425.023 142.491 425.691C142.563 425.328 142.645 424.909 142.753 424.363ZM273.916 291.784C273.597 291.777 273.283 291.761 272.961 291.761H270.988V285.811L283.869 283.919C283.215 286.455 282.737 289.063 282.452 291.731L273.913 291.761L273.916 291.784ZM746.593 281.549C743.171 280.555 739.527 280.019 735.745 280.019L705.917 279.781V244.287C709.232 240.652 711.615 236.088 712.585 230.899L714.256 221.975L715.559 222.219C716.437 222.383 717.312 222.461 718.177 222.461C724.909 222.461 730.947 217.649 732.228 210.805L732.375 210.023C733.425 204.411 731.001 198.917 726.635 195.777L733.908 156.925C739.504 167.371 743.859 178.485 746.872 189.889C753.332 214.333 755.045 242.504 749.9 267.375C748.905 272.183 747.773 276.895 746.593 281.549Z" fill="#CCD9F1"/>
<path d="M595.137 470.779H315.217L320.674 402.74C326.566 397.369 330.219 391.069 327.114 384.543C326.786 383.852 326.264 383.304 325.639 382.923C325.527 382.757 325.435 382.592 325.315 382.425C325.315 382.425 325.077 382.455 324.684 382.505C324.315 382.396 323.93 382.335 323.536 382.335C323.442 382.335 323.347 382.339 323.251 382.345C322.957 382.368 322.64 382.393 322.303 382.42L325.255 345.597H325.979H350.357H395.736H412.846C418.152 345.597 423.123 344.172 427.41 341.695C427.615 341.6 427.821 341.513 428.027 341.415C442.619 334.3 448.44 316.532 440.887 302.163L410.236 245.331C413.288 246.539 416.3 247.833 419.259 249.203C437.465 257.631 455.08 269.127 475.078 270.804C476.876 270.955 478.665 271.023 480.451 271.023C488.385 271.023 496.198 269.675 503.995 268.247L492.036 290.42C484.483 304.789 490.304 322.557 504.898 329.672C505.107 329.776 505.319 329.865 505.531 329.961C509.812 332.435 514.779 333.855 520.078 333.855H537.187H582.564H607.75L595.137 470.779ZM350.357 291.761V291.497L349.635 291.5V291.497L282.452 291.731C282.737 289.063 283.215 286.455 283.869 283.919L302.76 281.143C305.849 280.688 307.985 277.817 307.532 274.729L304.31 252.797C314.07 244.759 326.356 239.081 339.717 236.549C346.003 235.359 352.4 234.804 358.843 234.804C360.016 234.804 361.189 234.823 362.365 234.859L378.57 291.231C371.92 291.233 369.196 291.443 364.865 291.567L358.048 291.659C358.038 291.659 358.027 291.659 358.017 291.659L350.357 291.761ZM582.64 279.756L574.991 279.725V279.724C574.975 279.724 574.959 279.724 574.943 279.724L570.872 279.708C564.69 279.656 561.936 279.496 554.353 279.489L558.203 266.097C571.986 268.229 585.271 272.624 596.794 279.701L582.64 279.756Z" fill="#BACAEC"/>
<path d="M905.977 474.956H39.1337C37.9696 474.956 37.0264 474.013 37.0264 472.849C37.0264 471.685 37.9696 470.741 39.1337 470.741H905.977C907.141 470.741 908.085 471.685 908.085 472.849C908.085 474.013 907.141 474.956 905.977 474.956Z" fill="#A9BDE6"/>
<path d="M878.908 275.447C878.908 278.76 876.223 281.447 872.908 281.447C869.595 281.447 866.908 278.76 866.908 275.447C866.908 272.132 869.595 269.447 872.908 269.447C876.223 269.447 878.908 272.132 878.908 275.447Z" fill="white"/>
<path d="M834.908 442.113C834.908 444.689 832.818 446.78 830.241 446.78C827.665 446.78 825.574 444.689 825.574 442.113C825.574 439.536 827.665 437.447 830.241 437.447C832.818 437.447 834.908 439.536 834.908 442.113Z" fill="#E3B174"/>
<path d="M112.241 67.4467C112.241 70.76 109.555 73.4467 106.241 73.4467C102.928 73.4467 100.241 70.76 100.241 67.4467C100.241 64.132 102.928 61.4467 106.241 61.4467C109.555 61.4467 112.241 64.132 112.241 67.4467Z" fill="#E3B174"/>
<path d="M49.7712 424.681C49.7712 428.201 46.9181 431.055 43.3988 431.055C39.879 431.055 37.0264 428.201 37.0264 424.681C37.0264 421.163 39.879 418.309 43.3988 418.309C46.9181 418.309 49.7712 421.163 49.7712 424.681Z" fill="white"/>
<path d="M69.5752 96.78C69.5752 97.884 68.6804 98.78 67.5752 98.78C66.4704 98.78 65.5752 97.884 65.5752 96.78C65.5752 95.6747 66.4704 94.78 67.5752 94.78C68.6804 94.78 69.5752 95.6747 69.5752 96.78Z" fill="white"/>
<path d="M578.918 19.3694C577.07 28.0214 568.559 33.5374 559.906 31.6894C551.254 29.8414 545.738 21.3294 547.586 12.6774C549.434 4.02672 557.946 -1.4893 566.598 0.358701C575.249 2.20537 580.766 10.7174 578.918 19.3694Z" fill="#E3B174"/>
<path d="M831.582 43.372C831.021 45.9987 828.437 47.6733 825.809 47.1133C823.181 46.552 821.506 43.9667 822.067 41.3387C822.627 38.712 825.213 37.0374 827.841 37.5987C830.467 38.16 832.143 40.744 831.582 43.372Z" fill="white"/>
<path d="M205.098 12.4174C204.536 15.0454 201.952 16.72 199.324 16.16C196.696 15.5987 195.022 13.0134 195.583 10.3867C196.144 7.75869 198.728 6.08404 201.356 6.64404C203.984 7.20538 205.659 9.79068 205.098 12.4174Z" fill="white"/>
<path d="M871.666 152.891C871.105 155.517 868.52 157.192 865.893 156.632C863.265 156.071 861.589 153.485 862.15 150.859C862.712 148.231 865.296 146.556 867.924 147.116C870.552 147.677 872.228 150.263 871.666 152.891Z" fill="white"/>
<path d="M521.461 34.616C521.021 36.676 518.995 37.9894 516.935 37.5494C514.873 37.1094 513.56 35.0827 514 33.0227C514.44 30.9614 516.467 29.648 518.527 30.0894C520.588 30.5294 521.901 32.556 521.461 34.616Z" fill="white"/>
<path d="M536.908 112.82C536.908 155.14 502.603 189.447 460.283 189.447C417.963 189.447 383.656 155.14 383.656 112.82C383.656 70.5014 417.963 36.1934 460.283 36.1934C502.603 36.1934 536.908 70.5014 536.908 112.82Z" fill="#1C1B21"/>
<path d="M528.826 104.739C528.826 147.059 494.52 181.365 452.201 181.365C409.881 181.365 375.574 147.059 375.574 104.739C375.574 62.42 409.881 28.1133 452.201 28.1133C494.52 28.1133 528.826 62.42 528.826 104.739Z" fill="#FEB74B"/>
<path d="M452.201 47.1733C420.377 47.1733 394.486 73.064 394.486 104.888C394.486 136.712 420.377 162.603 452.201 162.603C484.024 162.603 509.914 136.712 509.914 104.888C509.914 73.064 484.024 47.1733 452.201 47.1733ZM452.201 166.603C418.172 166.603 390.486 138.917 390.486 104.888C390.486 70.8587 418.172 43.1733 452.201 43.1733C486.23 43.1733 513.914 70.8587 513.914 104.888C513.914 138.917 486.23 166.603 452.201 166.603Z" fill="#FCF2E3"/>
<path d="M456.484 121.629C460.687 120.979 462.789 119.084 462.789 115.945V115.767C462.789 114.228 462.345 112.969 461.457 111.992C460.568 111.015 458.911 110.083 456.484 109.195V121.629ZM448.135 81.7493C446.004 82.0467 444.449 82.6827 443.471 83.6587C442.495 84.636 442.007 85.8347 442.007 87.256V87.4333C442.007 88.7973 442.42 89.9653 443.25 90.9413C444.078 91.92 445.705 92.852 448.135 93.74V81.7493ZM447.691 132.553C443.841 132.081 440.126 131.119 436.544 129.668C432.96 128.217 429.689 126.368 426.729 124.116L433.657 113.991C436.084 115.827 438.439 117.352 440.719 118.565C442.997 119.78 445.469 120.652 448.135 121.185V107.063C444.937 106.175 442.139 105.199 439.742 104.132C437.344 103.065 435.359 101.793 433.789 100.313C432.221 98.8333 431.037 97.1013 430.237 95.1173C429.439 93.1333 429.039 90.84 429.039 88.2333V88.056C429.039 85.5693 429.483 83.3186 430.371 81.3053C431.259 79.2933 432.516 77.5453 434.146 76.0653C435.774 74.5867 437.743 73.3867 440.052 72.468C442.361 71.5507 444.907 70.944 447.691 70.6467V65.496H456.928V70.8253C460.124 71.3 463.069 72.084 465.765 73.1787C468.459 74.2747 471.019 75.6813 473.448 77.3973L467.497 87.7893C465.721 86.6053 463.914 85.5547 462.079 84.636C460.243 83.7187 458.379 83.024 456.484 82.548V95.96C463.235 97.7973 468.132 100.195 471.183 103.155C474.234 106.117 475.757 110.083 475.757 115.056V115.235C475.757 117.721 475.298 119.972 474.382 121.984C473.462 123.999 472.189 125.745 470.561 127.225C468.932 128.705 466.964 129.92 464.655 130.867C462.345 131.815 459.771 132.436 456.928 132.732V141.525H447.691V132.553Z" fill="#1C1B21"/>
<path d="M536.908 112.82C536.908 155.14 502.603 189.447 460.283 189.447C417.963 189.447 383.656 155.14 383.656 112.82C383.656 70.5014 417.963 36.1934 460.283 36.1934C502.603 36.1934 536.908 70.5014 536.908 112.82Z" fill="#1C1B21"/>
<path d="M528.826 104.739C528.826 147.059 494.52 181.365 452.201 181.365C409.881 181.365 375.574 147.059 375.574 104.739C375.574 62.42 409.881 28.1133 452.201 28.1133C494.52 28.1133 528.826 62.42 528.826 104.739Z" fill="#FEB74B"/>
<path d="M452.201 47.1733C420.377 47.1733 394.486 73.064 394.486 104.888C394.486 136.712 420.377 162.603 452.201 162.603C484.024 162.603 509.914 136.712 509.914 104.888C509.914 73.064 484.024 47.1733 452.201 47.1733ZM452.201 166.603C418.172 166.603 390.486 138.917 390.486 104.888C390.486 70.8587 418.172 43.1733 452.201 43.1733C486.23 43.1733 513.914 70.8587 513.914 104.888C513.914 138.917 486.23 166.603 452.201 166.603Z" fill="#FCF2E3"/>
<path d="M456.484 121.629C460.687 120.979 462.789 119.084 462.789 115.945V115.767C462.789 114.228 462.345 112.969 461.457 111.992C460.568 111.015 458.911 110.083 456.484 109.195V121.629ZM448.135 81.7493C446.004 82.0467 444.449 82.6827 443.471 83.6587C442.495 84.636 442.007 85.8347 442.007 87.256V87.4333C442.007 88.7973 442.42 89.9653 443.25 90.9413C444.078 91.92 445.705 92.852 448.135 93.74V81.7493ZM447.691 132.553C443.841 132.081 440.126 131.119 436.544 129.668C432.96 128.217 429.689 126.368 426.729 124.116L433.657 113.991C436.084 115.827 438.439 117.352 440.719 118.565C442.997 119.78 445.469 120.652 448.135 121.185V107.063C444.937 106.175 442.139 105.199 439.742 104.132C437.344 103.065 435.359 101.793 433.789 100.313C432.221 98.8333 431.037 97.1013 430.237 95.1173C429.439 93.1333 429.039 90.84 429.039 88.2333V88.056C429.039 85.5693 429.483 83.3186 430.371 81.3053C431.259 79.2933 432.516 77.5453 434.146 76.0653C435.774 74.5867 437.743 73.3867 440.052 72.468C442.361 71.5507 444.907 70.944 447.691 70.6467V65.496H456.928V70.8253C460.124 71.3 463.069 72.084 465.765 73.1787C468.459 74.2747 471.019 75.6813 473.448 77.3973L467.497 87.7893C465.721 86.6053 463.914 85.5547 462.079 84.636C460.243 83.7187 458.379 83.024 456.484 82.548V95.96C463.235 97.7973 468.132 100.195 471.183 103.155C474.234 106.117 475.757 110.083 475.757 115.056V115.235C475.757 117.721 475.298 119.972 474.382 121.984C473.462 123.999 472.189 125.745 470.561 127.225C468.932 128.705 466.964 129.92 464.655 130.867C462.345 131.815 459.771 132.436 456.928 132.732V141.525H447.691V132.553Z" fill="#1C1B21"/>
<path d="M410.522 69.2747C410.522 88.4227 395 103.947 375.852 103.947C356.704 103.947 341.18 88.4227 341.18 69.2747C341.18 50.1253 356.704 34.6027 375.852 34.6027C395 34.6027 410.522 50.1253 410.522 69.2747Z" fill="#1C1B21"/>
<path d="M406.866 65.6173C406.866 84.7667 391.343 100.289 372.194 100.289C353.046 100.289 337.523 84.7667 337.523 65.6173C337.523 46.4693 353.046 30.9467 372.194 30.9467C391.343 30.9467 406.866 46.4693 406.866 65.6173Z" fill="#FEB74B"/>
<path d="M372.194 39.5706C357.794 39.5706 346.08 51.2853 346.08 65.6853C346.08 80.084 357.794 91.8 372.194 91.8C386.594 91.8 398.309 80.084 398.309 65.6853C398.309 51.2853 386.594 39.5706 372.194 39.5706ZM372.194 93.6093C356.797 93.6093 344.271 81.0827 344.271 65.6853C344.271 50.288 356.797 37.7613 372.194 37.7613C387.592 37.7613 400.118 50.288 400.118 65.6853C400.118 81.0827 387.592 93.6093 372.194 93.6093Z" fill="#FCF2E3"/>
<path d="M374.134 73.26C376.036 72.9667 376.987 72.108 376.987 70.688V70.608C376.987 69.912 376.787 69.3427 376.384 68.9C375.983 68.4573 375.232 68.036 374.134 67.6347V73.26ZM370.356 55.216C369.392 55.3507 368.688 55.6387 368.247 56.08C367.804 56.5227 367.584 57.064 367.584 57.708V57.788C367.584 58.404 367.771 58.9333 368.147 59.376C368.522 59.8173 369.258 60.24 370.356 60.6413V55.216ZM370.155 78.204C368.414 77.9893 366.734 77.5533 365.112 76.8973C363.491 76.2413 362.011 75.404 360.671 74.3867L363.806 69.804C364.904 70.6346 365.97 71.3253 367 71.8733C368.032 72.4226 369.151 72.8187 370.356 73.0587V66.6693C368.91 66.268 367.644 65.8253 366.559 65.3426C365.474 64.8613 364.575 64.2853 363.867 63.6147C363.156 62.9467 362.62 62.1627 362.259 61.264C361.898 60.368 361.716 59.3293 361.716 58.1493V58.0693C361.716 56.944 361.918 55.9267 362.319 55.0147C362.72 54.104 363.29 53.3133 364.027 52.644C364.763 51.9746 365.655 51.432 366.699 51.016C367.744 50.6013 368.896 50.3267 370.155 50.192V47.8613H374.335V50.2733C375.782 50.488 377.115 50.8426 378.334 51.3373C379.552 51.8346 380.711 52.4693 381.811 53.2467L379.118 57.948C378.314 57.4133 377.496 56.9373 376.666 56.5227C375.835 56.1067 374.991 55.792 374.134 55.5773V61.6467C377.188 62.4773 379.406 63.5627 380.786 64.9013C382.166 66.2413 382.855 68.036 382.855 70.2867V70.368C382.855 71.492 382.647 72.5107 382.232 73.4213C381.816 74.3333 381.24 75.1227 380.504 75.792C379.767 76.4627 378.876 77.012 377.831 77.44C376.787 77.8693 375.622 78.1507 374.335 78.284V82.2627H370.155V78.204Z" fill="#1C1B21"/>
<path d="M333.037 127.876C333.037 119.561 326.296 112.82 317.981 112.82C326.296 112.82 333.037 106.079 333.037 97.764C333.037 106.079 339.779 112.82 348.093 112.82C339.779 112.82 333.037 119.561 333.037 127.876Z" fill="white"/>
<path d="M509.915 203.575C509.915 197.468 504.964 192.516 498.857 192.516C504.964 192.516 509.915 187.565 509.915 181.459C509.915 187.565 514.865 192.516 520.972 192.516C514.865 192.516 509.915 197.468 509.915 203.575Z" fill="white"/>
<path d="M437.64 256.827C437.64 245.597 428.537 236.493 417.307 236.493C428.537 236.493 437.64 227.391 437.64 216.161C437.64 227.391 446.743 236.493 457.972 236.493C446.743 236.493 437.64 245.597 437.64 256.827Z" fill="white"/>
<path d="M507.836 99.948C507.836 89.4254 499.305 80.8947 488.782 80.8947C499.305 80.8947 507.836 72.3627 507.836 61.84C507.836 72.3627 516.366 80.8947 526.89 80.8947C516.366 80.8947 507.836 89.4254 507.836 99.948Z" fill="#FCF2E3"/>
<path d="M571.53 112.82C571.53 107.016 566.825 102.311 561.02 102.311C566.825 102.311 571.53 97.604 571.53 91.8C571.53 97.604 576.236 102.311 582.041 102.311C576.236 102.311 571.53 107.016 571.53 112.82Z" fill="white"/>
<path d="M249.464 77.7507H132.397C120.357 77.7507 110.597 87.512 110.597 99.552C110.597 111.592 120.357 121.353 132.397 121.353H228.873L242.148 133.448V121.353H249.464C261.504 121.353 271.264 111.592 271.264 99.552C271.264 87.512 261.504 77.7507 249.464 77.7507Z" fill="#E3B174"/>
<path d="M142.953 96.5467C144.48 95.28 145.453 93.368 145.453 91.2293C145.453 87.412 142.358 84.3173 138.541 84.3173C134.725 84.3173 131.63 87.412 131.63 91.2293C131.63 93.368 132.603 95.28 134.129 96.5467C129.228 98.3467 125.725 103.043 125.725 108.568C125.725 115.647 151.358 115.647 151.358 108.568C151.358 103.043 147.854 98.3467 142.953 96.5467Z" fill="#FEB74B"/>
<path d="M250.93 89.472H167.046C166.678 89.472 166.379 89.1733 166.379 88.8053C166.379 88.436 166.678 88.1387 167.046 88.1387H250.93C251.299 88.1387 251.596 88.436 251.596 88.8053C251.596 89.1733 251.299 89.472 250.93 89.472Z" fill="white"/>
<path d="M237.916 109.155H167.046C166.678 109.155 166.379 108.856 166.379 108.488C166.379 108.119 166.678 107.821 167.046 107.821H237.916C238.286 107.821 238.583 108.119 238.583 108.488C238.583 108.856 238.286 109.155 237.916 109.155Z" fill="white"/>
<path d="M218.616 99.936H167.046C166.678 99.936 166.379 99.6373 166.379 99.2693C166.379 98.9013 166.678 98.6027 167.046 98.6027H218.616C218.984 98.6027 219.283 98.9013 219.283 99.2693C219.283 99.6373 218.984 99.936 218.616 99.936Z" fill="white"/>
<path d="M250.929 99.936H225.048C224.678 99.936 224.381 99.6373 224.381 99.2693C224.381 98.9013 224.678 98.6027 225.048 98.6027H250.929C251.298 98.6027 251.596 98.9013 251.596 99.2693C251.596 99.6373 251.298 99.936 250.929 99.936Z" fill="white"/>
<path d="M146.834 106.579C146.322 106.579 145.81 106.384 145.42 105.993L140.396 100.969C139.614 100.188 139.614 98.9213 140.396 98.1413C141.177 97.36 142.442 97.36 143.224 98.1413L146.834 101.751L156.533 92.0507C157.314 91.2693 158.58 91.2693 159.361 92.0507C160.142 92.832 160.142 94.0987 159.361 94.88L148.248 105.993C147.857 106.384 147.345 106.579 146.834 106.579Z" fill="white"/>
<path d="M771.585 191.287H891.692C904.047 191.287 914.06 201.301 914.06 213.653C914.06 226.007 904.047 236.02 891.692 236.02H792.709L779.092 248.429V236.02H771.585C759.233 236.02 749.219 226.007 749.219 213.653C749.219 201.301 759.233 191.287 771.585 191.287Z" fill="#FEB74B"/>
<path d="M889.005 210.365C890.532 209.097 891.505 207.187 891.505 205.047C891.505 201.229 888.409 198.136 884.593 198.136C880.777 198.136 877.681 201.229 877.681 205.047C877.681 207.187 878.655 209.097 880.181 210.365C875.28 212.165 871.777 216.861 871.777 222.387C871.777 229.465 897.409 229.465 897.409 222.387C897.409 216.861 893.907 212.165 889.005 210.365Z" fill="#5460B6"/>
<path d="M899.53 214.211H896.219V210.9C896.219 210.541 895.929 210.251 895.569 210.251H892.549C892.19 210.251 891.899 210.541 891.899 210.9V214.211H888.589C888.23 214.211 887.939 214.501 887.939 214.861V217.881C887.939 218.24 888.23 218.532 888.589 218.532H891.899V221.841C891.899 222.2 892.19 222.492 892.549 222.492H895.569C895.929 222.492 896.219 222.2 896.219 221.841V218.532H899.53C899.89 218.532 900.179 218.24 900.179 217.881V214.861C900.179 214.501 899.89 214.211 899.53 214.211Z" fill="white"/>
<path d="M861.287 204.623H777.403C777.034 204.623 776.736 204.325 776.736 203.956C776.736 203.588 777.034 203.289 777.403 203.289H861.287C861.655 203.289 861.954 203.588 861.954 203.956C861.954 204.325 861.655 204.623 861.287 204.623Z" fill="white"/>
<path d="M848.272 224.307H777.403C777.034 224.307 776.736 224.008 776.736 223.64C776.736 223.271 777.034 222.973 777.403 222.973H848.272C848.64 222.973 848.939 223.271 848.939 223.64C848.939 224.008 848.64 224.307 848.272 224.307Z" fill="white"/>
<path d="M828.972 215.087H777.403C777.034 215.087 776.736 214.789 776.736 214.42C776.736 214.052 777.034 213.753 777.403 213.753H828.972C829.342 213.753 829.639 214.052 829.639 214.42C829.639 214.789 829.342 215.087 828.972 215.087Z" fill="white"/>
<path d="M861.287 215.087H835.403C835.035 215.087 834.736 214.789 834.736 214.42C834.736 214.052 835.035 213.753 835.403 213.753H861.287C861.655 213.753 861.954 214.052 861.954 214.42C861.954 214.789 861.655 215.087 861.287 215.087Z" fill="white"/>
<path d="M620.61 62.3427H703.349C711.859 62.3427 718.758 69.2413 718.758 77.7507C718.758 86.2613 711.859 93.16 703.349 93.16H625.782H620.61C612.101 93.16 605.202 86.2613 605.202 77.7507C605.202 69.2413 612.101 62.3427 620.61 62.3427Z" fill="#E3B174"/>
<path d="M694.011 72.6827H629.86C629.492 72.6827 629.193 72.384 629.193 72.016C629.193 71.648 629.492 71.3493 629.86 71.3493H694.011C694.379 71.3493 694.677 71.648 694.677 72.016C694.677 72.384 694.379 72.6827 694.011 72.6827Z" fill="white"/>
<path d="M684.059 84.3387H629.86C629.492 84.3387 629.193 84.0413 629.193 83.672C629.193 83.304 629.492 83.0053 629.86 83.0053H684.059C684.427 83.0053 684.725 83.304 684.725 83.672C684.725 84.0413 684.427 84.3387 684.059 84.3387Z" fill="white"/>
<path d="M669.299 78.88H629.86C629.492 78.88 629.193 78.5813 629.193 78.2133C629.193 77.844 629.492 77.5466 629.86 77.5466H669.299C669.668 77.5466 669.965 77.844 669.965 78.2133C669.965 78.5813 669.668 78.88 669.299 78.88Z" fill="white"/>
<path d="M694.011 78.88H674.217C673.848 78.88 673.551 78.5813 673.551 78.2133C673.551 77.844 673.848 77.5466 674.217 77.5466H694.011C694.379 77.5466 694.677 77.844 694.677 78.2133C694.677 78.5813 694.379 78.88 694.011 78.88Z" fill="white"/>
<path d="M59.8392 280.784H133.409C140.976 280.784 147.109 286.919 147.109 294.485C147.109 302.052 140.976 308.185 133.409 308.185H64.4365H59.8392C52.272 308.185 46.1387 302.052 46.1387 294.485C46.1387 286.919 52.272 280.784 59.8392 280.784Z" fill="#FEB74B"/>
<path d="M125.104 290.053H68.0641C67.696 290.053 67.3975 289.755 67.3975 289.387C67.3975 289.017 67.696 288.72 68.0641 288.72H125.104C125.473 288.72 125.771 289.017 125.771 289.387C125.771 289.755 125.473 290.053 125.104 290.053Z" fill="white"/>
<path d="M116.255 300.417H68.0641C67.696 300.417 67.3975 300.119 67.3975 299.751C67.3975 299.383 67.696 299.084 68.0641 299.084H116.255C116.624 299.084 116.921 299.383 116.921 299.751C116.921 300.119 116.624 300.417 116.255 300.417Z" fill="white"/>
<path d="M103.131 295.561H68.0641C67.696 295.561 67.3975 295.264 67.3975 294.895C67.3975 294.527 67.696 294.228 68.0641 294.228H103.131C103.5 294.228 103.798 294.527 103.798 294.895C103.798 295.264 103.5 295.561 103.131 295.561Z" fill="white"/>
<path d="M125.104 295.561H107.505C107.136 295.561 106.838 295.264 106.838 294.895C106.838 294.527 107.136 294.228 107.505 294.228H125.104C125.473 294.228 125.771 294.527 125.771 294.895C125.771 295.264 125.473 295.561 125.104 295.561Z" fill="white"/>
<path d="M603.596 354.868H472.882C472.513 354.868 472.216 354.569 472.216 354.201C472.216 353.833 472.513 353.535 472.882 353.535H603.596C603.964 353.535 604.262 353.833 604.262 354.201C604.262 354.569 603.964 354.868 603.596 354.868Z" fill="white"/>
<path d="M603.596 385.54H493.161C492.791 385.54 492.494 385.241 492.494 384.873C492.494 384.504 492.791 384.207 493.161 384.207H603.596C603.964 384.207 604.262 384.504 604.262 384.873C604.262 385.241 603.964 385.54 603.596 385.54Z" fill="white"/>
<path d="M603.596 371.173H523.235C522.867 371.173 522.568 370.876 522.568 370.507C522.568 370.139 522.867 369.84 523.235 369.84H603.596C603.964 369.84 604.263 370.139 604.263 370.507C604.263 370.876 603.964 371.173 603.596 371.173Z" fill="white"/>
<path d="M513.213 371.173H472.882C472.513 371.173 472.216 370.876 472.216 370.507C472.216 370.139 472.513 369.84 472.882 369.84H513.213C513.581 369.84 513.88 370.139 513.88 370.507C513.88 370.876 513.581 371.173 513.213 371.173Z" fill="white"/>
<path d="M455.759 403.52H325.046C324.678 403.52 324.379 403.223 324.379 402.853C324.379 402.485 324.678 402.187 325.046 402.187H455.759C456.127 402.187 456.426 402.485 456.426 402.853C456.426 403.223 456.127 403.52 455.759 403.52Z" fill="white"/>
<path d="M435.48 434.191H325.046C324.678 434.191 324.379 433.892 324.379 433.524C324.379 433.156 324.678 432.857 325.046 432.857H435.48C435.848 432.857 436.147 433.156 436.147 433.524C436.147 433.892 435.848 434.191 435.48 434.191Z" fill="white"/>
<path d="M405.406 419.827H325.046C324.678 419.827 324.379 419.528 324.379 419.16C324.379 418.791 324.678 418.493 325.046 418.493H405.406C405.774 418.493 406.072 418.791 406.072 419.16C406.072 419.528 405.774 419.827 405.406 419.827Z" fill="white"/>
<path d="M455.758 419.827H415.427C415.058 419.827 414.761 419.528 414.761 419.16C414.761 418.791 415.058 418.493 415.427 418.493H455.758C456.126 418.493 456.425 418.791 456.425 419.16C456.425 419.528 456.126 419.827 455.758 419.827Z" fill="white"/>
<path d="M554.309 279.641L554.353 279.489L573.657 212.333L573.573 212.271C574.443 210.571 576.692 206.927 581.296 203.715C589.255 198.164 590.205 188.968 590.205 188.968C594.455 184.855 599.244 181.345 603.583 177.328C604.036 176.908 604.508 176.449 604.64 175.847C604.788 175.175 604.475 174.487 604.091 173.917C601.851 170.599 597.735 170.119 594.312 171.652C592.307 172.549 590.515 173.827 588.833 175.231C588.036 175.896 585.316 177.727 584.491 178.945L599.845 146.159C601.209 143.247 600.317 139.924 597.863 138.776C596.636 138.2 595.241 138.275 593.984 138.855C593.187 139.223 592.459 139.815 591.848 140.556C591.896 140.315 591.923 140.173 591.923 140.173C573.939 125.051 551.748 176.524 551.748 176.524L545.451 191.384L492.036 290.42C484.483 304.789 490.304 322.557 504.897 329.672C505.107 329.776 505.319 329.865 505.531 329.961C509.812 332.435 514.779 333.855 520.077 333.855H625.197L647.849 280.019L554.309 279.641Z" fill="#FAB892"/>
<mask id="mask0_57_3" style="mask-type:luminance" maskUnits="userSpaceOnUse" x="534" y="333" width="3" height="1">
<path d="M536.306 333.829C534.925 333.787 534.441 333.772 534.442 333.772C534.446 333.772 535.504 333.804 536.306 333.829Z" fill="white"/>
</mask>
<g mask="url(#mask0_57_3)">
<path d="M534.441 333.829H536.307V333.772H534.441V333.829Z" fill="#F9AA8B"/>
</g>
<path d="M537.187 333.855C536.88 333.847 536.62 333.837 536.375 333.831C536.831 333.844 537.187 333.855 537.187 333.855ZM536.375 333.831C536.359 333.829 536.341 333.829 536.325 333.829C536.341 333.829 536.357 333.829 536.375 333.831Z" fill="#F9AA8B"/>
<path d="M574.991 279.725L574.943 279.724C574.959 279.724 574.975 279.724 574.991 279.724M570.872 279.708L554.31 279.641L554.354 279.489C561.936 279.496 564.69 279.656 570.872 279.708Z" fill="#C4BCE4"/>
<path d="M537.187 333.855C537.187 333.855 539.812 326.557 542.993 317.037C543.752 315.56 544.397 313.997 544.908 312.347L548.605 299.488C549.581 296.253 550.501 293.081 551.295 290.128L554.309 279.641L570.872 279.708C572.079 279.719 573.415 279.724 574.943 279.724L574.991 279.725L537.187 333.855Z" fill="#F9AA8B"/>
<path d="M569.573 182.296C569.436 182.296 569.297 182.253 569.179 182.165C568.883 181.948 568.819 181.529 569.037 181.233C575.747 172.133 584.767 177.051 584.855 177.1C585.176 177.281 585.289 177.685 585.109 178.007C584.931 178.327 584.524 178.441 584.203 178.264C583.875 178.081 576.111 173.889 570.111 182.025C569.98 182.201 569.779 182.296 569.573 182.296Z" fill="#F5786C"/>
<path d="M592.229 140.427C589.457 143.919 586.878 147.592 584.593 151.411C583.454 153.323 582.424 155.296 581.561 157.32C580.71 159.329 580.022 161.489 580.132 163.527L580.134 163.568C580.154 163.935 579.873 164.249 579.505 164.269C579.137 164.289 578.824 164.007 578.802 163.64V163.623C578.73 161.144 579.546 158.928 580.458 156.848C581.397 154.767 582.489 152.777 583.682 150.86C586.081 147.028 588.742 143.396 591.617 139.92C591.757 139.751 592.008 139.727 592.177 139.867C592.344 140.004 592.369 140.251 592.234 140.42L592.229 140.427Z" fill="#F5786C"/>
<path d="M587.594 138.525C585.835 139.736 584.255 141.34 582.843 143.005C581.428 144.689 580.186 146.515 579.068 148.411C577.972 150.32 577.007 152.305 576.184 154.349C575.748 155.361 575.424 156.419 575.038 157.448L574.082 160.615L574.07 160.652C573.964 161.004 573.592 161.204 573.239 161.097C572.888 160.991 572.688 160.619 572.794 160.267L572.798 160.255L573.838 157.036C574.251 155.987 574.604 154.915 575.07 153.887C575.952 151.809 576.979 149.795 578.139 147.859C579.323 145.936 580.631 144.088 582.119 142.385C583.622 140.689 585.22 139.103 587.164 137.817C587.355 137.692 587.612 137.744 587.736 137.935C587.862 138.123 587.812 138.376 587.627 138.503L587.594 138.525Z" fill="#F5786C"/>
<path d="M580.324 139.037C577.772 141.709 575.396 144.596 573.343 147.664C572.33 149.204 571.355 150.779 570.591 152.439C569.822 154.091 569.184 155.808 568.907 157.56L568.904 157.576C568.847 157.94 568.507 158.188 568.143 158.131C567.779 158.072 567.531 157.731 567.588 157.367L567.591 157.351C567.947 155.413 568.674 153.619 569.516 151.913C570.36 150.201 571.399 148.615 572.471 147.067C574.651 143.984 577.11 141.143 579.779 138.483C579.931 138.332 580.178 138.332 580.328 138.484C580.476 138.633 580.479 138.875 580.335 139.027L580.324 139.037Z" fill="#F5786C"/>
<path d="M796.926 377.425L771.139 307.135C768.07 291.712 753.398 280.019 735.745 280.019L663.715 279.445L582.563 279.756V333.855H607.749L594.751 474.956L773.446 475.967L772.445 380.42L796.926 377.425Z" fill="white"/>
<path d="M607.749 333.855H582.563V279.756L658.719 279.465V280.336C630.139 283.148 607.881 305.388 607.881 332.427L607.749 333.855Z" fill="#F6F6F7"/>
<path d="M565.841 239.524L573.614 212.481C573.006 214.595 566.099 238.627 565.843 239.517C565.842 239.52 565.842 239.523 565.841 239.524ZM573.614 212.481L573.617 212.471C573.615 212.475 573.615 212.477 573.614 212.481ZM573.622 212.453L573.624 212.448C573.624 212.449 573.622 212.452 573.622 212.453ZM573.634 212.413L573.635 212.405C573.635 212.408 573.634 212.411 573.634 212.413ZM573.657 212.333L573.573 212.271C573.574 212.268 573.575 212.267 573.575 212.265L573.657 212.333Z" fill="#D3C7E8"/>
<path d="M565.832 239.535C565.466 239.533 561.02 201.763 561.02 201.763L573.576 212.265C573.576 212.267 573.574 212.268 573.573 212.271L573.657 212.333C573.657 212.333 573.652 212.353 573.64 212.391C573.638 212.396 573.637 212.401 573.636 212.405L573.634 212.413C573.633 212.419 573.63 212.423 573.629 212.428C573.628 212.435 573.626 212.441 573.624 212.448L573.622 212.453C573.621 212.456 573.621 212.459 573.62 212.463C573.618 212.465 573.618 212.468 573.617 212.471L573.614 212.481L565.841 239.524C565.838 239.531 565.836 239.535 565.832 239.535Z" fill="#F9AA8B"/>
<path d="M667.389 397.619L660.569 363.248L655.308 336.729C654.689 333.611 651.631 331.564 648.512 332.183L622.171 337.409C619.052 338.028 617.005 341.087 617.624 344.207L622.92 370.896L627.12 392.067L629.705 405.096C630.324 408.216 633.383 410.261 636.503 409.641L652.06 406.556L662.844 404.416C665.961 403.797 668.009 400.737 667.389 397.619Z" fill="#1C1B21"/>
<path d="M807.598 429.296L795.721 377.572L741.714 384.18L744.68 397.337L744.405 397.269L685.698 382.735L685.647 382.807C684.027 381.995 680.983 380.059 678.306 376.06C673.383 368.703 665.116 368.5 665.116 368.5C663.522 366.831 662.038 365.048 660.57 363.248L661.945 370.18L661.601 370.363C657.869 372.34 653.658 373.217 649.447 372.888C641.655 372.28 628.925 371.285 623.633 370.873C622.018 370.747 620.468 371.607 619.772 373.069C612.216 388.951 644.658 403.483 652.061 406.556H652.06L652.321 406.663L652.624 406.787L652.905 406.901L653.141 406.996L653.362 407.083L653.447 407.116L653.558 407.16L666.254 411.92L766.767 461.393C767.701 461.84 768.645 462.23 769.598 462.569C774.472 464.801 780.08 465.528 785.71 464.235C801.402 460.63 811.202 444.988 807.598 429.296Z" fill="#FAB892"/>
<path d="M744.679 397.337L744.405 397.269C742.797 390.18 743.542 392.427 742.326 386.893L744.679 397.337Z" fill="#6461B6"/>
<path d="M803.769 412.62C803.525 412.535 766.44 399.516 748.628 398.313L744.405 397.269L744.68 397.337L742.327 386.893C742.163 386.153 741.965 385.273 741.723 384.213L741.773 384.208L803.771 412.62H803.769Z" fill="#F9AA8B"/>
<path d="M736.7 384.847C736.389 384.847 736.113 384.628 736.049 384.316L728.294 346.759C728.22 346.397 728.453 346.045 728.812 345.971C728.86 345.96 728.906 345.955 728.953 345.955C729.256 345.955 729.536 346.175 729.6 346.488L737.23 383.441L763.344 380.117C763.374 380.113 763.404 380.111 763.434 380.111C763.76 380.111 764.046 380.36 764.089 380.695C764.136 381.06 763.877 381.393 763.513 381.441L748.74 383.321L741.714 384.18L741.721 384.213L736.786 384.841L736.7 384.847Z" fill="#ADACB0"/>
<path d="M741.722 384.213L741.715 384.18C741.718 384.192 741.72 384.203 741.723 384.213H741.722ZM741.774 384.208L741.715 384.18L748.74 383.321L741.774 384.208Z" fill="#AB806B"/>
<path d="M741.723 384.213C741.72 384.203 741.718 384.192 741.715 384.18L741.774 384.208L741.723 384.213Z" fill="#AB7667"/>
<path d="M804.297 415.289C804.287 415.236 804.253 415.067 804.191 414.759C804.242 415.013 804.283 415.216 804.297 415.289Z" fill="#F9AA8B"/>
<path d="M803.777 412.655C803.775 412.643 803.773 412.632 803.771 412.621C803.771 412.624 803.773 412.635 803.777 412.655Z" fill="#FDE9EC"/>
<path d="M804.052 414.045C803.977 413.673 803.891 413.233 803.777 412.655C803.808 412.808 803.932 413.436 804.052 414.045Z" fill="#F9AA8B"/>
<path d="M804.192 414.759C804.154 414.565 804.11 414.345 804.065 414.115C804.117 414.375 804.16 414.592 804.192 414.759ZM804.065 414.115C804.061 414.092 804.056 414.069 804.052 414.045C804.056 414.068 804.061 414.092 804.065 414.115Z" fill="#F9AA8B"/>
<path d="M730.585 140.768C728.943 129.444 718.611 121.387 707.16 122.681C704.121 123.025 701.312 124.005 698.832 125.455C695.147 119.425 688.211 115.732 680.728 116.579C676.451 117.061 672.687 118.961 669.816 121.74C665.684 119.669 660.933 118.717 656 119.276C642.44 120.809 632.691 133.044 634.224 146.603C634.941 152.944 638.007 158.444 642.445 162.353L637.424 189.177C635.983 196.877 641.057 204.288 648.756 205.731L708.255 216.868C715.955 218.311 723.367 213.236 724.808 205.536L734.556 153.465C735.455 148.66 733.816 143.967 730.585 140.768Z" fill="#1C1B21"/>
<path d="M643.865 155.435C643.645 155.435 643.429 155.325 643.301 155.124C632.674 138.305 647.312 127.521 647.461 127.415C647.761 127.199 648.176 127.269 648.392 127.568C648.605 127.865 648.537 128.281 648.238 128.496C647.673 128.905 634.481 138.671 644.429 154.412C644.625 154.724 644.533 155.136 644.222 155.332C644.112 155.401 643.988 155.435 643.865 155.435Z" fill="#FCF2E3"/>
<path d="M720.962 193.352L719.66 193.109L706.526 164.879C703.295 164.412 700.266 163.22 697.64 161.443C695.12 164.171 691.655 166.051 687.675 166.501C682.886 167.043 678.36 165.404 675.06 162.391C671.4 165.609 666.762 167.788 661.551 168.377C655.592 169.052 649.891 167.544 645.239 164.493L636.091 213.365C634.827 220.116 636.214 226.736 639.48 232.203C642.732 240.244 649.724 246.56 658.72 248.631V280.905C658.72 292.117 667.894 301.289 679.104 301.289H685.534C696.744 301.289 705.918 292.117 705.918 280.905V244.259C709.224 240.627 711.616 236.081 712.586 230.899L714.256 221.975L715.559 222.219C723.282 223.664 730.783 218.528 732.228 210.805L732.375 210.023C733.82 202.3 728.684 194.799 720.962 193.352Z" fill="#FAB892"/>
<path d="M658.72 248.667C649.735 246.601 642.76 240.273 639.499 232.249C642.759 240.269 649.742 246.564 658.72 248.631V248.667ZM705.918 244.287V244.259C709.224 240.627 711.616 236.081 712.586 230.899C711.615 236.088 709.232 240.652 705.918 244.287Z" fill="#D9B7D9"/>
<path d="M685.522 260.647H679.01C670.947 260.647 663.958 255.889 660.66 249.053L659.832 248.897C659.457 248.828 659.086 248.751 658.719 248.667V248.631C649.741 246.564 642.758 240.269 639.498 232.249C639.493 232.233 639.486 232.219 639.479 232.203C643.321 238.627 649.769 243.451 657.705 244.936L678.467 248.824C680.15 249.139 681.823 249.291 683.475 249.291C696.241 249.289 707.605 240.213 710.038 227.209L711.232 220.843L714.255 221.975L712.585 230.899C711.615 236.081 709.223 240.627 705.917 244.259V244.287C705.731 244.491 705.543 244.691 705.353 244.888C703.242 253.887 695.142 260.647 685.522 260.647Z" fill="#F89F88"/>
<path d="M722.104 212.495C721.96 212.495 721.816 212.449 721.695 212.355L716.508 208.328C716.354 208.209 716.26 208.028 716.251 207.833C716.24 207.64 716.318 207.451 716.459 207.316L722.856 201.279C723.123 201.027 723.548 201.037 723.798 201.305C724.051 201.573 724.039 201.995 723.771 202.248L717.94 207.752L722.514 211.301C722.803 211.528 722.856 211.947 722.63 212.237C722.5 212.407 722.302 212.495 722.104 212.495Z" fill="#F5786C"/>
<path d="M689.113 187.687C688.112 187.657 687.08 187.051 686.05 186.521C685.024 185.967 683.98 185.435 683.057 185.004C682.13 184.573 681.052 184.115 679.966 183.685C678.9 183.236 677.766 182.833 677.112 182.091C676.474 181.385 676.6 180.273 678.092 179.529C679.512 178.789 682.402 178.613 685.468 180.033C688.522 181.467 690.21 183.777 690.521 185.324C690.872 186.927 690.072 187.725 689.113 187.687Z" fill="#1C1B21"/>
<path d="M646.689 184.031C647.553 184.507 648.745 184.571 649.897 184.693C651.059 184.793 652.224 184.92 653.232 185.061C654.243 185.203 655.4 185.4 656.544 185.623C657.684 185.823 658.856 186.088 659.801 185.865C660.713 185.661 661.193 184.779 660.321 183.488C659.509 182.237 657.151 180.671 653.807 180.195C650.464 179.735 647.819 180.601 646.74 181.587C645.599 182.596 645.855 183.581 646.689 184.031Z" fill="#1C1B21"/>
<path d="M679.307 199.084L679.397 199.101C680.289 199.268 681.155 198.675 681.323 197.783L681.717 195.671C681.885 194.779 681.291 193.912 680.4 193.745L680.309 193.728C679.417 193.561 678.551 194.155 678.384 195.047L677.988 197.159C677.821 198.051 678.415 198.917 679.307 199.084Z" fill="#1C1B21"/>
<path d="M650.568 194.415L650.657 194.431C651.549 194.597 652.416 194.004 652.582 193.113L652.977 191.001C653.145 190.109 652.552 189.243 651.66 189.076L651.569 189.059C650.678 188.892 649.812 189.484 649.644 190.376L649.249 192.489C649.081 193.381 649.676 194.247 650.568 194.415Z" fill="#1C1B21"/>
<path d="M686.622 207.401C686.546 207.401 686.47 207.397 686.394 207.389L680.492 206.725C679.376 206.6 678.564 205.583 678.69 204.467L678.703 204.353C678.82 203.312 679.71 202.539 680.735 202.539C680.81 202.539 680.886 202.543 680.962 202.551L686.862 203.215C687.979 203.34 688.791 204.357 688.664 205.473L688.651 205.587C688.535 206.627 687.644 207.401 686.622 207.401Z" fill="#F9AA8B"/>
<path d="M647.708 201.272C647.632 201.272 647.556 201.268 647.48 201.259L641.58 200.595C640.463 200.469 639.652 199.453 639.779 198.337L639.789 198.224C639.908 197.184 640.797 196.408 641.821 196.408C641.896 196.408 641.972 196.412 642.049 196.421L647.949 197.084C649.067 197.211 649.877 198.228 649.751 199.344L649.739 199.457C649.621 200.497 648.731 201.272 647.708 201.272Z" fill="#F9AA8B"/>
<path d="M658.774 230.78C658.569 230.78 658.366 230.685 658.236 230.507C658.018 230.209 658.084 229.792 658.381 229.575C661.176 227.533 664.305 228.679 665.569 229.568C665.87 229.78 665.944 230.193 665.733 230.495C665.521 230.795 665.106 230.867 664.805 230.66C664.686 230.577 661.876 228.672 659.168 230.652C659.049 230.739 658.91 230.78 658.774 230.78Z" fill="#F5786C"/>
<path d="M663.284 211.828L678.876 209.6L677.17 215.017C676.075 218.484 672.86 220.843 669.224 220.843C666.396 220.843 664.022 218.711 663.722 215.897L663.284 211.828Z" fill="white"/>
<path d="M667.314 206.3L667.146 206.279L662.311 205.02C660.261 204.487 658.607 203.063 657.773 201.116C656.939 199.168 657.05 196.988 658.078 195.137L665.441 181.884C665.622 181.56 666.027 181.447 666.347 181.625C666.67 181.804 666.786 182.209 666.607 182.532L659.245 195.784C658.417 197.273 658.329 199.025 658.999 200.591C659.67 202.157 660.999 203.301 662.647 203.729L667.482 204.988C667.84 205.081 668.053 205.445 667.958 205.801C667.882 206.101 667.611 206.3 667.314 206.3Z" fill="#F5786C"/>
<path d="M440.886 302.163L387.473 203.125L381.175 188.265C381.175 188.265 358.985 136.792 341 151.915C341 151.915 341.028 152.057 341.075 152.297C340.464 151.556 339.736 150.965 338.939 150.596C337.68 150.016 336.287 149.943 335.06 150.517C332.605 151.667 331.713 154.989 333.077 157.9L348.432 190.687C347.607 189.468 344.887 187.639 344.089 186.973C342.409 185.569 340.616 184.292 338.611 183.393C335.187 181.861 331.072 182.34 328.832 185.659C328.448 186.229 328.135 186.916 328.283 187.588C328.416 188.191 328.887 188.651 329.34 189.069C333.679 193.088 338.468 196.597 342.717 200.709C342.717 200.709 343.668 209.905 351.625 215.456C356.231 218.668 358.48 222.313 359.348 224.012L359.265 224.075L378.613 291.384L350.357 291.761V345.597H412.845C418.152 345.597 423.123 344.172 427.409 341.695C427.615 341.6 427.821 341.513 428.026 341.415C442.618 334.3 448.44 316.532 440.886 302.163Z" fill="#FAB892"/>
<path d="M358.018 291.659C358.027 291.659 358.038 291.659 358.048 291.659H358.018ZM364.866 291.567C369.196 291.443 371.92 291.233 378.57 291.231L378.614 291.384L364.866 291.567Z" fill="#C4BCE4"/>
<path d="M395.736 345.597L358.018 291.659H358.048C360.894 291.659 363.024 291.62 364.866 291.567L378.614 291.384L378.57 291.231C378.62 291.231 378.671 291.229 378.722 291.229C381.216 306.532 395.736 345.597 395.736 345.597ZM395.736 345.597C395.736 345.597 395.747 345.597 395.767 345.596C395.758 345.596 395.747 345.597 395.736 345.597ZM395.776 345.596C395.784 345.596 395.794 345.595 395.804 345.595C395.795 345.595 395.786 345.596 395.776 345.596ZM395.818 345.595C395.827 345.595 395.838 345.593 395.85 345.593C395.839 345.593 395.828 345.595 395.818 345.595ZM395.85 345.593C395.855 345.593 395.859 345.593 395.863 345.593C395.859 345.593 395.854 345.593 395.85 345.593ZM395.87 345.593C395.875 345.593 395.879 345.593 395.884 345.592C395.88 345.593 395.875 345.593 395.87 345.593ZM395.886 345.592C395.906 345.592 395.928 345.591 395.952 345.591C395.93 345.591 395.908 345.592 395.886 345.592ZM395.962 345.591C395.963 345.591 395.962 345.591 395.963 345.591H395.962ZM395.99 345.589C395.99 345.589 395.992 345.589 395.994 345.589C395.992 345.589 395.991 345.589 395.99 345.589ZM395.994 345.589C396.012 345.588 396.032 345.588 396.052 345.588C396.032 345.588 396.014 345.588 395.994 345.589ZM396.066 345.587C396.075 345.587 396.083 345.587 396.091 345.587C396.083 345.587 396.074 345.587 396.066 345.587ZM396.116 345.585C396.17 345.584 396.223 345.583 396.274 345.58C396.219 345.583 396.166 345.584 396.116 345.585ZM396.275 345.58C396.316 345.58 396.356 345.579 396.395 345.577C396.354 345.579 396.314 345.58 396.275 345.58ZM396.402 345.577C396.403 345.577 396.403 345.577 396.404 345.577C396.403 345.577 396.402 345.577 396.402 345.577ZM396.459 345.575C396.482 345.575 396.503 345.573 396.524 345.573C396.502 345.573 396.48 345.575 396.459 345.575ZM396.524 345.573C396.526 345.573 396.528 345.573 396.531 345.573C396.528 345.573 396.527 345.573 396.524 345.573ZM396.602 345.571C396.652 345.569 396.702 345.568 396.75 345.567C396.7 345.568 396.65 345.569 396.602 345.571ZM396.818 345.564C396.883 345.563 396.947 345.56 397.008 345.559C396.944 345.56 396.88 345.563 396.818 345.564ZM397.028 345.557C398.1 345.525 398.491 345.513 398.491 345.513C398.491 345.513 397.744 345.536 397.028 345.557Z" fill="#F9AA8B"/>
<path d="M363.349 194.037C363.145 194.037 362.942 193.944 362.811 193.767C356.813 185.631 349.046 189.823 348.719 190.005C348.398 190.184 347.993 190.071 347.813 189.749C347.633 189.428 347.747 189.023 348.067 188.843C348.158 188.792 357.177 183.879 363.885 192.975C364.103 193.271 364.039 193.689 363.743 193.907C363.625 193.995 363.486 194.037 363.349 194.037Z" fill="#F5786C"/>
<path d="M341.279 151.632C342.898 153.248 344.368 154.964 345.771 156.752C347.163 158.543 348.467 160.408 349.634 162.364C350.783 164.331 351.807 166.38 352.622 168.529C353.392 170.693 353.939 172.953 354.122 175.283C354.151 175.651 353.875 175.972 353.51 176C353.142 176.029 352.82 175.755 352.792 175.388L352.791 175.379L352.79 175.349C352.66 173.179 352.191 171.025 351.492 168.932C350.751 166.852 349.798 164.841 348.714 162.899C347.612 160.964 346.367 159.107 345.032 157.316C343.692 155.533 342.259 153.796 340.722 152.199L340.712 152.189C340.56 152.031 340.566 151.779 340.723 151.627C340.879 151.476 341.126 151.48 341.279 151.632Z" fill="#F5786C"/>
<path d="M345.787 149.067C347.96 150.192 349.555 151.865 351.046 153.625C352.51 155.403 353.784 157.325 354.878 159.337C356.01 161.332 356.943 163.423 357.832 165.529L359.044 168.735L360.123 171.985C360.238 172.336 360.048 172.712 359.699 172.828C359.35 172.944 358.972 172.755 358.856 172.405L358.854 172.396L358.844 172.367L357.844 169.147L356.71 165.975C355.876 163.892 354.998 161.823 353.93 159.855C352.896 157.867 351.69 155.973 350.306 154.228C348.93 152.513 347.315 150.831 345.464 149.831L345.402 149.796C345.202 149.688 345.127 149.437 345.235 149.237C345.342 149.04 345.588 148.964 345.787 149.067Z" fill="#F5786C"/>
<path d="M353.112 150.196C354.608 151.404 355.932 152.741 357.182 154.165C358.432 155.587 359.581 157.097 360.608 158.691C361.642 160.277 362.577 161.936 363.352 163.672C364.17 165.391 364.77 167.203 365.318 169.028C365.425 169.381 365.225 169.753 364.872 169.859C364.52 169.964 364.148 169.764 364.041 169.412L364.038 169.4L364.029 169.365C363.544 167.6 363.012 165.836 362.26 164.156C361.552 162.457 360.685 160.825 359.717 159.256C358.757 157.68 357.672 156.179 356.486 154.761C355.306 153.345 354.018 151.985 352.633 150.809L352.616 150.795C352.453 150.656 352.432 150.411 352.57 150.247C352.708 150.087 352.948 150.064 353.112 150.196Z" fill="#F5786C"/>
<path d="M359.38 224.475C358.97 223.524 358.546 222.667 358.114 221.941C358.678 222.772 359.08 223.485 359.348 224.012L359.266 224.075L359.38 224.475ZM356.87 220.279C356.867 220.275 356.863 220.272 356.86 220.269H356.862C356.864 220.272 356.867 220.275 356.87 220.279Z" fill="#D3C7E8"/>
<path d="M364.737 243.109C364.737 243.109 362.377 231.383 359.38 224.475L359.265 224.075L359.348 224.012C359.08 223.485 358.677 222.772 358.113 221.941C357.704 221.255 357.288 220.688 356.869 220.279C356.867 220.275 356.864 220.272 356.861 220.269L377.501 217.721L364.737 243.109Z" fill="#F9AA8B"/>
<path d="M273.914 291.761L273.916 291.784C273.598 291.777 273.283 291.761 272.962 291.761H207.74C193.579 291.761 181.502 300.652 176.767 313.155L176.76 313.152L176.662 313.423L176.614 313.553L148.875 389.168L174.626 392.317V476.289H314.775L325.255 345.597H349.635V291.497L273.914 291.761Z" fill="white"/>
<path d="M350.357 345.597H325.979H349.635V291.5L350.357 291.497V291.761V345.597Z" fill="#B2C2E8"/>
<path d="M349.635 345.597H325.979L326.094 344.169C326.094 315.968 303.816 292.98 275.902 291.817L275.9 291.808L349.635 291.5V345.597Z" fill="#F6F6F7"/>
<path d="M324.352 349.151L298.012 343.925C294.893 343.305 291.834 345.352 291.214 348.471L285.953 374.991L279.134 409.36C278.514 412.48 280.561 415.539 283.68 416.159L294.462 418.297L310.021 421.384C313.141 422.003 316.2 419.956 316.818 416.837L319.402 403.808L323.604 382.639L328.9 355.948C329.517 352.829 327.472 349.771 324.352 349.151Z" fill="#1C1B21"/>
<path d="M327.113 384.543C326.785 383.852 326.264 383.304 325.638 382.923C325.526 382.757 325.434 382.592 325.314 382.425C325.314 382.425 325.077 382.455 324.683 382.505C324.226 382.371 323.742 382.308 323.25 382.345C317.959 382.759 305.229 383.752 297.437 384.36C293.226 384.689 289.015 383.813 285.283 381.836L284.661 381.504L285.953 374.991C284.559 376.699 283.145 378.385 281.644 379.98C280.882 380.023 276.537 380.407 272.472 383.439C270.964 384.501 269.479 385.912 268.215 387.8C266.629 390.172 264.915 391.809 263.443 392.927C262.582 393.548 261.816 393.989 261.237 394.28L261.186 394.208L202.474 408.743L202.205 408.809L205.185 395.591L151.164 389.045L139.286 440.769C135.682 456.461 145.482 472.104 161.174 475.708C166.804 477 172.413 476.275 177.286 474.042C178.24 473.704 179.184 473.313 180.117 472.866L279.494 423.951L292.965 418.901C292.965 418.901 293.51 418.693 294.462 418.297L294.265 418.259C300.412 415.755 334.876 400.859 327.113 384.543Z" fill="#FAB892"/>
<path d="M142.234 426.989C142.246 426.921 142.273 426.788 142.316 426.579C142.278 426.764 142.25 426.908 142.234 426.989ZM142.316 426.579C142.322 426.539 142.332 426.497 142.34 426.453C142.332 426.497 142.322 426.54 142.316 426.579Z" fill="#D3C7E8"/>
<path d="M142.753 424.363L143.089 424.208L143.076 424.267C142.864 424.329 142.753 424.363 142.753 424.363Z" fill="#D3C7E8"/>
<path d="M143.076 424.267L143.09 424.208L204.73 395.901L204.811 395.912C202.979 403.895 203.327 403.425 202.114 409.011L159.811 419.484C158.983 419.707 158.18 419.972 157.392 420.26C150.043 422.209 144.444 423.859 143.076 424.267Z" fill="#F9AA8B"/>
<path d="M142.34 426.453C142.385 426.225 142.437 425.96 142.491 425.691C142.429 426.003 142.379 426.259 142.34 426.453Z" fill="#D3C7E8"/>
<path d="M142.49 425.691C142.622 425.023 142.753 424.363 142.753 424.363C142.645 424.909 142.562 425.328 142.49 425.691Z" fill="#D3C7E8"/>
<path d="M209.822 396.525L209.739 396.52L205.103 395.948L205.185 395.591L197.417 394.649C197.377 394.549 197.361 394.437 197.375 394.323C197.417 393.987 197.707 393.737 198.033 393.737C198.061 393.737 198.09 393.739 198.118 393.743L209.262 395.117L215.467 355.525C215.519 355.193 215.805 354.963 216.131 354.963C216.163 354.963 216.197 354.965 216.23 354.969C216.593 355.027 216.842 355.368 216.785 355.731L210.481 395.961C210.429 396.289 210.146 396.525 209.822 396.525Z" fill="#ADACB0"/>
<path d="M205.104 395.948L204.81 395.912C204.814 395.895 204.818 395.876 204.822 395.859L204.729 395.901L197.956 395.065C197.705 395.036 197.504 394.869 197.417 394.649L205.185 395.591L205.104 395.948Z" fill="#AB806B"/>
<path d="M204.811 395.912L204.729 395.901L204.823 395.859C204.819 395.876 204.815 395.895 204.811 395.912Z" fill="#AB7667"/>
<path d="M223.591 403.472L236.407 400.343L223.785 403.467L223.591 403.472Z" fill="#FEF6F8"/>
<path d="M223.785 403.467L236.406 400.343L262.145 394.059C263.002 398.657 256.16 402.869 251.208 402.869C250.861 402.869 250.522 402.848 250.197 402.805L223.785 403.467Z" fill="#F9B08E"/>
<path d="M307.531 274.729L298.482 213.144C297.491 206.396 295.53 200.035 292.782 194.16L297.694 193.371C297.694 193.371 294.245 143.384 238.182 155.319C232.661 154.748 226.979 154.844 221.235 155.688C193.999 159.689 175.163 185.012 179.166 212.248L184.441 248.148C188.442 275.384 213.765 294.219 241.001 290.217L302.759 281.143C305.849 280.688 307.985 277.817 307.531 274.729Z" fill="#1C1B21"/>
<path d="M270.34 191.411C270.012 191.411 269.727 191.168 269.68 190.835C269.631 190.469 269.885 190.133 270.251 190.083L288.279 187.62C288.423 187.601 288.555 187.523 288.64 187.403C288.688 187.337 288.763 187.2 288.732 187.023C285.817 170.772 270.847 163.275 270.696 163.201C270.365 163.04 270.228 162.64 270.389 162.309C270.552 161.979 270.953 161.841 271.281 162.004C271.437 162.08 287.007 169.856 290.044 186.787C290.132 187.28 290.017 187.777 289.719 188.187C289.42 188.599 288.961 188.873 288.459 188.943L270.431 191.404L270.34 191.411Z" fill="#FCF2E3"/>
<path d="M287.707 194.975L238.358 202.904L226.38 185.189C228.732 204.955 214.159 217.721 214.159 217.721C214.159 217.721 214.01 217.517 213.751 217.143L213.342 217.219C205.619 218.664 200.483 226.167 201.928 233.888C203.374 241.612 210.875 246.747 218.598 245.301L219.542 245.125C221.228 252.531 225.032 258.945 230.22 263.817V295.445C230.22 306.656 239.394 315.829 250.604 315.829C261.816 315.829 270.988 306.656 270.988 295.445V270.468C279.108 266.731 285.466 260.204 289.095 252.312L289.118 252.276C293.528 244.887 295.374 235.925 293.666 226.801L287.707 194.975Z" fill="#FAB892"/>
<path d="M230.22 263.819C225.094 259.005 221.291 252.696 219.574 245.403C219.57 245.383 219.575 245.363 219.591 245.34C221.302 252.655 225.083 258.992 230.22 263.817V263.819ZM284.147 260.253C286.119 257.832 287.782 255.165 289.09 252.323C289.099 252.308 289.108 252.292 289.118 252.276C287.804 255.137 286.132 257.819 284.147 260.253Z" fill="#5E343B"/>
<path d="M250.604 282.415C240.027 282.415 231.273 274.247 230.316 263.908C230.284 263.879 230.252 263.848 230.22 263.819V263.817C225.083 258.992 221.301 252.655 219.591 245.34C219.775 245.077 221.332 244.675 222.244 244.675C222.593 244.675 222.848 244.733 222.896 244.881C227.795 259.971 241.936 270.14 257.653 270.139C259.885 270.139 262.152 269.933 264.427 269.507C275.151 267.499 283.893 261.001 289.089 252.323C287.781 255.165 286.119 257.832 284.147 260.253C280.135 265.175 274.845 269.087 268.661 271.432C265.247 277.941 258.428 282.415 250.604 282.415Z" fill="#F89F88"/>
<path d="M211.848 235.931C211.65 235.931 211.454 235.843 211.322 235.673C211.096 235.383 211.148 234.964 211.439 234.737L215.874 231.297L210.214 225.957C209.947 225.705 209.934 225.283 210.187 225.015C210.44 224.748 210.862 224.736 211.13 224.988L217.354 230.863C217.495 230.996 217.571 231.185 217.563 231.379C217.552 231.573 217.459 231.755 217.306 231.873L212.258 235.791C212.135 235.885 211.991 235.931 211.848 235.931Z" fill="#F5786C"/>
<path d="M247.355 211.624C247.95 211.608 248.562 211.247 249.174 210.933C249.782 210.604 250.402 210.288 250.95 210.032C251.499 209.776 252.141 209.504 252.785 209.249C253.418 208.983 254.091 208.744 254.479 208.303C254.858 207.884 254.783 207.224 253.898 206.781C253.055 206.343 251.338 206.239 249.518 207.081C247.706 207.932 246.703 209.304 246.518 210.223C246.311 211.173 246.785 211.647 247.355 211.624Z" fill="#1C1B21"/>
<path d="M282.725 205.473C282.149 205.62 281.461 205.444 280.787 205.311C280.111 205.163 279.428 205.031 278.829 204.937C278.231 204.843 277.54 204.759 276.851 204.692C276.168 204.611 275.456 204.567 274.96 204.251C274.481 203.952 274.369 203.297 275.097 202.628C275.787 201.973 277.408 201.399 279.389 201.705C281.368 202.021 282.709 203.063 283.141 203.893C283.604 204.751 283.28 205.337 282.725 205.473Z" fill="#1C1B21"/>
<path d="M262.744 239.211C257.273 239.211 253.624 234.919 253.578 234.863C253.344 234.58 253.382 234.16 253.665 233.924C253.948 233.691 254.368 233.727 254.602 234.009C254.816 234.263 259.874 240.172 266.942 236.909C267.277 236.753 267.673 236.9 267.828 237.235C267.982 237.569 267.836 237.965 267.501 238.12C265.808 238.901 264.209 239.211 262.744 239.211Z" fill="#F5786C"/>
<path d="M266.724 229.904C266.41 229.904 266.132 229.684 266.069 229.367C265.998 229.005 266.234 228.655 266.596 228.584L271.284 227.661C274.198 227.087 276.101 224.251 275.528 221.337C275.321 220.284 274.296 219.6 273.244 219.804C270.778 220.285 268.382 218.679 267.897 216.216L266.765 210.464C266.694 210.103 266.929 209.752 267.29 209.681C267.652 209.611 268.004 209.845 268.074 210.207L269.206 215.957C269.548 217.7 271.248 218.837 272.986 218.495C273.849 218.328 274.72 218.503 275.446 218.989C276.174 219.477 276.668 220.22 276.837 221.079C277.552 224.713 275.177 228.253 271.541 228.969L266.853 229.892L266.724 229.904Z" fill="#F5786C"/>
<path d="M253.442 222.875C252.55 223.041 251.683 222.448 251.516 221.556L251.148 219.589C250.982 218.697 251.574 217.831 252.466 217.664C253.358 217.497 254.224 218.089 254.391 218.981L254.76 220.949C254.927 221.841 254.334 222.707 253.442 222.875Z" fill="#1C1B21"/>
<path d="M281.401 218.331C280.509 218.499 279.642 217.905 279.476 217.013L279.108 215.045C278.94 214.153 279.533 213.288 280.425 213.12C281.317 212.953 282.184 213.547 282.35 214.439L282.718 216.405C282.885 217.297 282.292 218.164 281.401 218.331Z" fill="#1C1B21"/>
<path d="M246.418 230.952C245.394 230.952 244.504 230.177 244.388 229.137C244.262 228.02 245.073 227.004 246.189 226.879L251.82 226.245C251.896 226.237 251.973 226.232 252.048 226.232C253.072 226.232 253.961 227.007 254.078 228.048C254.204 229.164 253.393 230.18 252.276 230.307L246.646 230.939C246.57 230.948 246.493 230.952 246.418 230.952Z" fill="#F9AA8B"/>
<path d="M284.276 224.989C283.252 224.989 282.362 224.213 282.244 223.173C282.119 222.057 282.93 221.04 284.047 220.915L289.678 220.283C289.754 220.273 289.83 220.269 289.906 220.269C290.928 220.269 291.819 221.044 291.935 222.084C292.062 223.201 291.25 224.217 290.134 224.343L284.504 224.976C284.427 224.984 284.351 224.989 284.276 224.989Z" fill="#F9AA8B"/>
<path d="M273.459 253.721C273.323 253.721 273.185 253.679 273.067 253.592C270.443 251.673 267.719 253.521 267.604 253.6C267.301 253.811 266.888 253.736 266.677 253.436C266.467 253.135 266.539 252.72 266.839 252.508C268.073 251.64 271.128 250.523 273.853 252.516C274.151 252.733 274.215 253.151 273.999 253.448C273.868 253.627 273.665 253.721 273.459 253.721Z" fill="#F5786C"/>
</svg>
