<svg width="8" height="12" viewBox="0 0 8 12" fill="none" xmlns="http://www.w3.org/2000/svg">
<path d="M4.71018 6L1.17018 2.46C0.983927 2.27264 0.879386 2.01919 0.879386 1.755C0.879386 1.49082 0.983927 1.23736 1.17018 1.05C1.26314 0.956274 1.37374 0.881879 1.4956 0.83111C1.61746 0.780342 1.74817 0.754204 1.88018 0.754204C2.01219 0.754204 2.1429 0.780342 2.26476 0.83111C2.38661 0.881879 2.49722 0.956274 2.59018 1.05L6.83018 5.29C6.92391 5.38296 6.9983 5.49357 7.04907 5.61543C7.09984 5.73728 7.12598 5.86799 7.12598 6C7.12598 6.13201 7.09984 6.26272 7.04907 6.38458C6.9983 6.50644 6.92391 6.61704 6.83018 6.71L2.59018 11C2.49674 11.0927 2.38592 11.166 2.26408 11.2158C2.14225 11.2655 2.01179 11.2908 1.88018 11.29C1.74857 11.2908 1.61811 11.2655 1.49627 11.2158C1.37443 11.166 1.26362 11.0927 1.17018 11C0.983927 10.8126 0.879386 10.5592 0.879386 10.295C0.879386 10.0308 0.983927 9.77736 1.17018 9.59L4.71018 6Z" fill="white"/>
</svg>
