<svg width="24" height="24" viewBox="0 0 24 24" fill="none" xmlns="http://www.w3.org/2000/svg">
<path d="M21 7C21 4.8 19.2 3 17 3H16C15.4 3 15 3.4 15 4C15 4.6 15.4 5 16 5H17C18.1 5 19 5.9 19 7V8.1C19 8.7 19.4 9.1 20 9.1C20.6 9.1 21 8.7 21 8.1V7ZM21 16C21 15.4 20.6 15 20 15C19.4 15 19 15.4 19 16V17C19 18.1 18.1 19 17 19H16C15.4 19 15 19.4 15 20C15 20.6 15.4 21 16 21H17C19.2 21 21 19.2 21 17V16ZM3 17C3 19.2 4.8 21 7 21H8C8.6 21 9 20.6 9 20C9 19.4 8.6 19 8 19H7C5.9 19 5 18.1 5 17V16C5 15.4 4.6 15 4 15C3.4 15 3 15.4 3 16V17ZM8 3H7C4.8 3 3 4.8 3 7V8C3 8.6 3.4 9 4 9C4.6 9 5 8.6 5 8V7C5 5.9 5.9 5 7 5H8C8.6 5 9 4.6 9 4C9 3.4 8.6 3 8 3ZM15 9C15 7.3 13.7 6 12 6C10.3 6 9 7.3 9 9C9 10.7 10.3 12 12 12C13.7 12 15 10.7 15 9ZM12 10C11.4 10 11 9.6 11 9C11 8.4 11.4 8 12 8C12.6 8 13 8.4 13 9C13 9.6 12.6 10 12 10Z" fill="white"/>
<path d="M7.49976 14.4L7.09976 15.7C6.89976 16.2 7.19976 16.8 7.69976 17C8.19976 17.2 8.79976 16.9 8.99976 16.4L9.39976 15C9.59976 14.4 10.1998 14 10.7998 14H13.1998C13.7998 14 14.3998 14.4 14.5998 15L14.9998 16.3C15.0998 16.7 15.4998 17 15.8998 17C15.9998 17 16.0998 17 16.1998 16.9C16.6998 16.7 16.9998 16.2 16.7998 15.6L16.3998 14.3C15.9998 13 14.6998 12 13.1998 12H10.7998C9.29976 12 7.99976 13 7.49976 14.4Z" fill="white"/>
</svg>
