<svg width="24" height="24" viewBox="0 0 24 24" fill="none" xmlns="http://www.w3.org/2000/svg">
<g clip-path="url(#clip0_69_403)">
<path d="M21.5625 0H20.8125C20.5132 0.0013895 20.2266 0.121468 20.0157 0.333889C19.8048 0.54631 19.6868 0.833722 19.6875 1.13306V12.9073C19.6875 12.9126 19.6888 12.9176 19.689 12.9229C19.6888 12.9279 19.6875 12.9324 19.6875 12.9375C19.6875 13.0148 19.7116 13.0901 19.7563 13.1531L20.8388 15.888C20.8664 15.9579 20.9144 16.018 20.9766 16.0603C21.0388 16.1025 21.1123 16.1252 21.1875 16.1252C21.2627 16.1252 21.3362 16.1025 21.3984 16.0603C21.4606 16.018 21.5086 15.9579 21.5363 15.888L22.6187 13.1529C22.6634 13.09 22.6875 13.0147 22.6875 12.9375C22.6875 12.9324 22.6862 12.9277 22.686 12.9229C22.6862 12.9176 22.6875 12.9126 22.6875 12.9073V1.13306C22.6882 0.833722 22.5702 0.54631 22.3593 0.333889C22.1484 0.121468 21.8618 0.0013895 21.5625 0ZM21.9375 12.5625H20.4375V2.25H21.9375V12.5625ZM9.1875 20.0625C9.1875 19.2837 8.95657 18.5225 8.52391 17.8749C8.09125 17.2274 7.4763 16.7227 6.75682 16.4247C6.03733 16.1267 5.24563 16.0487 4.48183 16.2007C3.71803 16.3526 3.01644 16.7276 2.46577 17.2783C1.9151 17.8289 1.54009 18.5305 1.38816 19.2943C1.23623 20.0581 1.31421 20.8498 1.61223 21.5693C1.91025 22.2888 2.41493 22.9038 3.06244 23.3364C3.70996 23.7691 4.47124 24 5.25 24C6.29393 23.9988 7.29475 23.5836 8.03292 22.8454C8.77109 22.1073 9.18631 21.1064 9.1875 20.0625ZM5.25 23.25C4.61957 23.25 4.0033 23.0631 3.47912 22.7128C2.95494 22.3626 2.54639 21.8647 2.30514 21.2823C2.06388 20.6999 2.00076 20.059 2.12375 19.4406C2.24674 18.8223 2.55032 18.2544 2.9961 17.8086C3.44188 17.3628 4.00984 17.0592 4.62815 16.9362C5.24647 16.8133 5.88737 16.8764 6.46981 17.1176C7.05224 17.3589 7.55006 17.7674 7.90031 18.2916C8.25056 18.8158 8.4375 19.4321 8.4375 20.0625C8.43656 20.9076 8.10043 21.7178 7.50286 22.3154C6.9053 22.9129 6.09509 23.2491 5.25 23.25Z" fill="white"/>
<path d="M7.125 19.6875H5.625V18.1875C5.625 18.088 5.58549 17.9927 5.51516 17.9223C5.44484 17.852 5.34946 17.8125 5.25 17.8125C5.15054 17.8125 5.05516 17.852 4.98484 17.9223C4.91451 17.9927 4.875 18.088 4.875 18.1875V20.0625C4.875 20.162 4.91451 20.2573 4.98484 20.3277C5.05516 20.398 5.15054 20.4375 5.25 20.4375H7.125C7.22446 20.4375 7.31984 20.398 7.39017 20.3277C7.46049 20.2573 7.5 20.162 7.5 20.0625C7.5 19.963 7.46049 19.8677 7.39017 19.7973C7.31984 19.727 7.22446 19.6875 7.125 19.6875Z" fill="white"/>
<path d="M21.387 16.8557L21.3778 16.8577C21.315 16.8688 21.2513 16.8746 21.1875 16.875C20.9618 16.8758 20.7412 16.8084 20.5545 16.6816C20.3678 16.5548 20.2238 16.3745 20.1414 16.1644L19.3817 14.2444C19.3588 14.2482 19.3357 14.2501 19.3125 14.25H7.3125C7.21305 14.25 7.11767 14.2105 7.04734 14.1402C6.97701 14.0698 6.9375 13.9745 6.9375 13.875C6.9375 13.7755 6.97701 13.6802 7.04734 13.6098C7.11767 13.5395 7.21305 13.5 7.3125 13.5H19.0871L19.0834 13.4906C18.9875 13.3221 18.9373 13.1314 18.9375 12.9375V12.75H7.3125C7.21305 12.75 7.11767 12.7105 7.04734 12.6402C6.97701 12.5698 6.9375 12.4745 6.9375 12.375C6.9375 12.2755 6.97701 12.1802 7.04734 12.1098C7.11767 12.0395 7.21305 12 7.3125 12H18.9375V11.25H7.3125C7.21305 11.25 7.11767 11.2105 7.04734 11.1402C6.97701 11.0698 6.9375 10.9745 6.9375 10.875C6.9375 10.7755 6.97701 10.6802 7.04734 10.6098C7.11767 10.5395 7.21305 10.5 7.3125 10.5H18.9375V9.75H7.3125C7.21305 9.75 7.11767 9.71049 7.04734 9.64016C6.97701 9.56984 6.9375 9.47446 6.9375 9.375C6.9375 9.27554 6.97701 9.18016 7.04734 9.10983C7.11767 9.03951 7.21305 9 7.3125 9H18.9375V8.25H7.3125C7.21305 8.25 7.11767 8.21049 7.04734 8.14016C6.97701 8.06984 6.9375 7.97446 6.9375 7.875C6.9375 7.77554 6.97701 7.68016 7.04734 7.60983C7.11767 7.53951 7.21305 7.5 7.3125 7.5H18.9375V6.75H7.3125C7.21305 6.75 7.11767 6.71049 7.04734 6.64016C6.97701 6.56984 6.9375 6.47446 6.9375 6.375C6.9375 6.27554 6.97701 6.18016 7.04734 6.10983C7.11767 6.03951 7.21305 6 7.3125 6H18.9375V5.25H7.3125C7.21305 5.25 7.11767 5.21049 7.04734 5.14016C6.97701 5.06984 6.9375 4.97446 6.9375 4.875C6.9375 4.77554 6.97701 4.68016 7.04734 4.60983C7.11767 4.53951 7.21305 4.5 7.3125 4.5H18.9375V1.13306C18.9382 1.03278 18.9469 0.932711 18.9636 0.833812L18.9499 0.749999H18.9767C18.9906 0.683848 19.0082 0.618502 19.0292 0.554249C19.0329 0.542624 19.0376 0.531374 19.0416 0.519749C19.0603 0.465937 19.0808 0.413249 19.1038 0.361687C19.1076 0.353249 19.1119 0.344812 19.1158 0.336562C19.1418 0.281187 19.1703 0.227374 19.2011 0.175124L19.2073 0.164812C19.2414 0.107964 19.2784 0.0529498 19.3183 -5.46042e-07H8.79525C8.757 -5.46042e-07 8.71932 0.00187445 8.68182 0.00562445C8.63452 -0.00304609 8.58594 -0.00189428 8.5391 0.00900827C8.49227 0.0199108 8.44818 0.0403311 8.40957 0.0689995C8.25559 0.124863 8.11574 0.21383 7.99988 0.329624L5.39194 2.937C5.28715 3.04123 5.20407 3.16522 5.14752 3.30178C5.09097 3.43834 5.06208 3.58476 5.0625 3.73256V15.3797C5.12475 15.3772 5.18719 15.375 5.25 15.375C6.18717 15.3743 7.10299 15.6548 7.87908 16.1801C8.65517 16.7054 9.25583 17.4514 9.60343 18.3218C9.95103 19.1921 10.0296 20.1467 9.82891 21.0621C9.62824 21.9775 9.1576 22.8117 8.47782 23.4568L8.47032 23.4639C8.26001 23.6632 8.03179 23.8426 7.78857 24H20.4375C20.7358 23.9997 21.0217 23.881 21.2326 23.6701C21.4435 23.4592 21.5622 23.1733 21.5625 22.875V16.809C21.5054 16.8293 21.4467 16.8448 21.387 16.8557ZM11.4375 3H15.1875C15.287 3 15.3823 3.03951 15.4527 3.10983C15.523 3.18016 15.5625 3.27554 15.5625 3.375C15.5625 3.47446 15.523 3.56984 15.4527 3.64016C15.3823 3.71049 15.287 3.75 15.1875 3.75H11.4375C11.338 3.75 11.2427 3.71049 11.1723 3.64016C11.102 3.56984 11.0625 3.47446 11.0625 3.375C11.0625 3.27554 11.102 3.18016 11.1723 3.10983C11.2427 3.03951 11.338 3 11.4375 3ZM20.0625 18C20.0625 18.0995 20.023 18.1948 19.9527 18.2652C19.8823 18.3355 19.787 18.375 19.6875 18.375H13.125C13.0255 18.375 12.9302 18.3355 12.8598 18.2652C12.7895 18.1948 12.75 18.0995 12.75 18C12.75 17.9005 12.7895 17.8052 12.8598 17.7348C12.9302 17.6645 13.0255 17.625 13.125 17.625H19.6875C19.787 17.625 19.8823 17.6645 19.9527 17.7348C20.023 17.8052 20.0625 17.9005 20.0625 18ZM8.25 1.13962V2.58825C8.24986 2.69744 8.2064 2.80211 8.12918 2.8793C8.05195 2.95649 7.94726 2.9999 7.83807 3H6.38963L8.25 1.13962ZM7.3125 15.75C7.21305 15.75 7.11767 15.7105 7.04734 15.6402C6.97701 15.5698 6.9375 15.4745 6.9375 15.375C6.9375 15.2755 6.97701 15.1802 7.04734 15.1098C7.11767 15.0395 7.21305 15 7.3125 15H19.3125C19.412 15 19.5073 15.0395 19.5777 15.1098C19.648 15.1802 19.6875 15.2755 19.6875 15.375C19.6875 15.4745 19.648 15.5698 19.5777 15.6402C19.5073 15.7105 19.412 15.75 19.3125 15.75H7.3125ZM19.875 21H13.125C13.0255 21 12.9302 20.9605 12.8598 20.8902C12.7895 20.8198 12.75 20.7245 12.75 20.625C12.75 20.5255 12.7895 20.4302 12.8598 20.3598C12.9302 20.2895 13.0255 20.25 13.125 20.25H19.875C19.9745 20.25 20.0698 20.2895 20.1402 20.3598C20.2105 20.4302 20.25 20.5255 20.25 20.625C20.25 20.7245 20.2105 20.8198 20.1402 20.8902C20.0698 20.9605 19.9745 21 19.875 21Z" fill="white"/>
</g>
<defs>
<clipPath id="clip0_69_403">
<rect width="24" height="24" fill="white"/>
</clipPath>
</defs>
</svg>
