<svg width="48" height="48" viewBox="0 0 48 48" fill="none" xmlns="http://www.w3.org/2000/svg">
<g clip-path="url(#clip0_50_56)">
<mask id="mask0_50_56" style="mask-type:luminance" maskUnits="userSpaceOnUse" x="0" y="0" width="48" height="48">
<path d="M48 0H0V48H48V0Z" fill="white"/>
</mask>
<g mask="url(#mask0_50_56)">
<path d="M30 2H18V6H30V2ZM22 28H26V16H22V28ZM38.05 14.77L40.9 11.92C40.04 10.89 39.1 9.95 38.07 9.09L35.22 11.94C32.0351 9.38513 28.073 7.99503 23.99 8C14.04 8 6 16.06 6 26C6 35.94 14.04 44 23.99 44C33.94 44 42 35.94 42 26C42 21.75 40.52 17.85 38.05 14.77ZM24 40C16.27 40 10 33.73 10 26C10 18.27 16.27 12 24 12C31.73 12 38 18.27 38 26C38 33.73 31.73 40 24 40Z" fill="#E3B174"/>
</g>
</g>
<defs>
<clipPath id="clip0_50_56">
<rect width="48" height="48" fill="white"/>
</clipPath>
</defs>
</svg>
