<svg width="113" height="139" viewBox="0 0 113 139" fill="none" xmlns="http://www.w3.org/2000/svg">
<mask id="path-1-inside-1_366_19" fill="white">
<path d="M0 23C0 10.2975 10.2975 0 23 0H90C102.703 0 113 10.2975 113 23V116C113 128.703 102.703 139 90 139H23C10.2975 139 0 128.703 0 116V23Z"/>
</mask>
<path d="M-25 18C-25 -8.50967 -3.50967 -30 23 -30H90C116.51 -30 138 -8.50967 138 18L88 30H25L-25 18ZM138 121C138 147.51 116.51 169 90 169H23C-3.50967 169 -25 147.51 -25 121L25 109H88L138 121ZM23 169C-3.50967 169 -25 147.51 -25 121V18C-25 -8.50967 -3.50967 -30 23 -30L25 30V109L23 169ZM90 -30C116.51 -30 138 -8.50967 138 18V121C138 147.51 116.51 169 90 169L88 109V30L90 -30Z" fill="white" mask="url(#path-1-inside-1_366_19)"/>
<rect x="24" y="46" width="65" height="14.918" fill="white"/>
<rect x="24" y="77.9673" width="65" height="14.918" fill="white"/>
</svg>
