<svg width="24" height="24" viewBox="0 0 24 24" fill="none" xmlns="http://www.w3.org/2000/svg">
<g clip-path="url(#clip0_52_66)">
<path d="M10.6354 11.814C10.9081 11.814 11.1724 11.7195 11.3832 11.5465C11.594 11.3735 11.7383 11.1327 11.7914 10.8653C11.8446 10.5978 11.8034 10.3202 11.6749 10.0797C11.5463 9.83923 11.3384 9.65076 11.0864 9.54641C10.8345 9.44206 10.5542 9.4283 10.2932 9.50747C10.0323 9.58664 9.80685 9.75384 9.65536 9.98058C9.50387 10.2073 9.43568 10.4796 9.46242 10.751C9.48916 11.0223 9.60917 11.276 9.802 11.4689C9.9112 11.5787 10.0411 11.6657 10.1841 11.7249C10.3272 11.7842 10.4806 11.8145 10.6354 11.814ZM10.2992 10.2992C10.3433 10.255 10.3957 10.22 10.4534 10.1961C10.5111 10.1722 10.573 10.1599 10.6354 10.1599C10.6978 10.1599 10.7597 10.1722 10.8174 10.1961C10.8751 10.22 10.9275 10.255 10.9717 10.2992C11.0158 10.3433 11.0508 10.3957 11.0747 10.4534C11.0986 10.5111 11.1109 10.573 11.1109 10.6354C11.1109 10.6979 11.0986 10.7597 11.0748 10.8174C11.0509 10.8751 11.0158 10.9275 10.9717 10.9717C10.9275 11.0158 10.8751 11.0508 10.8174 11.0747C10.7597 11.0986 10.6978 11.1109 10.6354 11.1109C10.5729 11.1109 10.5111 11.0986 10.4534 11.0747C10.3957 11.0508 10.3433 11.0158 10.2992 10.9717C10.255 10.9275 10.22 10.8751 10.1961 10.8174C10.1722 10.7597 10.1599 10.6979 10.1599 10.6354C10.1599 10.573 10.1722 10.5111 10.1961 10.4535C10.22 10.3958 10.255 10.3433 10.2992 10.2992ZM12 6.72656C10.957 6.72656 9.93747 7.03585 9.07025 7.6153C8.20304 8.19475 7.52713 9.01835 7.128 9.98194C6.72886 10.9455 6.62443 12.0059 6.82791 13.0288C7.03139 14.0517 7.53363 14.9914 8.27114 15.7289C9.00864 16.4664 9.94828 16.9686 10.9712 17.1721C11.9942 17.3756 13.0545 17.2712 14.0181 16.872C14.9817 16.4729 15.8053 15.797 16.3847 14.9298C16.9642 14.0626 17.2735 13.043 17.2735 12C17.2719 10.6019 16.7158 9.26148 15.7272 8.27286C14.7385 7.28424 13.3981 6.72814 12 6.72656ZM12 16.5703C11.0961 16.5703 10.2125 16.3023 9.46089 15.8001C8.70931 15.2979 8.12352 14.5841 7.7776 13.749C7.43168 12.9139 7.34118 11.9949 7.51752 11.1084C7.69387 10.2218 8.12915 9.40747 8.76832 8.7683C9.40749 8.12913 10.2218 7.69385 11.1084 7.51751C11.9949 7.34116 12.9139 7.43167 13.749 7.77758C14.5841 8.1235 15.2979 8.70929 15.8001 9.46087C16.3023 10.2125 16.5703 11.0961 16.5703 12C16.569 13.2117 16.087 14.3734 15.2302 15.2302C14.3734 16.087 13.2117 16.5689 12 16.5703ZM23.8971 3.92606L20.074 0.102938C20.0248 0.0537582 19.9621 0.0202646 19.8939 0.00669407C19.8257 -0.00687647 19.755 8.57478e-05 19.6908 0.0267001C19.6265 0.0533144 19.5716 0.0983852 19.533 0.156211C19.4944 0.214038 19.4738 0.282021 19.4738 0.351563V2.10797H13.5052C13.4119 2.10797 13.3225 2.14501 13.2566 2.21094C13.1907 2.27687 13.1536 2.36629 13.1536 2.45953C13.1536 2.55277 13.1907 2.64219 13.2566 2.70812C13.3225 2.77405 13.4119 2.81109 13.5052 2.81109H19.8253C19.9186 2.81109 20.008 2.77405 20.0739 2.70812C20.1399 2.64219 20.1769 2.55277 20.1769 2.45953V1.20028L23.1513 4.17469L20.1769 7.1491V5.88984C20.1769 5.7966 20.1399 5.70718 20.0739 5.64125C20.008 5.57532 19.9186 5.53828 19.8253 5.53828H14.338C14.0964 5.44547 13.8423 5.20341 13.5963 4.96875C13.2068 4.59713 12.8039 4.21284 12.2727 4.19419C11.7205 4.17324 11.2629 4.55597 10.8599 4.89234C10.6035 5.10638 10.3383 5.32767 10.1061 5.39442C9.86894 5.46272 9.523 5.41575 9.18846 5.37024C8.67199 5.30011 8.08652 5.22066 7.63361 5.52558C7.18525 5.8275 7.0458 6.37214 6.91099 6.89892C6.82661 7.22864 6.73928 7.56956 6.58399 7.76845C6.43985 7.953 6.13994 8.11331 5.84988 8.26833C5.38347 8.51756 4.85486 8.80003 4.66221 9.32925C4.46964 9.85847 4.69296 10.4147 4.89002 10.9054C5.0126 11.2106 5.13935 11.5262 5.1311 11.7602C5.12224 12.0124 4.96994 12.3297 4.82266 12.6365C4.58735 13.1266 4.34407 13.6335 4.49346 14.153C4.64439 14.6777 5.14394 14.9931 5.58471 15.2714C5.87017 15.4516 6.16535 15.638 6.30325 15.8427C6.43816 16.0431 6.499 16.3831 6.55792 16.7119C6.62055 17.0618 6.68927 17.443 6.86214 17.7586H4.52627V16.0022C4.52627 15.9327 4.50566 15.8647 4.46703 15.8069C4.4284 15.7491 4.3735 15.704 4.30926 15.6774C4.24502 15.6508 4.17434 15.6438 4.10614 15.6574C4.03794 15.6709 3.9753 15.7044 3.92613 15.7536L0.103003 19.5767C0.0703476 19.6093 0.0444434 19.6481 0.02677 19.6908C0.00909651 19.7334 0 19.7791 0 19.8253C0 19.8715 0.00909651 19.9172 0.02677 19.9599C0.0444434 20.0025 0.0703476 20.0413 0.103003 20.0739L3.92613 23.8971C3.9753 23.9462 4.03794 23.9797 4.10614 23.9933C4.17434 24.0068 4.24502 23.9999 4.30926 23.9733C4.3735 23.9466 4.4284 23.9016 4.46703 23.8438C4.50566 23.7859 4.52627 23.718 4.52627 23.6484V21.892H10.4949C10.5881 21.892 10.6775 21.855 10.7435 21.7891C10.8094 21.7231 10.8464 21.6337 10.8464 21.5405C10.8464 21.4472 10.8094 21.3578 10.7435 21.2919C10.6775 21.2259 10.5881 21.1889 10.4949 21.1889H4.17471C4.08147 21.1889 3.99204 21.2259 3.92611 21.2919C3.86018 21.3578 3.82314 21.4472 3.82314 21.5405V22.7997L0.848737 19.8253L3.82314 16.8509V18.1102C3.82314 18.2034 3.86018 18.2928 3.92611 18.3587C3.99204 18.4247 4.08147 18.4617 4.17471 18.4617H9.66199C9.90363 18.5545 10.1578 18.7966 10.4037 19.0313C10.7933 19.4029 11.1961 19.7872 11.7273 19.8058C11.7409 19.8063 11.7544 19.8066 11.7679 19.8066C12.3027 19.8065 12.747 19.4357 13.1401 19.1077C13.3966 18.8936 13.6617 18.6723 13.8939 18.6056C14.1311 18.5373 14.477 18.5843 14.8116 18.6298C15.3281 18.6998 15.9135 18.7793 16.3664 18.4744C16.8148 18.1725 16.9542 17.6279 17.0891 17.101C17.1735 16.7714 17.2608 16.4304 17.4161 16.2315C17.5602 16.047 17.8601 15.8867 18.1502 15.7317C18.6166 15.4824 19.1452 15.2 19.3378 14.6708C19.5304 14.1415 19.3071 13.5853 19.11 13.0946C18.9874 12.7894 18.8607 12.4738 18.8689 12.2398C18.8778 11.9876 19.0301 11.6704 19.1773 11.3635C19.4126 10.8734 19.6559 10.3665 19.5066 9.84699C19.3556 9.32227 18.8561 9.00685 18.4153 8.7286C18.1299 8.54836 17.8347 8.36203 17.6968 8.15719C17.5619 7.95689 17.501 7.61686 17.4422 7.28813C17.3795 6.93825 17.3108 6.55702 17.1378 6.24141H19.4738V7.99781C19.4738 8.06736 19.4944 8.13534 19.533 8.19317C19.5716 8.25099 19.6265 8.29606 19.6908 8.32268C19.755 8.34929 19.8257 8.35625 19.8939 8.34268C19.9621 8.32911 20.0248 8.29562 20.074 8.24644L23.8971 4.42331C23.963 4.35737 24.0001 4.26794 24.0001 4.17469C24.0001 4.08144 23.963 3.992 23.8971 3.92606ZM18.04 9.32316C18.391 9.54474 18.7539 9.77391 18.8308 10.0414C18.9063 10.3036 18.7218 10.6877 18.5434 11.0593C18.3649 11.4313 18.1803 11.8159 18.1662 12.2152C18.1528 12.5978 18.3077 12.9835 18.4575 13.3566C18.6149 13.7486 18.7777 14.1538 18.677 14.4302C18.5765 14.7067 18.1913 14.9125 17.8188 15.1116C17.4642 15.301 17.0976 15.497 16.8619 15.7988C16.6161 16.1136 16.5103 16.5269 16.4079 16.9267C16.3057 17.3259 16.2001 17.7388 15.9737 17.8912C15.7429 18.0466 15.3176 17.9889 14.9062 17.933C14.4996 17.8778 14.0792 17.8207 13.6996 17.9298C13.325 18.0375 13.002 18.3071 12.6896 18.5678C12.3684 18.836 12.0351 19.1125 11.752 19.1032C11.488 19.0939 11.1835 18.8034 10.889 18.5225C10.5867 18.234 10.2739 17.9357 9.89041 17.7961C9.87067 17.7889 9.85066 17.7828 9.83064 17.7764L9.82221 17.7736C9.60898 17.7127 9.3878 17.6842 9.1661 17.689C8.99735 17.689 8.82672 17.6999 8.65849 17.7106C8.25227 17.7366 7.83241 17.7634 7.62424 17.6008C7.40008 17.4257 7.32377 16.9998 7.25003 16.588C7.17832 16.1875 7.10416 15.7733 6.88647 15.45C6.66592 15.1224 6.3071 14.8959 5.96008 14.6768C5.60908 14.4553 5.24613 14.2261 5.16921 13.9586C5.09378 13.6964 5.27819 13.3123 5.45655 12.9408C5.63514 12.5688 5.81978 12.1841 5.8338 11.7849C5.84725 11.4022 5.69233 11.0165 5.54252 10.6434C5.38511 10.2514 5.22236 9.84614 5.32296 9.56977C5.42355 9.29334 5.80877 9.08752 6.18124 8.88844C6.53585 8.69897 6.90246 8.50303 7.13814 8.20125C7.38396 7.88644 7.4898 7.47309 7.59213 7.0733C7.69432 6.67406 7.80002 6.26119 8.02638 6.1088C8.25719 5.95336 8.68253 6.01116 9.09382 6.06699C9.5005 6.12216 9.92097 6.1793 10.3005 6.07017C10.675 5.96245 10.998 5.69288 11.3104 5.43216C11.626 5.16881 11.9522 4.89661 12.2331 4.89661C12.238 4.89661 12.2431 4.89666 12.248 4.89684C12.512 4.90613 12.8165 5.19656 13.111 5.47753C13.4134 5.766 13.7261 6.06431 14.1096 6.20391C14.4932 6.34341 14.9243 6.31603 15.3416 6.28936C15.7476 6.2633 16.1675 6.23663 16.3758 6.39924C16.6 6.57431 16.6763 7.00017 16.75 7.41202C16.8217 7.81256 16.8959 8.2267 17.1136 8.54995C17.3342 8.87756 17.693 9.10402 18.04 9.32316ZM12.5311 12.5311C12.3663 12.6959 12.254 12.906 12.2085 13.1346C12.163 13.3632 12.1864 13.6002 12.2756 13.8156C12.3648 14.031 12.5159 14.2151 12.7097 14.3446C12.9035 14.4741 13.1314 14.5432 13.3645 14.5432C13.5977 14.5432 13.8256 14.4741 14.0194 14.3446C14.2132 14.2151 14.3643 14.031 14.4535 13.8156C14.5427 13.6002 14.5661 13.3632 14.5206 13.1346C14.4751 12.906 14.3628 12.6959 14.198 12.5311C13.9768 12.3104 13.677 12.1864 13.3645 12.1864C13.0521 12.1864 12.7523 12.3104 12.5311 12.5311ZM13.7008 13.7008C13.6343 13.7672 13.5496 13.8124 13.4574 13.8307C13.3652 13.849 13.2697 13.8396 13.1828 13.8036C13.096 13.7676 13.0218 13.7067 12.9696 13.6286C12.9174 13.5504 12.8895 13.4585 12.8895 13.3645C12.8895 13.2705 12.9174 13.1787 12.9696 13.1005C13.0218 13.0223 13.096 12.9614 13.1828 12.9254C13.2697 12.8895 13.3652 12.88 13.4574 12.8983C13.5496 12.9166 13.6343 12.9619 13.7008 13.0283C13.7899 13.1175 13.8399 13.2384 13.8399 13.3645C13.8399 13.4906 13.7899 13.6115 13.7008 13.7008ZM13.943 9.55964L9.7946 13.7081C9.72866 13.7741 9.69161 13.8635 9.6916 13.9567C9.69159 14.05 9.72862 14.1394 9.79455 14.2053C9.86048 14.2713 9.9499 14.3083 10.0431 14.3083C10.1364 14.3083 10.2258 14.2713 10.2918 14.2054L14.4403 10.0569C14.5062 9.99095 14.5433 9.90152 14.5433 9.80827C14.5433 9.71501 14.5062 9.62558 14.4403 9.55964C14.3743 9.4937 14.2849 9.45666 14.1917 9.45666C14.0984 9.45666 14.009 9.4937 13.943 9.55964Z" fill="white"/>
</g>
<defs>
<clipPath id="clip0_52_66">
<rect width="24" height="24" fill="white"/>
</clipPath>
</defs>
</svg>
