<svg width="18" height="21" viewBox="0 0 18 21" fill="none" xmlns="http://www.w3.org/2000/svg">
<path d="M12 0H6V2H12V0ZM8 13H10V7H8V13ZM16.03 6.39L17.45 4.97C17.02 4.46 16.55 3.98 16.04 3.56L14.62 4.98C13.0273 3.69833 11.0443 2.99969 9 3C4.03 3 0 7.03 0 12C0 16.97 4.02 21 9 21C10.6943 21.0009 12.3544 20.5232 13.7891 19.622C15.2238 18.7207 16.3748 17.4325 17.1094 15.9057C17.8441 14.379 18.1325 12.6758 17.9415 10.9923C17.7506 9.30874 17.088 7.71341 16.03 6.39ZM9 19C5.13 19 2 15.87 2 12C2 8.13 5.13 5 9 5C12.87 5 16 8.13 16 12C16 15.87 12.87 19 9 19Z" fill="#E3B174"/>
</svg>
