<svg width="24" height="24" viewBox="0 0 24 24" fill="none" xmlns="http://www.w3.org/2000/svg">
<path d="M21.75 16.5H16.5C16.3011 16.5 16.1103 16.421 15.9697 16.2803C15.829 16.1397 15.75 15.9489 15.75 15.75C15.75 15.5511 15.829 15.3603 15.9697 15.2197C16.1103 15.079 16.3011 15 16.5 15H21V5.25H3V15H7.5C7.69891 15 7.88968 15.079 8.03033 15.2197C8.17098 15.3603 8.25 15.5511 8.25 15.75C8.25 15.9489 8.17098 16.1397 8.03033 16.2803C7.88968 16.421 7.69891 16.5 7.5 16.5H2.25C2.05109 16.5 1.86032 16.421 1.71967 16.2803C1.57902 16.1397 1.5 15.9489 1.5 15.75V4.5C1.5 4.30109 1.57902 4.11032 1.71967 3.96967C1.86032 3.82902 2.05109 3.75 2.25 3.75H21.75C21.9489 3.75 22.1397 3.82902 22.2803 3.96967C22.421 4.11032 22.5 4.30109 22.5 4.5V15.75C22.5 15.9489 22.421 16.1397 22.2803 16.2803C22.1397 16.421 21.9489 16.5 21.75 16.5Z" fill="white"/>
<path d="M16.5 22.5H7.5C7.30109 22.5 7.11032 22.421 6.96967 22.2803C6.82902 22.1397 6.75 21.9489 6.75 21.75V11.25C6.75 11.0511 6.82902 10.8603 6.96967 10.7197C7.11032 10.579 7.30109 10.5 7.5 10.5H16.5C16.6989 10.5 16.8897 10.579 17.0303 10.7197C17.171 10.8603 17.25 11.0511 17.25 11.25V21.75C17.25 21.9489 17.171 22.1397 17.0303 22.2803C16.8897 22.421 16.6989 22.5 16.5 22.5ZM8.25 21H15.75V12H8.25V21Z" fill="white"/>
<path d="M18.75 12H5.25C5.05109 12 4.86032 11.921 4.71967 11.7803C4.57902 11.6397 4.5 11.4489 4.5 11.25C4.5 11.0511 4.57902 10.8603 4.71967 10.7197C4.86032 10.579 5.05109 10.5 5.25 10.5H18.75C18.9489 10.5 19.1397 10.579 19.2803 10.7197C19.421 10.8603 19.5 11.0511 19.5 11.25C19.5 11.4489 19.421 11.6397 19.2803 11.7803C19.1397 11.921 18.9489 12 18.75 12Z" fill="white"/>
<path d="M18.75 9C19.1642 9 19.5 8.66421 19.5 8.25C19.5 7.83579 19.1642 7.5 18.75 7.5C18.3358 7.5 18 7.83579 18 8.25C18 8.66421 18.3358 9 18.75 9Z" fill="white"/>
<path d="M15 9H6.75C6.55109 9 6.36032 8.92098 6.21967 8.78033C6.07902 8.63968 6 8.44891 6 8.25C6 8.05109 6.07902 7.86032 6.21967 7.71967C6.36032 7.57902 6.55109 7.5 6.75 7.5H15C15.1989 7.5 15.3897 7.57902 15.5303 7.71967C15.671 7.86032 15.75 8.05109 15.75 8.25C15.75 8.44891 15.671 8.63968 15.5303 8.78033C15.3897 8.92098 15.1989 9 15 9ZM11.5875 18.6075V18C11.2223 17.992 10.8635 17.9023 10.5375 17.7375L10.725 16.9875C11.0373 17.1607 11.3879 17.2535 11.745 17.2575C12.0975 17.2575 12.3375 17.1225 12.3375 16.875C12.3375 16.6275 12.1425 16.4925 11.685 16.3425C11.025 16.1175 10.575 15.81 10.575 15.21C10.585 14.9316 10.6965 14.6666 10.8886 14.4648C11.0807 14.2631 11.34 14.1386 11.6175 14.115V13.53H12.2175V14.07C12.5266 14.0753 12.831 14.1469 13.11 14.28L12.93 14.97C12.6547 14.8338 12.3521 14.762 12.045 14.76C11.6475 14.76 11.52 14.9325 11.52 15.105C11.52 15.2775 11.73 15.4425 12.27 15.6375C13.02 15.8925 13.2975 16.2375 13.2975 16.7925C13.3077 17.0991 13.1971 17.3975 12.9895 17.6233C12.7819 17.8492 12.4939 17.9844 12.1875 18V18.63L11.5875 18.6075Z" fill="white"/>
<path d="M12.3753 18.795H11.4003V18.195C11.0668 18.1705 10.7423 18.076 10.4478 17.9175L10.3203 17.85L10.6053 16.755L10.8153 16.875C11.1005 17.0322 11.4198 17.1171 11.7453 17.1225C11.8128 17.1225 12.1503 17.1225 12.1503 16.9275C12.1503 16.8675 12.1503 16.7475 11.6253 16.5675C11.1003 16.3875 10.3878 16.05 10.3878 15.2625C10.3926 14.967 10.4988 14.682 10.6886 14.4554C10.8784 14.2288 11.1402 14.0742 11.4303 14.0175V13.395H12.4053V13.95C12.6784 13.9715 12.9453 14.0426 13.1928 14.16L13.3353 14.2275L13.0578 15.285L12.8103 15.18C12.5778 15.0624 12.3209 15.0007 12.0603 15C11.9328 15 11.7228 15 11.7228 15.1575C11.7228 15.315 12.0528 15.405 12.3378 15.5175C13.1403 15.795 13.4853 16.1925 13.4853 16.845C13.4799 17.1534 13.3679 17.4505 13.1683 17.6856C12.9687 17.9208 12.6938 18.0796 12.3903 18.135L12.3753 18.795ZM11.7753 18.42H12.0003V17.82H12.1578C12.4042 17.8054 12.6365 17.6999 12.8097 17.524C12.9828 17.348 13.0846 17.1141 13.0953 16.8675C13.0953 16.47 12.9453 16.155 12.1953 15.8925C11.7003 15.705 11.3328 15.5325 11.3328 15.18C11.3328 14.8275 11.5203 14.6475 12.0453 14.6475C12.302 14.6477 12.5564 14.6961 12.7953 14.79L12.8853 14.46C12.6658 14.3824 12.4355 14.3394 12.2028 14.3325H12.0003V13.8H11.7753V14.355H11.6253C11.3908 14.3696 11.17 14.4703 11.0052 14.6378C10.8405 14.8053 10.7435 15.0278 10.7328 15.2625C10.7328 15.705 11.0178 16.0125 11.7153 16.215C12.1203 16.35 12.4653 16.53 12.4653 16.9275C12.4653 17.325 12.1578 17.4975 11.7153 17.4975C11.4061 17.4927 11.1007 17.429 10.8153 17.31L10.7253 17.655C10.9932 17.7618 11.2772 17.8227 11.5653 17.835H11.7453L11.7753 18.42Z" fill="white"/>
<path d="M18.585 3C18.9081 3 19.17 2.73809 19.17 2.415C19.17 2.09192 18.9081 1.83 18.585 1.83C18.2619 1.83 18 2.09192 18 2.415C18 2.73809 18.2619 3 18.585 3Z" fill="white"/>
<path d="M8.08516 3.3C8.25084 3.3 8.38516 3.16569 8.38516 3C8.38516 2.83432 8.25084 2.7 8.08516 2.7C7.91947 2.7 7.78516 2.83432 7.78516 3C7.78516 3.16569 7.91947 3.3 8.08516 3.3Z" fill="white"/>
</svg>
